<svg xmlns="http://www.w3.org/2000/svg" width="27.475" height="27.477"><g data-name="グループ 1" transform="translate(-354.569 -14054.263)"><path data-name="パス 2" d="M374.011 14054.263H362.6a8.043 8.043 0 00-8.033 8.034v11.409a8.042 8.042 0 008.033 8.033h11.409a8.042 8.042 0 008.033-8.033v-11.406a8.043 8.043 0 00-8.031-8.037zm5.472 19.443a5.479 5.479 0 01-5.472 5.472H362.6a5.479 5.479 0 01-5.472-5.472v-11.406a5.478 5.478 0 015.472-5.472h11.409a5.478 5.478 0 015.472 5.472z"/><circle data-name="楕円形 2" cx="1.712" cy="1.712" r="1.712" transform="translate(373.935 14058.962)"/><path data-name="パス 3" d="M368.306 14075.1a7.1 7.1 0 117.1-7.1 7.109 7.109 0 01-7.1 7.1zm0-11.642a4.541 4.541 0 104.541 4.54 4.546 4.546 0 00-4.541-4.537z"/></g></svg>