<svg xmlns="http://www.w3.org/2000/svg" width="126.847" height="76.81"><g data-name="1fのコピー"><g data-name="bのコピー 3" fill="#e8e1d6"><path data-name="パス 2178" d="M33.867 9.001c-2.111-2.824-5.163-5.515-8.9-5.4a1.633 1.633 0 00-.2.026 16.529 16.529 0 00-9.294-2.2c-3.764.113-6.557 2.212-9.088 4.808C3.71 8.979 1.75 11.781 1.43 15.702a26.412 26.412 0 00.265 5.475 28.983 28.983 0 00.965 5.317c1.329 4.082 4.921 7.058 8.036 9.807a1.535 1.535 0 002.522-1.566 1.447 1.447 0 001.215-1.867 20.537 20.537 0 013.723-18.151 8.494 8.494 0 011.536-1.7c.772-.566.97-.248 1.348.449a14.443 14.443 0 002.958 3.887 7.449 7.449 0 004.191 2.227 9.962 9.962 0 002.73-.305c.49-.094 1.524-.347 1.868.192.561.878 2.15 1.114 2.648 0 1.597-3.569.721-7.403-1.568-10.466zM9.203 29.062c-.168.066-.259-.018-.274-.25a4.04 4.04 0 01-.583-1.352 4.99 4.99 0 01-.352-3.176c.46-1.249.891-.149 1.058.615.217 1 .289 2.03.461 3.035.073.426.163.846.257 1.266a1.888 1.888 0 00-.567-.138z"/><path data-name="パス 2179" d="M114.932 6.37c-1.863-2.505-4.25-4.68-7.37-5.4a11.324 11.324 0 00-8.618 1.459c-1.856-.576-4.073.109-5.758.884a15.383 15.383 0 00-5.6 4.617c-2.907 3.75-3.846 9.321.422 12.475a1.54 1.54 0 002.252-.917 14.927 14.927 0 011.218-3.756c.128-.258.538-1.309.911-1.407a3.046 3.046 0 01.417.621 8.447 8.447 0 004.43 4.338c.986.4 1.889-.594 1.941-1.479a17.69 17.69 0 01.372-2.816c.019-.095.047-.188.07-.282.287.2.691.466.729.5a33.753 33.753 0 003.84 2.686 15.574 15.574 0 004.337 1.431c1.689.388 2.585 2.542 3.254 3.983a1.545 1.545 0 002.408.31.322.322 0 01.512.219c.389 1.608 2.437 1.292 2.956 0 2.32-5.766.921-12.566-2.723-17.466z"/><path data-name="パス 2180" d="M91.593 43.601a6.389 6.389 0 01.189-.84 1.534 1.534 0 00-2.957-.815 7.414 7.414 0 00-.312 2.432 1.217 1.217 0 00-.112.295l-.088.384a1.552 1.552 0 00.549 1.612 1.456 1.456 0 00.726.3 1.508 1.508 0 00.692-.082l.061-.008-.1.04a.924.924 0 01.179-.052 1.489 1.489 0 00.915-.563 1.565 1.565 0 00.274-1.337c-.007-.036-.011-.072-.017-.107a6.252 6.252 0 01.001-1.259z"/><path data-name="パス 2181" d="M117.397 40.442a2.475 2.475 0 01-.126-.456 6.841 6.841 0 01.04-1.2q.09-.813.184-1.623a1.527 1.527 0 00-.45-1.084 1.533 1.533 0 00-2.168 0l-.24.31a1.533 1.533 0 00-.209.774c-.078.693-.175 1.387-.228 2.083a4.672 4.672 0 00.451 2.491 1.527 1.527 0 002.665-1.49z"/><path data-name="パス 2182" d="M113.816 45.133a1.623 1.623 0 00-.433-1.252 1.564 1.564 0 00-2.168 0 5.478 5.478 0 01-2.715.778c-1.2.184-2.412.321-3.624.422a59.577 59.577 0 01-7.665.131 1.489 1.489 0 00-1.323.759c-.862 1.913-1.074 5.021 1.656 5.291a43.826 43.826 0 006.419.174c3.54-.172 9.817-.841 10.136-5.429a1.331 1.331 0 00-.283-.874z"/><path data-name="パス 2183" d="M100.65 71.936a1.618 1.618 0 00-.738-.955 1.725 1.725 0 00-.849-.234 1.366 1.366 0 00-.51.079 8.17 8.17 0 00-.483.2c-.045.021-.089.044-.133.068s-.078.048-.116.074c-.145.1-.284.211-.42.323a1.143 1.143 0 00-.317.493 1.389 1.389 0 000 1.182 1.142 1.142 0 00.317.493l.31.24a1.523 1.523 0 00.774.21l.408-.055a1.553 1.553 0 00.372-.16 1.529 1.529 0 00.662-.194 2.717 2.717 0 00.32-.248 1.12 1.12 0 00.324-.5.811.811 0 00.107-.4 1.109 1.109 0 00-.028-.616z"/><path data-name="パス 2184" d="M115.45 71.417l-.155-.366a1.54 1.54 0 00-.55-.55l-.016-.008c-.118-.054-.255-.109-.375-.158l-.033-.012a.415.415 0 00-.067-.016 3.36 3.36 0 00-.47-.059h-.056c-.135.016-.283.035-.418.056a.514.514 0 00-.067.016l-.033.013a8.793 8.793 0 00-.376.158l-.015.008a.344.344 0 00-.06.036c-.1.075-.218.165-.318.245l-.014.011a.229.229 0 00-.027.027 1.573 1.573 0 000 2.168l.31.24a1.531 1.531 0 00.774.209l.407-.055c.03-.008.054-.025.083-.035a1.6 1.6 0 001.321-.75l.155-.366a1.547 1.547 0 000-.812z"/><path data-name="パス 2185" d="M63.26 57.697a10.028 10.028 0 00-1.936-6.441c-1.319-1.554-3.793-2.042-5.735-1.83a8.412 8.412 0 00-7.5 8.587 1.684 1.684 0 01-.866 1.676 16.771 16.771 0 01-2.774 1.209c-1.783.765-3.814 2.427-3.1 4.627.777 2.413 3.914 1.8 5.787 1.44a15.73 15.73 0 013.075-.46 10.1 10.1 0 013.076.9 4.647 4.647 0 005.7-2.579c.485-1.153.142-2.254.373-3.417.176-.885 1.248-1.062 1.995-1.224a1.514 1.514 0 001.073-1.17 1.41 1.41 0 00.832-1.318z"/></g><g data-name="sのコピー 3" fill="none" stroke="#5d7248" stroke-miterlimit="10"><path data-name="パス 2186" d="M99.419 13.875a4.327 4.327 0 001.667 2.479 16.728 16.728 0 008.43 3.845"/><path data-name="パス 2187" d="M108.304 16.996a38.449 38.449 0 012.055 4.063 11.63 11.63 0 011.151 4.31"/><path data-name="パス 2188" d="M112.733 24.853a.764.764 0 01.41-.6 1.735 1.735 0 01.734-.183 2.123 2.123 0 01.859.084 1.828 1.828 0 01.612.393 3 3 0 01.707 3.179 3.352 3.352 0 01-2.581 2.053"/><path data-name="パス 2189" d="M99.42 14.545a9.571 9.571 0 01-.2 1.436 12.728 12.728 0 00.1 4.753l.048-.217"/><path data-name="パス 2190" d="M92.901 14.17a4.73 4.73 0 00.824 2.6 9.088 9.088 0 001.89 2.011 16.888 16.888 0 002.9 1.911"/><path data-name="パス 2191" d="M92.65 14.243a9.008 9.008 0 00-1.992 6.278"/><path data-name="パス 2192" d="M99.85 1.954a4.725 4.725 0 00-2.142-.19A15.892 15.892 0 0085.935 9.44a8.3 8.3 0 00-1.178 2.825 7.733 7.733 0 00.033 2.544c.426 2.734 1.926 5.533 4.52 6.5"/><path data-name="パス 2193" d="M85.915 18.426a22.81 22.81 0 003.43 13.8"/><path data-name="パス 2194" d="M84.398 13.825a15.656 15.656 0 001.4 10.629"/><path data-name="パス 2195" d="M89.611 32.443a20.583 20.583 0 0010.246 5.807 2.616 2.616 0 001.581.007"/><path data-name="パス 2196" d="M101.764 38.194c3.427-.871 6.978-1.944 9.5-4.422a6.349 6.349 0 002.042-3.8"/><path data-name="パス 2197" d="M96.467 31.025a2.241 2.241 0 00.9 1.6 1.444 1.444 0 00.76.479"/><path data-name="パス 2198" d="M96.529 30.999c-.082 0 .021.119.1.1l6.2-1.026a.238.238 0 01.15.008c.08.042.084.152.079.242a5.237 5.237 0 01-.228 1.433 1.756 1.756 0 01-.929 1.065"/><path data-name="パス 2199" d="M92.039 25.509l.11.115c0 .091-.153.1-.2.025a.262.262 0 01.037-.258.314.314 0 01.112.328.055.055 0 01-.071-.071"/><path data-name="パス 2200" d="M104.469 23.87c-.029-.048.038-.116.087-.089a.168.168 0 01.041-.3.292.292 0 01-.034.264"/><path data-name="パス 2201" d="M98.539 1.53a6.17 6.17 0 012.318-.755 14.276 14.276 0 019.458 1.283 14.647 14.647 0 012.949 2.351 20.286 20.286 0 015.759 10.138 14.009 14.009 0 01-2.336 11.23l-.281-.155"/><path data-name="パス 2202" d="M109.741 36.031q5.5-.109 11 .228.415 2.678.916 5.342a.569.569 0 01-.036.442.554.554 0 01-.292.173 17.976 17.976 0 01-6.469.576 8.59 8.59 0 01-4.693-1.188c-.089-.063-.185-.152-.169-.261s.224-.122.209-.013"/><path data-name="パス 2203" d="M117.418 36.285a29.932 29.932 0 00.295 5.922l-.023-.262"/><path data-name="パス 2204" d="M114.3 36.601a.532.532 0 00-.165.44 12.3 12.3 0 00.384 4.683"/><path data-name="パス 2205" d="M121.55 36.591q.627-.45 1.294-.843c.059-.035.137-.068.19-.025s.042.1.045.15c.028.554.65.84 1.156 1.066a7.488 7.488 0 011.7 1.048.621.621 0 01.2.228.681.681 0 01.012.359 8.186 8.186 0 00.125 2.91 1.9 1.9 0 01-1.153.016l-2.5-.494"/><path data-name="パス 2206" d="M96.656 38.515a29.427 29.427 0 00-1.278 8.683 5.851 5.851 0 01-.358 2.637c-.276.559-.744 1.011-.987 1.585-.567 1.341.235 2.891-.026 4.322a1.436 1.436 0 00-.039.689 1.071 1.071 0 00.291.409 7.116 7.116 0 003.335 1.859 14.173 14.173 0 003.027.28c3.793.078 7.656.148 11.3-.915a8.2 8.2 0 004.06-2.325 3.935 3.935 0 00.622-4.4c-.507-.851-1.4-1.409-1.957-2.229-1.2-1.763-.57-4.237-1.491-6.16"/><path data-name="パス 2207" d="M96.109 44.914c2.825.917 5.889.557 8.827.125a34.144 34.144 0 007.15-1.623"/><path data-name="パス 2208" d="M95.364 50.897a25.877 25.877 0 0018.359-2.02c.062-.032.133-.084.119-.152s-.153-.012-.1.028"/><path data-name="パス 2209" d="M101.363 39.129q-.074 4.881-.376 9.755a22.38 22.38 0 01-.374 3.268 8.213 8.213 0 00-.258 1.526c-.028 1.393.887 2.816.36 4.1a.119.119 0 00.127-.135"/><path data-name="パス 2210" d="M95.64 38.609a33.592 33.592 0 01-6.827 2.873.954.954 0 00-.38.158.891.891 0 00-.241.46 10.935 10.935 0 00-.384 3.671 1.759 1.759 0 00.527 1.34 1.9 1.9 0 001.524.124 14.344 14.344 0 005.27-1.853"/><path data-name="パス 2211" d="M81.941 42.189a1.466 1.466 0 00-.367 1.291 25.763 25.763 0 00.3 2.757.334.334 0 00.053.155.318.318 0 00.163.09 4.277 4.277 0 002.178-.114q1.314-.308 2.612-.674c.09-.025.189-.15.1-.181"/><path data-name="パス 2212" d="M82.858 41.617l1.075.343a.683.683 0 00.218.043c.308-.007.441-.388.492-.692a21.736 21.736 0 012.15 1.313"/><path data-name="パス 2213" d="M107.983 60.033a23.473 23.473 0 002.736 7.563l1.274 2.558"/><path data-name="パス 2214" d="M114.771 57.743l.954 10.582a2.088 2.088 0 01-.475 1.908c-.713.543-1.834 0-2.6.464"/><path data-name="パス 2215" d="M96.521 59.361q.3 5.243 1.035 10.448a1.092 1.092 0 00.17.527.987.987 0 00.561.305 4.369 4.369 0 002.1.012 1.182 1.182 0 00.517-.233 1.357 1.357 0 00.333-.627q1.578-4.893 2.854-9.876"/><path data-name="パス 2216" d="M112.326 71.077a6.076 6.076 0 00-1.093 1.336c-.053.088-.1.211-.027.283a.241.241 0 00.124.051 6.956 6.956 0 003.334.122 1.2 1.2 0 00.562-.309c.334-.372.2-.953.041-1.428"/><path data-name="パス 2217" d="M98.29 71.012a11.731 11.731 0 00-2.157 1.745.561.561 0 00-.188.312c-.025.262.29.409.546.468a10.946 10.946 0 003.155.248 1.358 1.358 0 001.056-.418 1.121 1.121 0 00.137-.817c-.041-.28-.128-.554-.142-.836"/><path data-name="パス 2218" d="M24.579 4.185a8.855 8.855 0 014.108.088 7.293 7.293 0 012.014 1.183 14.566 14.566 0 015.161 6.851 8.966 8.966 0 01-1.251 8.264c-.067.083-.238.137-.243.031"/><path data-name="パス 2219" d="M21.168 11.57a3.35 3.35 0 00.44 2.447 12.467 12.467 0 003.664 4.669 7.042 7.042 0 005.653 1.338"/><path data-name="パス 2220" d="M29.537 16.815a2.624 2.624 0 00.723 1.158 10.3 10.3 0 003.759 2.522.26.26 0 01.164.121c.027.064-.041.157-.1.123"/><path data-name="パス 2221" d="M21.158 12.957a4.6 4.6 0 00-1.5.843 15.926 15.926 0 00-4.132 4.072 14.259 14.259 0 00-1.829 6.135 25.706 25.706 0 001.288 11.812"/><path data-name="パス 2222" d="M9.575 20.336a24.032 24.032 0 00.291 8.826 10.785 10.785 0 005.12 6.941.612.612 0 00-.454-.248"/><path data-name="パス 2223" d="M9.016 24.183a1.168 1.168 0 00-1.175.328 2.071 2.071 0 00-.52 1.156 3.435 3.435 0 002.31 3.775"/><path data-name="パス 2224" d="M33.968 20.92a244.46 244.46 0 010 4.107 14.377 14.377 0 01-.917 5.88 10.275 10.275 0 01-4.245 4.655 9.884 9.884 0 01-3.411 1.43 23.666 23.666 0 01-5.314-.519 19 19 0 01-5.388-2.741"/><path data-name="パス 2225" d="M25.34 3.5a14.04 14.04 0 00-9.656-2.385 21.366 21.366 0 00-3.882.927 12.932 12.932 0 00-3.188 1.4 11.474 11.474 0 00-2.687 2.631 24.2 24.2 0 00-4.046 7.86 19.893 19.893 0 00-.886 6.111 15.406 15.406 0 004.3 11.228 49.836 49.836 0 006.727 5.528"/><path data-name="パス 2226" d="M14.014 36.413a8.608 8.608 0 00-4.44 2.168A34.709 34.709 0 002.026 49.67a10.106 10.106 0 013.663 3.236l5.567-6.718c1.7-2.051 3.455-4.213 4.013-6.818"/><path data-name="パス 2227" d="M28.25 40.31a76.458 76.458 0 002.193 13.6c.824 3.227 1.867 6.449 1.914 9.779 0 .084-.115.186-.128.1"/><path data-name="パス 2228" d="M22.573 51.724a9.4 9.4 0 01-.193 2.144c-.458 2.717-.915 5.438-1.547 8.12q-.25 1.062-.537 2.115a13.232 13.232 0 01-.48 1.5 7.354 7.354 0 01-.493.994"/><path data-name="パス 2229" d="M8.828 50.82A51.768 51.768 0 006.36 64.762a.24.24 0 00.039-.245"/><path data-name="パス 2230" d="M6.572 64.847a25.2 25.2 0 0011.908 2.174c.16-.01.376-.173.248-.271"/><path data-name="パス 2231" d="M22.412 54.48a48.54 48.54 0 003.487 11.376"/><path data-name="パス 2232" d="M26.912 65.915a15.27 15.27 0 004.731-1.255.99.99 0 00.6-.519"/><path data-name="パス 2233" d="M23.157 37.754c.086.225.16.454.234.683l.59 1.827q.2-1.17.427-2.335"/><path data-name="パス 2234" d="M11.199 52.464a27.775 27.775 0 014.878 1.2.737.737 0 01.214.1.662.662 0 01.189.286 3.2 3.2 0 01-.512 3.132 3.89 3.89 0 01-2.911 1.386 4.992 4.992 0 01-3.094-1.046"/><path data-name="パス 2235" d="M1.937 50.185A8.615 8.615 0 00.51 53.801a.505.505 0 00.009.262c.06.153.241.211.384.293.392.223.56.692.847 1.041a3.606 3.606 0 001.265.859 6.622 6.622 0 01.82-1.886 1.626 1.626 0 00.49.538 12.778 12.778 0 00.694-1.365"/><path data-name="パス 2236" d="M27.182 37.285a15.032 15.032 0 014.826 3.661 15.05 15.05 0 011.824-1.6.42.42 0 01.611-.02 19.4 19.4 0 013.032 2.489.394.394 0 01.144.242.4.4 0 01-.089.227 12.776 12.776 0 01-3.334 3.824 4.358 4.358 0 01-4.8.253"/><path data-name="パス 2237" d="M36.463 34.392a.8.8 0 00-.774.4 2.352 2.352 0 00-.283.873l-.119.646a.951.951 0 00-1.042-.06.4.4 0 00-.194.218.531.531 0 000 .234l.327 1.868a.268.268 0 00.112-.36"/><path data-name="パス 2238" d="M36.95 34.622a4.811 4.811 0 012.344 3.037.962.962 0 00.153.39 1.734 1.734 0 01.218.234.563.563 0 01-.092.538 4.486 4.486 0 01-2.207 1.872"/><path data-name="パス 2239" d="M20.85 65.492a3.431 3.431 0 001.384.1 57.554 57.554 0 002.156 5.676.645.645 0 00.2.293.61.61 0 00.308.077 6.8 6.8 0 001.957-.164.544.544 0 00.3-.139.573.573 0 00.111-.292l.781-4.383"/><path data-name="パス 2240" d="M11.023 67.037a35.883 35.883 0 00.206 5.192.723.723 0 00.143.425.736.736 0 00.532.164l2.569.1a.387.387 0 00.24-.044.393.393 0 00.111-.167l1.256-2.889a13.418 13.418 0 00.635-1.66c.01-.035.035-.075.07-.067s-.005.075-.018.042"/><path data-name="パス 2241" d="M24.622 72.442a.818.818 0 00-.017.643l.355 1.41a.384.384 0 00.105.211.359.359 0 00.171.062 9.761 9.761 0 002.507.124 12.841 12.841 0 001.928-.319c.055-.013.119-.033.139-.086a.179.179 0 00-.042-.152 5.173 5.173 0 00-2.225-1.854 2.143 2.143 0 01-.631-.832"/><path data-name="パス 2242" d="M11.702 73.607a2.805 2.805 0 00-.394 1.786.983.983 0 00.163.484 1.21 1.21 0 00.957.332l2.182.092a3.817 3.817 0 001.924-.251 6.475 6.475 0 00-1.774-2.637"/><path data-name="パス 2243" d="M23.131 30.07a2.04 2.04 0 001.06.751 4.693 4.693 0 001.3.2 3.3 3.3 0 002.459-.647"/><path data-name="パス 2244" d="M19.443 24.261a.22.22 0 01-.066-.282.172.172 0 01.222.192l-.142-.066a.211.211 0 01.05.153c-.011.054-.091.088-.122.043"/><path data-name="パス 2245" d="M31.689 23.624l-.01.129a.239.239 0 01-.18-.126"/><path data-name="パス 2246" d="M57.765 48.952a7.2 7.2 0 00-5.965.853 9.654 9.654 0 00-3.776 4.81 6.708 6.708 0 00-.484 3.206 3.675 3.675 0 001.649 2.7c1.18.7 2.659.493 4.017.308a39.043 39.043 0 015.106-.4c1.345-.006 2.821.046 3.87-.8a3.594 3.594 0 001.056-3.478 8.818 8.818 0 00-1.7-3.386 17.038 17.038 0 00-2.738-3.063"/><path data-name="パス 2247" d="M60.912 53.68a.091.091 0 01.064.125.084.084 0 01-.145-.058"/><path data-name="パス 2248" d="M56.265 53.884l-.129.069-.006-.158"/><path data-name="パス 2249" d="M60.935 47.602a1.7 1.7 0 01-.429 1.963"/><path data-name="パス 2250" d="M48.75 48.922a.88.88 0 00-.148.519 1.34 1.34 0 00.163.545 2.836 2.836 0 001.469 1.34"/><path data-name="パス 2251" d="M53.132 61.355c.042.011.061.06.072.1a2.824 2.824 0 01-.133 1.8l-.12.011"/><path data-name="パス 2252" d="M59.4 61.432a10.75 10.75 0 01-.311 3.249 4.814 4.814 0 01-.529 1.395 3.721 3.721 0 01-3.181 1.611 6.9 6.9 0 01-3.5-1.134 3.583 3.583 0 00-1.418-.632c-.967-.1-1.768.678-2.634 1.12a6.366 6.366 0 01-4.318.231 5.234 5.234 0 01-1.776-.7 3.028 3.028 0 01-1.315-2.2 2.694 2.694 0 011-2.332c1.132-.869 2.8-.649 4.012-1.4.606-.375 1.168-1.006 1.874-.912"/><path data-name="パス 2253" d="M59.334 65.904a8.433 8.433 0 01.409 6.243"/><path data-name="パス 2254" d="M55.94 68.118a1.488 1.488 0 00.092.71 8.567 8.567 0 01.028 4.6c-.005.018-.025-.018-.006-.02s.027.022.031.04"/><path data-name="パス 2255" d="M51.299 66.577a4.789 4.789 0 01.8 2.663 16.152 16.152 0 01-.261 2.805c-.005.035-.014.076-.047.091s-.074-.039-.042-.056"/><path data-name="パス 2256" d="M48.039 67.321a13.5 13.5 0 01-.12 6.375c-.009.034-.025.073-.059.078s-.047-.063-.013-.057"/><path data-name="パス 2257" d="M42.867 67.646a19.863 19.863 0 00.281 5.14"/><path data-name="パス 2258" d="M91.664 41.445a5.632 5.632 0 00-.136 3.676"/></g></g></svg>