<svg xmlns="http://www.w3.org/2000/svg" width="130.816" height="30.553"><g data-name="グループ 87" fill="#fff"><path data-name="パス 1384" d="M11.434 5.975A6.214 6.214 0 0116.1 8.152l.755.866V2.9l-.225-.121a10.837 10.837 0 00-5.289-1.323A10.954 10.954 0 003.454 4.3 11.2 11.2 0 000 12.7a11.012 11.012 0 0011.31 11.22 11.144 11.144 0 005.313-1.258l.231-.121V16.4l-.758.9a5.839 5.839 0 01-4.507 2.11 6.394 6.394 0 01-6.575-6.636c0-3.3 2.25-6.799 6.42-6.799z"/><path data-name="パス 1385" d="M35.4 10.744a9.152 9.152 0 00-11.428 0 7.661 7.661 0 000 11.143 9.147 9.147 0 0011.427 0 7.66 7.66 0 000-11.143zm-5.715 8.937a3.366 3.366 0 113.351-3.351 3.315 3.315 0 01-3.354 3.351z"/><path data-name="長方形 223" d="M42.943 0h4.643v23.455h-4.643z"/><path data-name="パス 1386" d="M66.568 10.744a9.152 9.152 0 00-11.428 0 7.659 7.659 0 000 11.143 9.147 9.147 0 0011.427 0 7.66 7.66 0 000-11.143zm-5.716 8.937A3.366 3.366 0 1164.2 16.33a3.315 3.315 0 01-3.348 3.351z"/><path data-name="パス 1387" d="M86.78 10.543a5.585 5.585 0 00-4.3-1.8 5.282 5.282 0 00-3.722 1.454v-1.02h-4.643v14.278h4.643v-7.28a4.2 4.2 0 01.516-2.365 2.14 2.14 0 011.967-.986 1.971 1.971 0 011.455.549 3.555 3.555 0 01.594 2.338v7.744h4.641v-8.861a6.062 6.062 0 00-1.151-4.051z"/><path data-name="パス 1388" d="M104.458 9.174l-3.471 7.117-3.876-7.117H91.72l6.628 11.84-5.161 9.539h5.26l11.271-21.379z"/><path data-name="パス 1389" d="M121.394 23.025l.931-5.765h-2.915l-.929 5.765H114.7s1.488-4.324.93-5.765-3.162 0-3.162 0l.527-3.223h3.161l.5-3.131h-3.161l.527-3.223h3.161l.868-5.331h3.78l-.867 5.331h2.913l.869-5.331h3.781l-.867 5.331h3.16l-.526 3.223h-3.162l-.5 3.131h3.162l-.526 3.223h-3.162s.248 4.324-.93 5.765-3.782 0-3.782 0zm1.953-12.119h-2.913l-.5 3.131h2.913z"/></g></svg>