<svg xmlns="http://www.w3.org/2000/svg" width="105.91" height="78.563"><g data-name="bのコピー 2" fill="#e8e1d6"><path data-name="パス 1329" d="M98.906 8.263a6.445 6.445 0 00-3.231-4 14.432 14.432 0 00-5.8-.928 1.044 1.044 0 00-1.481-.161c-5.625-5.2-15.146-1.269-19.781 3.541a17.152 17.152 0 00-4.643 9.855 24.259 24.259 0 00.058 6.336 5.188 5.188 0 002.129 3.991 1.03 1.03 0 001.212-.157 25.849 25.849 0 002.267-2.676c1.448-1.494 3.029.183 4.039 1.32a1 1 0 001.671-.441c.218-1.442.147-3.64 1.114-4.814a28.37 28.37 0 013.687-3.2l1.864-1.579a8.684 8.684 0 01.933-.79.662.662 0 01.734-.333c.331-.13.5-.012.5.357a5.789 5.789 0 01.428 2.384 11.542 11.542 0 01-.2 2.862 1.015 1.015 0 001.23 1.23c2.989-.59 4.882-3.088 5.88-5.813a14.168 14.168 0 01.643-2.154c.489-.155 1.468 1.161 1.745 1.487a11.223 11.223 0 012.239 4.417 1.013 1.013 0 001.828.239c2.226-3.18 2.229-7.414.935-10.973z"/><path data-name="パス 1330" d="M72.289 32.572a1.532 1.532 0 00-.689-.9 1.513 1.513 0 00-1.156-.151 1.741 1.741 0 00-.9.69l-.216.283a36.661 36.661 0 01-3.566 3.959 1.448 1.448 0 00-.413.861 1.672 1.672 0 00.178.956 1.563 1.563 0 00.975.791 1.864 1.864 0 00.779.05 2.231 2.231 0 001.062-.452 12.138 12.138 0 001.495-1.294 11.114 11.114 0 002.06-2.993 2.082 2.082 0 00.184-.584c.017-.022.036-.042.052-.064a1.509 1.509 0 00.155-1.152z"/><path data-name="パス 1331" d="M100.067 35.659a1.133 1.133 0 00-.268-.51 1.145 1.145 0 00-.421-.387c-.019-.01-.041-.016-.061-.026q-.453-.636-.9-1.272a1.68 1.68 0 00-.9-.69 1.149 1.149 0 00-.6-.027 1.121 1.121 0 00-.558.179 1.51 1.51 0 00-.689.9 1.477 1.477 0 00.151 1.156l.87 1.223c.069.1.138.194.207.291a5.968 5.968 0 00.427.574l.038.04.17.132a1.776 1.776 0 00.171.13c.069.038.147.065.219.1a1.785 1.785 0 00.217.086 1.642 1.642 0 00.847-.006 1.555 1.555 0 00.675-.4 1.487 1.487 0 00.431-.892 1.128 1.128 0 00-.026-.601z"/><path data-name="パス 1332" d="M95.66 44.728c-1.073-1.328-2.672-1.417-4.231-1.067-1.766.4-3.51.816-5.3 1.081a58.56 58.56 0 01-6.019.561 10.845 10.845 0 01-5.415-.778c-1.555-.782-2.938 1.253-1.917 2.293-.445 1.076-.494 2.416.5 3.038a5.859 5.859 0 002.363.48 35.03 35.03 0 003.036.218 56.886 56.886 0 0011.157-.951c.943-.159 1.883-.334 2.822-.517a14.248 14.248 0 002.616-.584c1.734-.707 1.353-2.58.388-3.774z"/><path data-name="パス 1333" d="M104.533 72.094a1.12 1.12 0 00-.178-.557l-.235-.3a1.507 1.507 0 00-.662-.386l-.4-.053a1.5 1.5 0 00-.758.205l-.952.589-.108.067-.025.019-.3.234-.033.032a1.2 1.2 0 00-.325.508.884.884 0 00-.109.405 1.135 1.135 0 00.028.617 1.53 1.53 0 00.391.674 1.557 1.557 0 00.691.405 1.882 1.882 0 00.209.028 1.641 1.641 0 00.208.028 1.346 1.346 0 00.209-.028c.07-.006.139-.015.208-.028a1.322 1.322 0 00.373-.158c.106-.075.209-.154.309-.238l.151-.2.041-.025.553-.342a1.446 1.446 0 00.716-1.5z"/><path data-name="パス 1334" d="M77.906 74.589a1.682 1.682 0 00-.9-.689 5.046 5.046 0 00-2.682.094 1.7 1.7 0 00-.619.383.839.839 0 00-.1.047 1.527 1.527 0 00-.689.9 1.734 1.734 0 00-.013.721 1.569 1.569 0 00.045.561 1.75 1.75 0 00.764 1 1.624 1.624 0 00.708.241 1.709 1.709 0 00.77-.047 2.164 2.164 0 00.824-.485c.083-.07.161-.143.239-.217a1.554 1.554 0 01.753-.3l.358-.152a1.127 1.127 0 00.421-.386.748.748 0 00.193-.33 1.132 1.132 0 00.129-.579 1.774 1.774 0 00-.201-.762z"/><path data-name="パス 1335" d="M43.291 35.19c-1.23-.89-2.416-.142-3.562.464a27.335 27.335 0 01-4.461 1.86 39.665 39.665 0 01-9.317 1.718 84.388 84.388 0 01-11.6-.074c-3.318-.224-7.107-.908-9.024-3.945a1.538 1.538 0 00-2.542-.051 1.272 1.272 0 00-.762.39c-2.037 2.258-.249 4.908 2.064 5.979.416.193.845.355 1.268.529a1.371 1.371 0 00-.142.342c-.307 1.219-.72 2.527-.028 3.7a3.927 3.927 0 002.717 1.687 5.792 5.792 0 003.751-.388 3.925 3.925 0 002.034-2.526 1.617 1.617 0 00.024-.544 52.745 52.745 0 0010.5.446c-.411.049-.829.093-1.266.131q-1.188.1-2.381.137c-.918.026-2.138-.188-2.806.59a2.217 2.217 0 00.074 2.817 4.884 4.884 0 001.767 1.308 5.7 5.7 0 002.454.709 6.166 6.166 0 002.479-.565 16.821 16.821 0 002.394-1.243c.374-.234.742-.479 1.108-.726.505-.342 1.056-.679 1.189-1.325a1.762 1.762 0 00.014-.22 1.446 1.446 0 00.135-1.113 1.54 1.54 0 00-.673-.86q2.225-.244 4.441-.586a1.586 1.586 0 00-.578 1c-.006.018-.016.033-.022.052a2.651 2.651 0 00.316 2.2 3.533 3.533 0 001.638 1.31 4.668 4.668 0 001.95.44 3.314 3.314 0 002.04-.785 4.217 4.217 0 001.2-1.86 6.765 6.765 0 001.309-3.09 1.608 1.608 0 00-.152-1.156 1.424 1.424 0 00-.164-.225c.115-.063.233-.119.346-.187 1.918-1.14 5.038-4.334 2.268-6.34z"/></g><g data-name="sのコピー 2" fill="none" stroke="#5d7248" stroke-miterlimit="10"><path data-name="パス 1336" d="M84.196 14.081a4.778 4.778 0 01.747 2.683 12.721 12.721 0 01-.877 4.971l-.04-.2"/><path data-name="パス 1337" d="M92.306 12.914a6.433 6.433 0 01-1.782 5.246 14.5 14.5 0 01-6.156 3.53"/><path data-name="パス 1338" d="M92.362 13.228a16.953 16.953 0 014.078 7.406c.037.153.213.341.3.213"/><path data-name="パス 1339" d="M88.626 3.157a9.494 9.494 0 019.714 4.7 13.266 13.266 0 011.363 4.583 11.182 11.182 0 01.047 3.2 7.388 7.388 0 01-2.124 4.123"/><path data-name="パス 1340" d="M88.429 2.961A13.008 13.008 0 0076.48 1.378a19.281 19.281 0 00-9.525 7.825 14.914 14.914 0 00-1.608 3.079 18.024 18.024 0 00-.868 4.8A23.331 23.331 0 0065 25.219l-.217-.367"/><path data-name="パス 1341" d="M62.92 25.66l2.172 1.073a2.675 2.675 0 00.647.251c.476.094 1.06-.046 1.382.317a1.382 1.382 0 01.188.983c-.011.342.045.748.347.908"/><path data-name="パス 1342" d="M67.489 29.553l-4.715 5.3"/><path data-name="パス 1343" d="M68.37 28.943a42.331 42.331 0 009.17 7.746"/><path data-name="パス 1344" d="M62.546 34.984a16.144 16.144 0 008.634 6.448"/><path data-name="パス 1345" d="M72.832 33.805a34.524 34.524 0 01-4.962 5.388"/><path data-name="パス 1346" d="M69.619 31.628a27.3 27.3 0 01-4.615 5.164l.375-.162"/><path data-name="パス 1347" d="M62.306 25.778a3.172 3.172 0 00-.436 1.035 1.285 1.285 0 01-.113.364 1.08 1.08 0 01-.357.331l-1.285.869a1.018 1.018 0 00-.348.326 1.553 1.553 0 00-.089.655 1.454 1.454 0 01-.3.78c-.077.1-.174.207-.156.332a.4.4 0 00.128.209 9.491 9.491 0 003.589 2.348"/><path data-name="パス 1348" d="M77.483 36.615a32.542 32.542 0 007.572 2.2 15.941 15.941 0 004.089 0 8.656 8.656 0 003.771-2.017c5.327-4.339 5.756-10.353 5.4-17.666"/><path data-name="パス 1349" d="M83.995 14.045c-1.752 3.351-5.124 3.244-7.312 6.328"/><path data-name="パス 1350" d="M71.873 24.245a1.681 1.681 0 00-1.992-.434 2.551 2.551 0 00-1.328 1.667 3.521 3.521 0 00.734 3.227c.027.03.065.063.1.049s.009-.092-.021-.064"/><path data-name="パス 1351" d="M76.349 20.628a11.9 11.9 0 00-.483 5.094l-.016-.22"/><path data-name="パス 1352" d="M75.659 26.517a3.96 3.96 0 01-3.268-2.351"/><path data-name="パス 1353" d="M83.88 29.744a37.495 37.495 0 009.6-.491 6.869 6.869 0 01-.6 2.583 4.845 4.845 0 01-1.257 1.29"/><path data-name="パス 1354" d="M83.553 29.621a3.718 3.718 0 00.958 2.756 5.318 5.318 0 002.667 1.637"/><path data-name="パス 1355" d="M82.195 25.269a.09.09 0 01-.136.064c0-.055.11-.05.108.006s-.107.054-.108 0"/><path data-name="パス 1356" d="M94.284 24.604a.132.132 0 01.121.184c-.058-.039-.136.066-.082.11s.142-.053.092-.1"/><path data-name="パス 1357" d="M97.676 30.28a6.3 6.3 0 013.122 2.141 2.993 2.993 0 01.724 1.719 3.729 3.729 0 01-1.071 2.3 22.409 22.409 0 01-5.2 4.826l-.2-.145"/><path data-name="パス 1358" d="M97.065 32.616a8.216 8.216 0 012.982 2.8"/><path data-name="パス 1359" d="M95.906 34.861a13.965 13.965 0 012.578 2.62"/><path data-name="パス 1360" d="M98.906 27.508a.273.273 0 00.381.157.791.791 0 00.32-.342l.572-.936a.347.347 0 01.15-.155.318.318 0 01.173 0 3.31 3.31 0 011.879 1.058c.44.5.785 1.168 1.427 1.336a.448.448 0 01.186.073c.1.087.082.249.052.38-.3 1.319-.685 2.767-1.814 3.51"/><path data-name="パス 1361" d="M71.998 41.595a17.823 17.823 0 01.8 4.647 5.993 5.993 0 01-1.628 4.308c-.443.426-1.021.85-1.024 1.465 0 .685.7 1.12 1.105 1.674a10.786 10.786 0 01.842 2.273c.314.749 1.169 1.432 1.887 1.052"/><path data-name="パス 1362" d="M94.606 42.128c1.668 1.6 1.563 4.4 3.073 6.159a7.928 7.928 0 011.327 1.554c.529 1.093 0 2.38-.533 3.474a5.711 5.711 0 01-2.288 2.882"/><path data-name="パス 1363" d="M73.846 57.067a49.681 49.681 0 0021.39-.705"/><path data-name="パス 1364" d="M89.26 39.57l1.2 6.75a21.174 21.174 0 001.107 4.392 5.627 5.627 0 01.662 2.239 3.384 3.384 0 01-.29 1.17 7.062 7.062 0 01-1.217 1.957"/><path data-name="パス 1365" d="M73.078 43.996a7.7 7.7 0 002.6.55 56.6 56.6 0 0019.077-1.656"/><path data-name="パス 1366" d="M72.439 49.84a1.213 1.213 0 00.946.538 40.215 40.215 0 0023.207-2.327"/><path data-name="パス 1367" d="M97.713 55.366a8.693 8.693 0 01-.886 4.006 6.912 6.912 0 01-2.3 2.167 16.956 16.956 0 01-10.3 2.619"/><path data-name="パス 1368" d="M83.692 64.704a83.076 83.076 0 01-5.343 8.839l.152-.329"/><path data-name="パス 1369" d="M73.382 74.287a5.45 5.45 0 013.408-.607c.69.1 1.462.456 1.593 1.141a1.358 1.358 0 01-.318 1.072 4.019 4.019 0 01-.871.751l-1.094.774a2.5 2.5 0 01-1.627.64 1.769 1.769 0 01-.768-.309 2.529 2.529 0 01-1.106-1.551 1.855 1.855 0 01.567-1.773"/><path data-name="パス 1370" d="M72.92 57.935l-.424 6.928c-.059.963-.118 1.928-.118 2.893a28.8 28.8 0 00.2 3.243q.159 1.4.427 2.788"/><path data-name="パス 1371" d="M89.163 64.599a48.95 48.95 0 008.932 8.722l-.28-.173"/><path data-name="パス 1372" d="M99.606 73.711a3.409 3.409 0 011.629-2.239 5.96 5.96 0 011.89-1.044 2.376 2.376 0 012.073.3.561.561 0 01.179.2.667.667 0 01-.122.586q-.7 1.212-1.474 2.373a2.7 2.7 0 01-.768.845 1.844 1.844 0 01-1.582.09 4.582 4.582 0 01-1.368-.888"/><path data-name="パス 1373" d="M97.015 59.765a49.731 49.731 0 004.969 10.113"/><path data-name="パス 1374" d="M5.566 36.511c2.511 2.208 5.951 3.015 9.274 3.377a54.323 54.323 0 0019.026-1.537c2.367-.593 4.818-1.385 6.48-3.172"/><path data-name="パス 1375" d="M22.349 13.728a16.107 16.107 0 00-15.578 9.738c-1.435 3.342-1.7 7.055-1.856 10.689l.182-.3"/><path data-name="パス 1376" d="M25.889 13.977a9.337 9.337 0 015.446 2.279 27.789 27.789 0 014.053 4.42"/><path data-name="パス 1377" d="M36.893 23.075l.108.054"/><path data-name="パス 1378" d="M38.133 25.878a20.577 20.577 0 011.283 7.167"/><path data-name="パス 1379" d="M4.306 33.387a7.2 7.2 0 00-2.826 2.014 3.751 3.751 0 00-.963 1.955 3.262 3.262 0 00.717 2.289 7.347 7.347 0 001.843 1.61 24.948 24.948 0 009.038 3.532 49.075 49.075 0 009.723.744"/><path data-name="パス 1380" d="M21.839 45.528a51.646 51.646 0 0015.089-1.968 16.531 16.531 0 004.552-1.892 7.05 7.05 0 003.018-3.79 2.81 2.81 0 000-1.844 3.792 3.792 0 00-1.886-1.661"/><path data-name="パス 1381" d="M41.173 42.728a4.478 4.478 0 01-1.614 4.971 5.8 5.8 0 01-5.343.65 4.54 4.54 0 01-1.761-1.079 2.774 2.774 0 01-.815-1.863"/><path data-name="パス 1382" d="M4.652 42.718A3.552 3.552 0 004.7 46.39a5.237 5.237 0 003.059 2.22 5.382 5.382 0 003.546-.1 3.75 3.75 0 002.269-2.629"/><path data-name="パス 1383" d="M16.625 45.857a4.5 4.5 0 002.051 3.822 7.058 7.058 0 004.327 1.061 6.551 6.551 0 003.756-1.268 3.922 3.922 0 001.536-3.526"/></g></svg>