<svg xmlns="http://www.w3.org/2000/svg" width="404.306" height="86.73"><g data-name="グループ 24" fill="#e8e1d6"><path data-name="パス 377" d="M182.185 68.283c-.524.957-.268 2.347-1.24 3.017s-3.521.6-4.761 1.375-.972 1.844-.5 2.112a3.663 3.663 0 004.057-.235c1.877-1.341 2.883-1.81 3.621-2.984s1.441-2.682.938-3.62-1.698-.425-2.115.335z"/><path data-name="パス 378" d="M40.319 25.262c.05.3-8.882 1.564-12.617 1.463s-15.089-1.059-15.089-1.059 5.7-2.171 8.882-2.12 18.824 1.716 18.824 1.716z"/><path data-name="パス 379" d="M44.907 64.628s-6.174-1.372-7.718-4.117.114-4.4.8-4.688 1.493.092 1.459 1.436a7.953 7.953 0 00.517 3.689c.931 1.792 4.942 3.68 4.942 3.68z"/><path data-name="パス 380" d="M206.819 3.259a5.423 5.423 0 01-3.584 1.085c-2.523.051-4.466-.328-4.188-1.085s1.085-2.5 2.069-2.952a3.509 3.509 0 012.893 0c.433.363 1.439 1.546 1.1 1.867a10.484 10.484 0 01-1.316.848c.046-.015.7.11 1.362.171.854.076 1.664.066 1.664.066z"/><path data-name="パス 381" d="M211.965 6.71c-.556.179-1.446 1.418-1.084 2.113s2.057.695 2.864.306a1.282 1.282 0 00.723-1.78 2.549 2.549 0 00-2.503-.639z"/><path data-name="パス 382" d="M129.873 53.393c-1.237-.638-7.268-.227-9.028.738s-3.577 2.953-3.293 3.01 2.158-1.4 4.145-1.949 5.734.552 6.983 0 2.05-1.356 1.193-1.799z"/><path data-name="パス 383" d="M377.133 14.258s5.281.3 7.7.528 12.146.529 14.636.529 5.054-.453 4.828-1.057-9.807-2.338-13.2-2.112-13.964 2.112-13.964 2.112z"/><path data-name="パス 384" d="M269.38 56.305c-.813.081-.521 2.217 0 3.131s4.044 2.478 4.827 3.261 1.369 1.108 1.174 2.152.391 4.109 1.108 3.065.859-1.465.4-3.16a13.872 13.872 0 00-3.913-6.361c-2.084-1.761-2.943-2.153-3.596-2.088z"/><path data-name="パス 385" d="M373.444 57.392s.958 1.7-1.879 2.358-15.99-.063-20.986-.752-14.9-3.531-23.168-7.149-19.12-8.526-23.254-9.9-9.638-3.424-9.638-3.424a22.773 22.773 0 015.059-.47c1.882.176 5.451.466 8.333 2.212a25.206 25.206 0 006.287 2.4 30.033 30.033 0 00-5.021-3.93c-2.62-1.528-8.82-4.1-8.82-4.1s7.335.612 9.912 1.66 5.689 2.389 7.029 3.987a29.929 29.929 0 009.547 7.587c4.462 2 16.452 5.344 21.379 4.647s5.066-2.324 5.066-2.324 2.742-2.184 2.184-4.507-2.742-2.836-4.368-2.789a3.3 3.3 0 00-2.51 1.534s3.578.371 4.043 1.765-1.348 2.371-1.348 2.371a12.224 12.224 0 00-2.091-1.813 8.549 8.549 0 00-3.059-.383s2.3 1.53 1.046 2.3-4.822 2.651-13.8-.859-8.126-8.979-8.126-8.979a66.7 66.7 0 0012.5 1.823 153.547 153.547 0 0018.409-.194 64.986 64.986 0 0011.085-1.88s-14.455.713-21.521-.389a23.644 23.644 0 01-11.409-5.057 59.854 59.854 0 017.779.454 194.24 194.24 0 0020.678 2.14 93.285 93.285 0 0019.447-1.362s-23.7-.769-30.495-1.74-12.976-2.9-17.01-3.152-33.51-3.046-33.51-3.046 6.175-1.482 9.633-1.4 13.246.837 21.736.906c9.142.074 13.183-1.037 16.25-1.826s5.713-3.934 5.713-3.934a21.239 21.239 0 01-7.536 2.235c-4.689.57-16.344-.526-16.344-.526s7.816-1.7 11.359-2.3 12.373-1.321 15.076-1.982 13.514-3 13.514-3-6.306-.9-8.108-1.8-16.1-1.021-16.1-1.021 7.148-1.321 11.712-1.682 16.458-.42 16.458-.42a49.174 49.174 0 00-9.07-3.424c-3.724-.781-10.451-1.561-14.175-.9s-13.094 5.106-15.736 5.766a50.281 50.281 0 01-7.989.781 10.959 10.959 0 013.773-1.954 23.626 23.626 0 013.892-.5 6 6 0 00-5.436-1.376 17.167 17.167 0 00-5.947 2.825s-15.233-.017-23.515.871-31.549 4.831-37.859 5.817-15.676.986-19.62-.2a47.416 47.416 0 00-13.113-2.169c-4.437 0-10.787.283-14.963-.9s-7.051-3.776-9.239-3.944-5.6-.677-5.6-.677 2.479-.705 4.229-1.434 2.8-.754 2.942-1.508-3.251-.833-5.436-.8a62.427 62.427 0 00-6.521.751 23.2 23.2 0 012.656.288c.318.136-3.311 1.043-4.037 1.474a2.666 2.666 0 00-1.315 2.359 1.967 1.967 0 001.156 1.428 33.478 33.478 0 01-7.636 1.866c-3.043.161-26.482 1.118-34.408 1.751s-19.761.918-22.854.486a52.32 52.32 0 01-13.738-4.459c-3.884-2.086-5.432-2.639-5.788-2.165s.514 1.738 3.12 3.239a34.7 34.7 0 0010.623 3.791 72.7 72.7 0 007.621 1.1s-12.462 1.664-20.148-2.152-18.1-12.918-18.1-12.918 4.353 6.766 10.192 10.629c7.207 4.767 12 5.873 14.344 6.093-5.181-.041-21.081-.205-28.838-.733-9.345-.634-17.963-3.9-22.772-4.808s-12.066-1.451-12.066-1.451 8.982-1.543 13.79-1.089 8.347.544 13.7 1.089a109.665 109.665 0 0011.885.362s-10.978-1.27-15.6-2.358-17.273-1.885-24.6-.738-14.4 2.357-16.628 3.568-3.365 3.45-5.046 3.282-2.1-1.682-3.909-1.808a61.294 61.294 0 00-6.346.295 25.664 25.664 0 016.43-2.312c6.725-1.639 10.466-2.144 10.466-2.144a36.855 36.855 0 00-13.072.925c-6.641 1.808-9.751 4.413-12.021 5.128s-5.128 3.11-6.851 5.128a25.736 25.736 0 00-3.194 5.485s3.993-6.158 9.247-8.133 10.3-1.555 13.24-1.345 12.861.882 17.233.966 15.351-.077 21.05.658 20.877 2.867 27.856 2.932 8.191-.553 12.175-.553 9.667 1.409 6.849 1.8-21.324.923-31.2 1.214S54.96 26.419 49 28.15s-26.41 6.73-29.935 7.179-8.67.862-11.28 1.3a20 20 0 00-6.3 1.887C.16 39.316 0 39.961 0 39.961s6.624-1.486 10.4-2.409a96.456 96.456 0 0112.647-2.489c3.894-.362 11.321-.08 11.321-.08s-1.246 1.113-2.607 2.539a12.845 12.845 0 00-2.2 3.5 22.423 22.423 0 018.647-4.4c4.7-1 6.791-.97 13.5-1.283s15.665-1.032 15.665-1.032-5.074.74-7.349 1.325-7.539 2.5-7.539 2.5a40.842 40.842 0 018.735-1.574c4.549-.26 17.765-.173 23.051-.65a18.756 18.756 0 008.449-2.686 44.46 44.46 0 016.8-.3c3.639.131 10.225.3 11.308 1.04s-4.491 2.612-7.262 2.779-9.587.443-13.466 1.551-9.939 2.779-11.791 3.217-5.509 2.584-9.555 4.29-10.027 3.9-10.027 3.9a37.247 37.247 0 005.521-.72 70 70 0 008.762-2.731 18.185 18.185 0 013.871-.96 24.61 24.61 0 01-3.061 2.1c-.93.42-3.511 1.83-3.511 1.83s5.462-.9 7.652-1.591 2.551-1.26 4.682-1.74 5.011-1.11 5.011-1.11-4.36-.639-5.042-.9-.553-1.077 1.039-1.629A29.574 29.574 0 0190.124 41c2.865-.308 8.852.614 12.076.614s8.259-.563 8.937-.462.711 1.423-1.321 1.694-6.76 2.1-11.035 2.785-9.959 1.6-11.27 2.477-.769 1.527-.67 1.551 2.323 0 2.6-.346c-.362-.483.115-.722 1.046-.678a47.386 47.386 0 0010.148-.2c4.031-.706 8.686-1.5 10.39-2.91s2.7-2.452 4.323-2.535 3.741.416 3.741 1.164-2.61 2.973-8.48 5.469-14.382 6.31-22.086 8.218-23.407 5.65-27.37 6.016a47.534 47.534 0 00-9.549 2.434 24.586 24.586 0 004.7 1.049c2.465.274 9.585 1.141 12.415 1.233a27.07 27.07 0 006.663-.822 52.1 52.1 0 018.079-1c2.51 0 5.887-1.78 7.8-3.286a57.327 57.327 0 017.257-4.427c1.826-.959 5.477-2.283 6.3-1.78s-.73 2.556-2.647 3.925-5.477 4.244-8.215 5.2a67.889 67.889 0 01-8.672 2.236c-1.825.32-7.165.959-7.165.959s11.912.046 15.654-.548a20.268 20.268 0 0010.406-4.883c2.511-2.465 5.523-6.207 8.9-9.22a22.935 22.935 0 0115.119-6.336c6.851-.127 9.706.825 9.516 2.474s-1.015 5.646-5.773 9.072a112.616 112.616 0 00-10.74 8.233 95.238 95.238 0 00-6.686 7.191s8.152-7.237 12.274-9.71 7.465-5.221 8.931-5.862 1.652.512.921 1.158a32.431 32.431 0 00-2.669 2.894 14.723 14.723 0 00-1.8 2.585c.085-.028 5.233-1.931 7.278-3.032a40.515 40.515 0 005.188-3.049c1.105-.889 2.759-1.827 3.18-1.617 1.4.7.215 2.965.215 2.965s4.132.342 6.159.313 8.94-.329 10.579.208a26.571 26.571 0 004.947 1.192c1.162.089 2.145.894 1.49 1.7s-2.98.953-3.368 1.579-.763 1.625.15 2.036a11.2 11.2 0 004.381.685 11.51 11.51 0 004.793-2.283 10.751 10.751 0 015.02-2.19c1.324-.091 2-.836 1.8-1.113s-2.169-1.113-3.031-.64-.973.7-1.835 1.168-3.754 1.668-4.81 1.2-.556-2.641.7-3.948 6.869-6.606 8.926-6.542c1.718.053 3.451 4.479 5.654 5.581s4.078 0 4.26 1a79.65 79.65 0 011.183 10.469c.364 6.191 1.457 6.965 2.5 8.74s2.043 1.045 2.17 2.358.2 3.358.2 3.358a33.5 33.5 0 00.884-5.176c.025-1.692-1.188-.977-2.166-4.183s-1.629-8.093-1.2-10.755 1.811-4.236 2.29-3.722a8.313 8.313 0 011.576 4.625c.069 2.193-.561 2.324-1.081 2.6s-1.039 2.028-.766 3.933 2.2 4.205 2.868 3.735.935-2.049 1.028-6.111-.9-7.468-.785-8.574a1.883 1.883 0 012.125-1.718c1.019.175 3.231-.349 3.784-1.747s.408-2.852 2.329-3 5.356.7 5.531 2.183-.979 1.7-1.73 1.738-1.87-.539-2.139.019.1 1.195 1.291 1.465a10.769 10.769 0 005.512-.289 7.692 7.692 0 003.584-3.836c.385-1.079 1.214-2.254 2.12-2.177s2.3.551 4.144 3.375 3.63 5.185 5.128 5.56 1.613-.864 1.181-2.046-.691-2.391-1.959-2.967-2.362-.691-2.967-2.017-.922-3.341.173-4.609a5.7 5.7 0 015.3-1.987c2.189.461 5.012.922 6.539 2.362s4.005 4.839 7.346 5.79 4.9.547 5.762 0 1.325-.662 1.872.115a19.165 19.165 0 006.511 4.178 15.229 15.229 0 007.346 1.21s-4.523-1.009-6.885-2.795-5.013-3.255-6.223-5.358-1.382-5.418-.979-5.6 2.189-.993 2.938-.244a7.838 7.838 0 003.63 2.391c1.7.4 3-.461 2.91-1.9s-.548-4.811-1.181-5.733-2.3-.691-2.3-.691.749 1.238.4 1.613-2.189-.628-1.786-1.639 2.1-1.876 4.062-1.933 7.2-.51 11.7 1.044 10.171 3.8 17.658 6.047a96.257 96.257 0 0013.853 3.057 53.851 53.851 0 008.735 3.245c4.368 1.123 10.732.686 10.732.686a71.968 71.968 0 0013.1 5.242 56.206 56.206 0 0012.23 1.559s-6.178-1.185-9.547-2.932-5.616-2.87-5.616-2.87 15.225 4.555 22.525 4.929 11.856-1.747 12.979-3.12-.823-2.344-.823-2.344zM313.005 31.38c3.8.6 7.325 2.331 6.127 2.6a19.718 19.718 0 01-7.972-.333c-3.349-.866-8.21-2.6-8.21-2.6a65.207 65.207 0 0110.055.333zm42.837-24.457a24.8 24.8 0 017.935 1.124s-7.075.529-9.853.727-6.415.4-6.415.4a26.313 26.313 0 018.333-2.251zM88.431 34.245c-1.788.437-4.689 0-5.762 0s-1.986-.716-.715-1.51 9.933-.437 9.933-.437a9.5 9.5 0 01-3.456 1.947zm13.467-4.082c-5.008.22-12.327.055-14.143 0s-3.468-.66-2.312-1.266 8.53-1.981 13.869-1.816a54.145 54.145 0 0111.172 1.816 40 40 0 01-8.586 1.266zm22.383 16.415a62.831 62.831 0 00-8.416 3.272l-.6.446v-.171s.224-.1.6-.275c1.242-.925 4.089-3.071 5.211-4.126 1.453-1.368 1.367-2.18 3.162-3.163s4.957.983 4.829 1.923-2.222 1.538-4.786 2.094zm20.475 11.285a22.555 22.555 0 01-5.32 2.078c-.956.291.416-2.244 1.662-3.782s4.566-1.678 5.736-1.247c.79.291.042 1.704-2.078 2.951zm109.509-.974c-.95.561-2.85.172-5.095-1.166s-6.434-5.527-6.434-5.527a36.051 36.051 0 017.341 2.634c2.418 1.425 5.142 3.498 4.188 4.059zm42.455-42.1c6.153.129 20.726-.583 20.726-.583s-14.443 2.591-19.172 2.85-15.609-.319-15.609-.777c0-.523 7.902-1.624 14.054-1.495zm-5.88 32.356c-5.141-2.7-9.777-5.731-8.6-6.406s8.159 1.972 12.34 4.021 12.525 7.021 12.525 7.021-11.123-1.944-16.265-4.641zm21.072 5.058a38.635 38.635 0 01-9.271-6s2.781 1.107 6.911 2.793 10.031 4.214 10.031 4.214-3.035 1.011-7.671-1.012z"/><path data-name="パス 386" d="M219.242 66.969c-.874.135-1.055 2.109-.615 2.768a1.871 1.871 0 002.636.44 1.522 1.522 0 000-2.373 2.565 2.565 0 00-2.021-.835z"/><path data-name="パス 387" d="M251.794 70.204a1.868 1.868 0 011 1.963 1.136 1.136 0 01-1.641.678 1.651 1.651 0 01-.714-1.5c.035-.391.57-1.283 1.355-1.141z"/></g></svg>