<svg xmlns="http://www.w3.org/2000/svg" width="187.843" height="77.481"><g data-name="2fのコピー"><g data-name="bのコピー 5" fill="#e8e1d6"><path data-name="パス 46" d="M69.966 13.395a1.5 1.5 0 00-.372-.943c-1.67-1.97-3.433-3.786-5.939-4.636a13.409 13.409 0 00-7.62-.228c-4.793 1.331-7.813 5.908-8.566 10.626-.645 4.042 0 9.2 3.948 11.41a12.724 12.724 0 006.961 1.265 11.344 11.344 0 006.615-2.642 14.967 14.967 0 004.174-6.775 38.428 38.428 0 001.089-4.318c.29-1.403.533-2.554-.29-3.759z"/><path data-name="パス 47" d="M133.868 15.815c-1-1.119-2.028-2.168-2.96-3.353a16.489 16.489 0 00-3.067-3.181 6.4 6.4 0 00-7.1-.675 1.354 1.354 0 00-.886-.225c-4.033.255-8.868 1.251-11.5 4.585a18.943 18.943 0 00-4.392 11.748c.018 1.622 2.689 2.125 2.946.4a9.794 9.794 0 01.476-1.861 7.761 7.761 0 001.266 1.288 1.521 1.521 0 002.507-.662 10.927 10.927 0 011.237-3.185 9.869 9.869 0 01.933-1.332c.046-.055.1-.1.144-.158a9.728 9.728 0 01.22 1.017 12.448 12.448 0 00.678 2.348 10.03 10.03 0 003.023 4 1.515 1.515 0 002.507-1.46 7.053 7.053 0 01.061-2.292c.011-.058.087-.273.167-.51a11.59 11.59 0 002.207 2.268c1.933 1.6 4.78 2.57 6.147 4.745a1.524 1.524 0 002.591 0c.958-1.283 2.518-.283 3.557-1.242.946-.872 1.114-2.745 1.24-3.94.309-2.852-.027-6.115-2.002-8.323z"/><path data-name="パス 48" d="M101.924 59.527c-.876-1.136-2.923-.942-4.145-.641a3.358 3.358 0 01-1.917.211 13.116 13.116 0 01-2.261-.838 1.647 1.647 0 00-.81-.15l-.208-.183a6.582 6.582 0 01-.76-.724 9.377 9.377 0 002.512-2.044 4.345 4.345 0 00-.034-4.476 16.919 16.919 0 00-3.6-3.883 6.016 6.016 0 00-4.26-1.77c-3.539.131-5.794 3.076-7.2 6-.737 1.529-1.5 3.149-.219 4.622a9.2 9.2 0 004.159 2.469 4.637 4.637 0 00-.51.96 2.385 2.385 0 00.434 1.981 6.164 6.164 0 003.614 2.241 9.419 9.419 0 004.819-.27 2.832 2.832 0 012.258-.079 14.388 14.388 0 002.212.7 6.591 6.591 0 004.445-.5c1.248-.666 2.551-2.227 1.471-3.626z"/><path data-name="パス 49" d="M31.217 17.671a1.362 1.362 0 00-.265-.116c-1.254-2.243-2.358-4.532-4.832-5.876-3.648-1.981-8.409-1.847-12.316-.8-3.987 1.07-7.423 3.31-9.084 7.2-1.749 4.09-1.309 8.557-.528 12.82.405 2.208.824 4.206 2.847 5.478.837.526 1.515.766 1.958 1.7a5.754 5.754 0 001.79 2.466c1.194.893 2.356-.58 2.2-1.694a25.709 25.709 0 014.455-18.03c.018-.025.026-.05.042-.076.053.134.1.278.154.453a19.354 19.354 0 003.858 6.848c1.609 1.762 3.938 1.936 5.4-.058.166-.227.326-.459.49-.687a1.537 1.537 0 01.125.128 4.9 4.9 0 00.891.629 24.405 24.405 0 003.628 2c.781.352 2.036.153 2.2-.9.665-4.134.961-8.903-3.013-11.485z"/><path data-name="パス 50" d="M181.967 28.748a16.57 16.57 0 00-2.016-8.138 1.421 1.421 0 00-1.2-.72 15.126 15.126 0 00-4.885-4.839c-1.994-1.32-4.521-2.62-6.976-2.024a4.777 4.777 0 00-2.091 1.113 11.172 11.172 0 00-10.744 5.011 20.431 20.431 0 00-2.509 7.429 22.234 22.234 0 00.7 8.62c.4 1.724 2.836 1.22 2.947-.4.088-1.3-.17-3.341.646-4.368.057-.072.106-.144.161-.216a1.725 1.725 0 001.936-1.472 10.881 10.881 0 012.306-6.053c.174-.117.341-.244.521-.353l.339-.2c.035-.009.049-.019.079-.029.015.085.038.166.05.252l-.015.094c-.143.872-.3 1.744-.414 2.621a4.57 4.57 0 001.369 4.4 2.922 2.922 0 003.539.162c1.462.25 3.324.321 3.927-1.25.331-.864 0-1.823.115-2.723a5.309 5.309 0 01.208-.9 34.9 34.9 0 003.544 4.1 3.05 3.05 0 001.932.83 33.211 33.211 0 01.579 5.32c.044 1.175.372 2.414 1.628 2.82 1.3.419 2.467-.513 3.134-1.535 1.415-2.173 1.27-5.075 1.19-7.552zm-3.054 3.727c-.03-.362-.058-.724-.1-1.085a28.225 28.225 0 00-.278-1.727 1.293 1.293 0 00.5.319 15.5 15.5 0 01-.122 2.493z"/><path data-name="パス 51" d="M109.866 39.845a1.518 1.518 0 00-.689-.9 1.458 1.458 0 00-1.156-.151 5.28 5.28 0 00-1.263.659 6.352 6.352 0 00-.655.54 6.168 6.168 0 00-.562.673 4.792 4.792 0 00-.533.935 1.021 1.021 0 00-.176.244.238.238 0 01-.027.016h.012a1.523 1.523 0 00-.572.44 1.409 1.409 0 00-.322.909 2.137 2.137 0 00.558 1.422 1.687 1.687 0 002.063.257 3.1 3.1 0 001.068-1.811 5.072 5.072 0 01.4-.709 3.942 3.942 0 01.419-.414 3.825 3.825 0 01.643-.373l-.182.076a1.57 1.57 0 00.822-.656 1.531 1.531 0 00.152-1.157z"/><path data-name="パス 52" d="M132.836 41.361a22.747 22.747 0 01-2.573-2.744 2.508 2.508 0 01-.152-.244 1.506 1.506 0 00-1.478-1.292 1.525 1.525 0 00-1.5 1.5 2.666 2.666 0 00.309 1.2 4.391 4.391 0 00.531.756q.413.53.855 1.034a22.59 22.59 0 001.886 1.907 1.581 1.581 0 001.061.44 1.529 1.529 0 001.061-.44 1.5 1.5 0 000-2.121z"/><path data-name="パス 53" d="M128.012 47.77a1.531 1.531 0 00-2.053-.538c-1.953 1-4.269.833-6.393.743-1.223-.051-2.448-.091-3.67-.164a5.434 5.434 0 01-2.871-.789 1.515 1.515 0 00-2.052.538 1.424 1.424 0 00-.194.655c-.014.02-.031.037-.043.058a1.527 1.527 0 00.538 2.052 10.352 10.352 0 004.569 1.506 28.612 28.612 0 005.094.233 28.115 28.115 0 004.98-.644c1.672-.383 3.07-1.913 2.095-3.65z"/><path data-name="パス 54" d="M114.9 69.795a1.494 1.494 0 00-.385-.662l-.3-.235a1.488 1.488 0 00-.757-.2h-.7a1.133 1.133 0 00-.578.129 1.354 1.354 0 00-.793.793 1.127 1.127 0 00-.129.578l.054.4a1.491 1.491 0 00.386.662l.3.235a1.489 1.489 0 00.757.205h.7a1.131 1.131 0 00.578-.13 1.115 1.115 0 00.483-.31 1.664 1.664 0 00.439-1.06z"/><path data-name="パス 55" d="M181.185 39.854a1.509 1.509 0 00-1.818-.235 80.866 80.866 0 01-5.929 3.747q-1.422.812-2.878 1.561a9.8 9.8 0 01-2.617 1.213 1.455 1.455 0 00-.986-.1l-.142.033a1.616 1.616 0 00-.127-.118c-1.824-1.385-4.079-1.8-6.205-2.51-2.564-.859-3.838-2.839-5.4-4.928a1.52 1.52 0 00-2.591 0 27.862 27.862 0 00-2.012 4.736 1.51 1.51 0 00.69 1.693c2.459 1.231 4.977 2.335 7.528 3.359a2.784 2.784 0 01.152.413c.412 1.529-.694 3.645-1.271 5.028-.735 1.76-1.613 3.461-2.5 5.15a1.507 1.507 0 002.356 1.818 250.93 250.93 0 005.226-4.32 1.509 1.509 0 00.566 1.986 7.34 7.34 0 003.529.621c1.138-.019 2.273-.1 3.4-.228a1.632 1.632 0 001.061-.439 1.523 1.523 0 00.439-1.061c-.032-.735-.665-1.6-1.5-1.5q-1.576.183-3.164.223c-.48.012-.962.022-1.442-.013l-.159-.013c-.169-.019-.141-.015.084.014-.058.027-.255-.047-.31-.06-.1-.024-.2-.051-.3-.084-.026-.008-.052-.018-.077-.027l-.048-.024a1.679 1.679 0 00-1.3-.072c.744-.648 1.485-1.3 2.207-1.972q.686-.638 1.355-1.292c.152-.148.3-.3.452-.448.1.153.206.3.313.435a16.686 16.686 0 001.356 1.448c1.011.971 2.1 1.855 3.071 2.872 1.837 1.932 3.2 4.228 5.561 5.6 1.7.983 3.063-1.489 1.515-2.59-1.769-1.258-2.682-3.392-3.514-5.322q-.775-1.8-1.536-3.6c-.164-.389-.581-1.09-.368-1.355.279-.344 1.417-.4 1.813-.474 2.447-.479 4.11-1.911 5.924-3.541.728-.654 1.836-1.4 1.822-2.507-.008-1.215-1.475-2.3-2.226-3.117z"/></g><g data-name="sのコピー 5"><g data-name="グループ 22" fill="none" stroke="#5d7248" stroke-miterlimit="10"><path data-name="パス 56" d="M107.188 19.607a3.657 3.657 0 00-.091 1.83 7.349 7.349 0 002.911 4.713c.1.073.321.016.232-.068"/><path data-name="パス 57" d="M113.635 18.47a26.458 26.458 0 00-3.011 7.184.386.386 0 000 .272c.043.082.182.11.224.027"/><path data-name="パス 58" d="M113.891 18.73a10.271 10.271 0 004.944 9.158c.2.12.483.226.657.066"/><path data-name="パス 59" d="M120.23 21.621a16.76 16.76 0 00-.639 6.139"/><path data-name="パス 60" d="M120.33 21.52c1.467 2.527 3.247 5.11 5.958 6.2a8.716 8.716 0 011.631.709 2.776 2.776 0 011.191 2.581"/><path data-name="パス 61" d="M129.864 31.244a6.109 6.109 0 011.124-1.759 1.656 1.656 0 011.838-.5 3.964 3.964 0 01.977.711c.355.376.419.344.6.827a1.841 1.841 0 01-.033 1.5c-.034.064-.91 1.464-.9 1.392"/><path data-name="パス 62" d="M135.622 39.355a9.706 9.706 0 001.884-.9 2.726 2.726 0 001.2-1.647 2.505 2.505 0 00-.363-1.744 5.013 5.013 0 00-1.244-1.318 3.994 3.994 0 00-1.405-.771.93.93 0 00-.886.13 1.024 1.024 0 00-.215.365 5.317 5.317 0 00-.31 1.15"/><path data-name="パス 63" d="M134.202 33.402a1.5 1.5 0 00-1.648.779 2.59 2.59 0 00-.134 1.917"/><path data-name="パス 64" d="M125.148 40.395a46.683 46.683 0 015.487-4.107 1.213 1.213 0 011.11-.261 1.144 1.144 0 01.37.327c1.174 1.419 1.993 3.179 3.49 4.253a24.215 24.215 0 01-4.829 4.427 7.393 7.393 0 01-3.38 1.475 3.151 3.151 0 01-3.155-1.522"/><path data-name="パス 65" d="M129.263 37.967a19.7 19.7 0 003.651 4.468c.094.086.25.169.333.072"/><path data-name="パス 66" d="M127.025 39.267a3.445 3.445 0 00.673 1.28l.946 1.311a6 6 0 002.311 2.214c.024.01.054.019.074 0s-.006-.06-.024-.041"/><path data-name="パス 67" d="M106.824 21.529c-.425 3.17.1 6.73.558 9.9a15.4 15.4 0 001.782 4.54 18.044 18.044 0 003.524 3.04 9.1 9.1 0 004.441 1.68 13.475 13.475 0 004.752-.426 67.635 67.635 0 007.15-2.9"/><path data-name="パス 68" d="M120.175 8.319a11.453 11.453 0 00-8.506 1.069 13.11 13.11 0 00-5.461 5.661 24.826 24.826 0 00-1.113 2.775 18.136 18.136 0 00-.677 2.238 10.881 10.881 0 00-.185 3.072 12.769 12.769 0 002.578 6.754c.058.076.116.186.053.257s-.165-.115-.073-.093"/><path data-name="パス 69" d="M120.83 8.169a11.939 11.939 0 014.319.29 11.417 11.417 0 012.1.6 10.422 10.422 0 013.316 2.452 19.344 19.344 0 014.96 8.47 15.92 15.92 0 01-1.234 10.278"/><path data-name="パス 70" d="M115.07 35.012a2.3 2.3 0 002.81.05"/><path data-name="パス 71" d="M110.906 29.351a.24.24 0 01-.124.144c-.033-.034-.07-.076-.061-.123s.095-.06.1-.013"/><path data-name="パス 72" d="M122.201 29.961a.222.222 0 01-.033.162.129.129 0 01-.045-.217.077.077 0 01-.011.1"/><path data-name="パス 73" d="M112.763 42.595a20.1 20.1 0 00-2.138 6.666 3.627 3.627 0 01-.191.891 3.907 3.907 0 01-.4.677 11.688 11.688 0 00-1.345 2.679 1.293 1.293 0 00.261 1.586 12.617 12.617 0 002.583 2.319c.114.077.325.114.341-.023"/><path data-name="パス 74" d="M112.163 57.81a24.841 24.841 0 007.948.035 22.055 22.055 0 008.44-2.347 3.029 3.029 0 00.637-.451 2.9 2.9 0 00.221-3.167 12.208 12.208 0 01-1.27-3.113 4.286 4.286 0 00-.374-2.014"/><path data-name="パス 75" d="M111.679 58.036a66.451 66.451 0 01.934 9.672 1.627 1.627 0 00.142.763 1.471 1.471 0 001.382.532 7.008 7.008 0 001.206-.143 1.335 1.335 0 00.567-.221 1.377 1.377 0 00.331-.444c.549-1.023.9-2.142 1.438-3.169.837-1.591 2.134-2.966 2.6-4.7a5.445 5.445 0 002.606-.122 1.435 1.435 0 01.587-.1 1.325 1.325 0 01.591.3 11.24 11.24 0 003.545 1.882 12.209 12.209 0 005.639-.267 2.555 2.555 0 00.039-2.872 5.788 5.788 0 01-4.459-3.681"/><path data-name="パス 76" d="M133.869 59.095a3.1 3.1 0 011.39.616 6.858 6.858 0 011.091 1.084 1.018 1.018 0 01.24.394.236.236 0 010 .129.279.279 0 01-.2.139 3.693 3.693 0 01-1.973.03"/><path data-name="パス 77" d="M112.697 69.038c-1.036.5-2.073 1-3.09 1.535-.146.077-.316.237-.224.374a7.953 7.953 0 005.064.324 1.084 1.084 0 00.422-.186 1.134 1.134 0 00.317-.666c.062-.286.113-.574.155-.863"/><path data-name="パス 78" d="M113.281 40.195a10.489 10.489 0 01-5.755-1.451.49.49 0 00-.315-.1.463.463 0 00-.218.134 26.06 26.06 0 00-2.642 2.795 4.5 4.5 0 00-.83 1.337 1.714 1.714 0 00.137 1.517 2.207 2.207 0 00.778.626 14.192 14.192 0 002.905 1.1 5.387 5.387 0 003.263.234"/><path data-name="パス 79" d="M110.613 40.338a24.857 24.857 0 00-1.815 2.053 6.033 6.033 0 00-1.51 3.149c0 .041 0 .091.036.11s.078-.053.037-.06"/><path data-name="パス 80" d="M106.03 38.23a3.01 3.01 0 00-.836-.583 6.1 6.1 0 00-2.43-.414.416.416 0 00-.3.067.4.4 0 00-.1.181q-.3.894-.558 1.8a4.09 4.09 0 00-.214 1.412 2.221 2.221 0 001.257 1.808"/><path data-name="パス 81" d="M117.499 41.558q-.633 2.482-1.124 5a15.231 15.231 0 00-.322 2.333c-.026.684.033 1.369-.013 2.052-.072 1.064-.4 2.095-.545 3.151a4.426 4.426 0 00.49 3.09"/><path data-name="パス 82" d="M110.965 50.606a18.132 18.132 0 006 2.059 16.8 16.8 0 002.331.013c3.114-.137 6.413-.461 8.9-2.342l-.1-.254"/><path data-name="パス 83" d="M111.83 46.795c2.561 1.466 5.672 1.542 8.619 1.374a17.743 17.743 0 005.921-1.122"/><path data-name="パス 84" d="M162.36 19.922a10.22 10.22 0 00-.726 9.4 1.575 1.575 0 00.367.572 1.591 1.591 0 00.782.3 14.141 14.141 0 007.538-.691"/><path data-name="パス 85" d="M169.951 24.695a11.3 11.3 0 00.4 4.617l.092-.249"/><path data-name="パス 86" d="M170.417 24.59q.515 1.074 1.075 2.124a7.4 7.4 0 00.975 1.5 7.1 7.1 0 003.038 1.756"/><path data-name="パス 87" d="M175.096 25.732a29.572 29.572 0 00.923 4.488"/><path data-name="パス 88" d="M176.324 30.463c-.011 2.7.425 5.409.109 8.091a10.33 10.33 0 003.553-7.644"/><path data-name="パス 89" d="M161.75 20.909a12.7 12.7 0 00-3.666 8.274.688.688 0 01-.079.351.668.668 0 01-.24.193q-.942.532-1.935.972"/><path data-name="パス 90" d="M156.296 30.85c-.113-.043-.188.117-.2.237-.344 2.71-.632 5.565.421 8.085"/><path data-name="パス 91" d="M152.602 29.914a20.82 20.82 0 002.01 6.671 7.8 7.8 0 001.928 2.647"/><path data-name="パス 92" d="M155.73 38.58a4.871 4.871 0 001.7 3.258 14.447 14.447 0 003.175 2.017 23.822 23.822 0 003.84 1.456 6.222 6.222 0 003.568.275 48.236 48.236 0 004.942-1.695 9.831 9.831 0 002.72-1.717c1.057-1.036 1.475-4.333 1.513-4.352"/><path data-name="パス 93" d="M152.364 37.261a2.107 2.107 0 011.194.657l1.757 1.555a8.092 8.092 0 011.041 1.041"/><path data-name="パス 94" d="M152.32 37.374c-.437 2.393-.939 4.92-2.573 6.721a37.019 37.019 0 005.17 3.214 10.487 10.487 0 003.326 1.2 1.415 1.415 0 001-.141"/><path data-name="パス 95" d="M176.453 41.857l4.131-3.259a51.663 51.663 0 013.48 4.617 15.651 15.651 0 01-3.683 3.894 17.932 17.932 0 01-6.362 2.275l-.087-.231"/><path data-name="パス 96" d="M159.841 48.007c-.852 5.073-3.375 9.689-5.859 14.194a33.267 33.267 0 0013.969-10.516"/><path data-name="パス 97" d="M168.03 51.859a3.268 3.268 0 00.7 1.39c2.419 3.337 4.947 6.772 8.523 8.821a5.165 5.165 0 002.787.845"/><path data-name="パス 98" d="M173.852 49.295a32.313 32.313 0 006.914 13.349"/><path data-name="パス 99" d="M179.112 35.579a.8.8 0 01.576.495 1.956 1.956 0 01.117.779 3.321 3.321 0 01-.036.536 2.261 2.261 0 01-2.137 1.837"/><path data-name="パス 100" d="M152.805 34.67a1.738 1.738 0 00.328 1.516"/><path data-name="パス 101" d="M150.285 41.645a2.168 2.168 0 01-1.249-.394 9.061 9.061 0 01-2.138-1.772.592.592 0 01-.168-.29.609.609 0 01.081-.333l1.11-2.43a1.046 1.046 0 01.543-.637 1.16 1.16 0 01.885.264c.273.164.636.3.89.109.082-.061.154-.156.256-.158a.313.313 0 01.193.1 5.589 5.589 0 011.11 1.277"/><path data-name="パス 102" d="M181.407 38.469a9.167 9.167 0 01.95-1.962c.111-.172.326-.361.489-.238.139.1.1.363.258.439a.34.34 0 00.258-.023l1.028-.381a1.448 1.448 0 01.629-.13c.441.043.734.462.966.84l1.263 2.068a.452.452 0 01.094.282.441.441 0 01-.146.233 7.912 7.912 0 01-3.535 2.05"/><path data-name="パス 103" d="M164.614 14.069a9.432 9.432 0 00-7.4 1.529 12.753 12.753 0 00-1.317 1.1 14.088 14.088 0 00-4.022 6.2 18.37 18.37 0 00-.51 2.685c-.447 3.38-.578 7.041 1.192 9.955"/><path data-name="パス 104" d="M165.581 13.842a7.611 7.611 0 017.275.069 15.545 15.545 0 015.862 5.257c.441.715.863 1.48 1.268 2.216a27.87 27.87 0 011.771 5.028 14.94 14.94 0 01.632 6.444A10.317 10.317 0 01182 34.73a7.986 7.986 0 01-1.645 2.893"/><path data-name="パス 105" d="M160.52 34.08a.62.62 0 01-.049-.415.282.282 0 01.141.138.106.106 0 11-.111-.162.111.111 0 11-.073.2c.045-.051.145.021.112.08"/><path data-name="パス 106" d="M171.966 33.337c-.034-.012-.059.052-.025.066s.061-.049.028-.065l-.005.233c0 .019 0 .041-.019.05s-.041-.014-.026-.025"/><path data-name="パス 107" d="M163.268 38.923a1.6 1.6 0 00.43.832 2.446 2.446 0 00.463.479 2.4 2.4 0 00.57.272"/><path data-name="パス 108" d="M163.504 38.788a45.1 45.1 0 005.964 0 1.54 1.54 0 01-.732 1.408"/><path data-name="パス 109" d="M162.194 62.225a3.03 3.03 0 001.415.754 21.357 21.357 0 007.785.869"/><path data-name="パス 110" d="M176.476 62.47l-.091 4.663"/><path data-name="パス 111" d="M170.561 64.304a32.839 32.839 0 013.474 8.294.844.844 0 00.367.6.81.81 0 00.4.039l1.968-.14a26.036 26.036 0 000-4.978c-.013-.14-.062-.317-.2-.331"/><path data-name="パス 112" d="M174.662 73.752a1.759 1.759 0 00-.755 1.428.226.226 0 00.043.157.25.25 0 00.133.056 7.269 7.269 0 003.249.137c.153-.04.335-.135.324-.292a.373.373 0 00-.083-.178l-.605-.847a.556.556 0 00-.277-.244"/><path data-name="パス 113" d="M159.547 60.328c.547 3.7.942 8.352 1.489 12.049a.6.6 0 00.177.412.555.555 0 00.228.084 6.168 6.168 0 002.411-.189.817.817 0 00.3-.107.8.8 0 00.249-.6c.241-2.311.275-5.711 1.343-7.774"/><path data-name="パス 114" d="M161.521 73.467q-1.068 1.044-2.177 2.044a2.024 2.024 0 001.726.4c.6-.092 1.19-.31 1.8-.345a2.758 2.758 0 00.6-.06.591.591 0 00.432-.386.836.836 0 00-.018-.365l-.192-.953"/><path data-name="パス 115" d="M162.373 58.266a9.26 9.26 0 002.436.515 18.414 18.414 0 006.8-.038"/><path data-name="パス 116" d="M164.659 55.652a8.969 8.969 0 002.614.108 5.7 5.7 0 002.174.013c.048-.017.1-.053.144-.023s-.063.079-.039.034"/><path data-name="パス 117" d="M84.476 58.356a12.4 12.4 0 01-4.722-1.425 3.31 3.31 0 01-1.849-1.515 3.252 3.252 0 01-.1-1.839 12.088 12.088 0 014.63-7.594 7.88 7.88 0 011.616-.96 5.918 5.918 0 013.643-.315 4.969 4.969 0 011.7.734 7.407 7.407 0 011.061.94 25.349 25.349 0 013.926 5.239 5.954 5.954 0 01.738 1.786 3.431 3.431 0 01-1.006 3.084 5.5 5.5 0 01-2.044 1.1 14.248 14.248 0 01-7.1.79"/><path data-name="パス 118" d="M78.822 43.951a2.493 2.493 0 00.378 1.346 4.445 4.445 0 001.394 1.779"/><path data-name="パス 119" d="M92.54 43.68a2.813 2.813 0 01-.929 2.763"/><path data-name="パス 120" d="M83.53 50.635l-.082.276.039-.139"/><path data-name="パス 121" d="M88.004 50.676a.481.481 0 01.129.366"/><path data-name="パス 122" d="M92.616 58.027a6.491 6.491 0 013.729 1.292.636.636 0 00.445.187"/><path data-name="パス 123" d="M96.31 59.095a8.835 8.835 0 014.045-.4 2.72 2.72 0 012.031 1.037 2.555 2.555 0 01-.573 2.851 6.052 6.052 0 01-7.643 1.135 4.5 4.5 0 00-1.029-.588c-.95-.3-1.92.3-2.87.6a8.218 8.218 0 01-5.715-.788 4.594 4.594 0 01-2.263-1.725 1.805 1.805 0 01.59-2.5l-.139-.386"/><path data-name="パス 124" d="M75.058 55.971a5.586 5.586 0 007.362 5.256"/><path data-name="パス 125" d="M84.072 62.958a8.886 8.886 0 01-1.81 6.577l.118-.215"/><path data-name="パス 126" d="M88.148 64.359l-.1 1.612c-.032.517-.064 1.035-.144 1.548a8.5 8.5 0 01-1.5 3.661h0"/><path data-name="パス 127" d="M91.721 64.064a15.569 15.569 0 01-.253 5.9l.088-.228"/><path data-name="パス 128" d="M95.38 64.902a12.528 12.528 0 01.209 5.567l.029-.157"/><path data-name="パス 129" d="M99.33 64.805a7.253 7.253 0 01-.023 3.614"/><path data-name="パス 130" d="M51.287 33.657a7.031 7.031 0 014.609.716 1.875 1.875 0 01.6.455 1.914 1.914 0 01.322.792 8.142 8.142 0 01.189 1.677 1.988 1.988 0 01-.135.853.806.806 0 01-.663.5"/><path data-name="パス 131" d="M49.422 30.437a4.67 4.67 0 00-2.588 2.068 3.608 3.608 0 00-.69 2.02 2.977 2.977 0 001.015 2.045 6.032 6.032 0 002.024 1.153 12.78 12.78 0 006.98.543"/><path data-name="パス 132" d="M68.644 25.295c-2.167 2.282-4.5 4.665-7.548 5.452a13.459 13.459 0 01-3.719.322 21.958 21.958 0 01-7.179-1.262 13.275 13.275 0 01-5.889-4.193 18.92 18.92 0 01-1.5-2.371 14.309 14.309 0 01-1.136-2.434 13.694 13.694 0 01-.363-5.547c.357-3.863 1.327-7.879 3.99-10.7A13.116 13.116 0 0152.056.91a21.261 21.261 0 017.751-.1 14.032 14.032 0 015.42 1.8 12.01 12.01 0 014.956 7.993 31.886 31.886 0 01-.046 9.634 9.167 9.167 0 01-1.48 4.743"/><path data-name="パス 133" d="M53.05 30.644a9.142 9.142 0 01-3.647-3.207 12.978 12.978 0 01-1.976-4.1 10.028 10.028 0 01-.108-2.956c.216-2.521.542-5.448 1.813-7.635s2.279-3.791 4.592-4.817a12.494 12.494 0 0110.883.389 16.565 16.565 0 013.558 2.971 10.135 10.135 0 012.375 5.943"/><path data-name="パス 134" d="M62.447 38.053a5.448 5.448 0 01-5.167-3.442.284.284 0 01.121-.419 5.839 5.839 0 013.7-.907 7.543 7.543 0 013.6 1.33 1.936 1.936 0 01.791.865 1.545 1.545 0 01-.206 1.288 2.673 2.673 0 01-2.35 1.273"/><path data-name="パス 135" d="M57.295 38.022c.006.192.224.3.412.336a2.618 2.618 0 001.572-.155"/><path data-name="パス 136" d="M63.163 30.846a4.563 4.563 0 011.3 3.178"/><path data-name="パス 137" d="M63.363 38.855a11.976 11.976 0 011.24 4.967 5 5 0 01-.076 1.167 4.036 4.036 0 01-1.525 2.3 7.952 7.952 0 01-2.519 1.236 15.693 15.693 0 01-6.759.6"/><path data-name="パス 138" d="M47.855 37.707a21.748 21.748 0 00.425 9.608c.746 2.716 2.026 5.308 2.31 8.11.007.068.025.15.089.17s.11-.111.042-.106"/><path data-name="パス 139" d="M53.94 49.67l-.035 6.163c0 .11-.013.241-.11.293a.31.31 0 01-.142.025l-2.311.046"/><path data-name="パス 140" d="M59.13 49.649a15.638 15.638 0 011.025 5.562 15.376 15.376 0 002.735-.11.186.186 0 00.193-.22q.351-4.032.832-8.051"/><path data-name="パス 141" d="M51.017 56.595a2.112 2.112 0 01-.442.794 4.85 4.85 0 00-.76 1.647 8.9 8.9 0 003.673.089.537.537 0 00.271-.107.516.516 0 00.126-.344 3.337 3.337 0 00-.25-1.57"/><path data-name="パス 142" d="M60.674 55.695a1.989 1.989 0 00-.218 1.35.687.687 0 00.145.337.84.84 0 00.525.2 12.681 12.681 0 004.3.082 18.955 18.955 0 01-2.249-2.208"/><path data-name="パス 143" d="M46.921 40.853a2.8 2.8 0 00-.78.444.939.939 0 00-.34.8c.069.5.62.758 1.1.9a10.952 10.952 0 004.011.373 5.862 5.862 0 003.938-1.72"/><path data-name="パス 144" d="M61.752 41.562a1.986 1.986 0 00.757.461 5.8 5.8 0 001.428.453 2.946 2.946 0 001.5-.193c.147-.061.307-.155.337-.312a.486.486 0 00-.243-.433 2.384 2.384 0 00-.907-.431"/><path data-name="パス 145" d="M17.869 20.727a5.8 5.8 0 00.605 3.159 14.638 14.638 0 002.165 3.92 5.99 5.99 0 003.78 2.228c.29.033.662-.013.75-.291"/><path data-name="パス 146" d="M25.707 29.349a3.769 3.769 0 01.8-1.063"/><path data-name="パス 147" d="M27.319 27.969a8.171 8.171 0 005.458 2.738c.309.024.7-.018.807-.306"/><path data-name="パス 148" d="M28.882 15.742a9.943 9.943 0 014.957 14.261"/><path data-name="パス 149" d="M17.513 21.809q-1.236 1.5-2.437 3.033a12.357 12.357 0 00-1.671 2.551 11.6 11.6 0 00-.783 3.755c-.3 3.607-.264 7.344 1.082 10.705"/><path data-name="パス 150" d="M7.115 27.875a18.876 18.876 0 00.979 7.238 16.884 16.884 0 002.11 4.753 7.739 7.739 0 004.053 3.13"/><path data-name="パス 151" d="M31.875 16.765c-2.418-2.773-5.07-5.692-8.645-6.561a17.862 17.862 0 00-4.065-.352 26.366 26.366 0 00-4.6.222 13.255 13.255 0 00-4.8 1.809 14.98 14.98 0 00-6.568 10 19.617 19.617 0 001.831 11.972 8.977 8.977 0 004.144 4.594"/><path data-name="パス 152" d="M13.498 40.108a14.24 14.24 0 008.175 3.95 10.082 10.082 0 002.994-.125 23.987 23.987 0 005.959-3.947 6.889 6.889 0 001.116-1.211 6.556 6.556 0 00.762-1.695 18.213 18.213 0 00.863-6.079l-.2.093"/><path data-name="パス 153" d="M18.958 31.839a.363.363 0 01-.156-.133.127.127 0 01.05-.176.19.19 0 01.13.259.147.147 0 01-.259-.026c-.024-.109.169-.182.211-.078s-.125.218-.117.343"/><path data-name="パス 154" d="M30.178 32.185a.1.1 0 01-.041.173.559.559 0 01-.129-.438l.159.237c-.068-.027-.006-.157.058-.121"/><path data-name="パス 155" d="M23.1 37.617a1.384 1.384 0 00.724.435 3.738 3.738 0 001.408.29 3.7 3.7 0 001.143-.317"/><path data-name="パス 156" d="M12.74 43.634q-4.677 2.691-9.169 5.691c.986 1.418 2.862 2.208 3.38 3.856.02.064.044.137.106.163a.229.229 0 00.161-.016 18.787 18.787 0 007.335-4.879 8.015 8.015 0 001.655-2.441c.033-.084-.033-.232-.089-.163"/><path data-name="パス 157" d="M3.745 50.595a7.887 7.887 0 00-1.844.52 2.658 2.658 0 00-1.358 1.3.342.342 0 00-.03.251.39.39 0 00.182.166 4.109 4.109 0 011.595 1.7.318.318 0 00.148.175.3.3 0 00.166 0 5.58 5.58 0 001.734-.675c.108-.065.25-.133.35-.056s.1.219.208.241c.068.013.13-.039.18-.088l1.1-1.075"/><path data-name="パス 158" d="M33.778 44.044a12.942 12.942 0 011.35-.886.885.885 0 01.388-.144c.339-.013.583.371.554.709a1.812 1.812 0 01-.447.9"/><path data-name="パス 159" d="M32.783 44.72a6.118 6.118 0 011.552 4.491c-.654.253-1.236.66-1.873.953a5.95 5.95 0 01-5.957-.653 1.079 1.079 0 01-.362-.4"/><path data-name="パス 160" d="M27.151 44.003c-.054-.02-.057.08-.02.125a1.9 1.9 0 00.414.338 8.479 8.479 0 001.521.87 2.841 2.841 0 001.717.178 2.115 2.115 0 001.019-.593"/><path data-name="パス 161" d="M25.508 47.221a60.824 60.824 0 004.751 17.268 2.527 2.527 0 01.316 1.247c-.044.431-.413.863-.843.807"/><path data-name="パス 162" d="M11.388 51.64A103.849 103.849 0 015.2 63.212a21.274 21.274 0 0010.984 4.521 1.453 1.453 0 00.788-.069 1.4 1.4 0 00.511-.521 21.917 21.917 0 001.766-3.509c.936-2.174 1.873-4.351 2.642-6.591q2.031 5.025 4.18 10a.912.912 0 00.251.385.855.855 0 00.531.123 5.366 5.366 0 002.768-.808"/><path data-name="パス 163" d="M11.121 55.706a24.845 24.845 0 004.467 2.155c.165.06.351.139.407.305a.589.589 0 01-.013.311 5.7 5.7 0 01-.687 1.925 1.943 1.943 0 01-1.708.954"/><path data-name="パス 164" d="M35.537 38.439a.946.946 0 00-.141.673q.084 1.815.225 3.628l.015-.423"/><path data-name="パス 165" d="M36.081 44.861a24.9 24.9 0 00.969 6.092 32.037 32.037 0 017.65-.874l-.1-.263"/><path data-name="パス 166" d="M35.86 38.34q4.125-.5 8.231-1.129a48.054 48.054 0 00.427 6.807l.609 5.519"/><path data-name="パス 167" d="M19.311 65.369l1.584.281a23.65 23.65 0 001.473 7.193.629.629 0 00.265.345.64.64 0 00.318.034l2.108-.132a23.412 23.412 0 01.823-5.826"/><path data-name="パス 168" d="M9.636 66.511a52.436 52.436 0 01-2.181 6.382 13.354 13.354 0 002.289.751 24.911 24.911 0 004.911-5.558"/><path data-name="パス 169" d="M22.687 73.746q.21.891.457 1.774a1.1 1.1 0 00.229.485 1.05 1.05 0 00.635.245 7.877 7.877 0 003.294-.271c.076-.024.163-.058.185-.135s-.038-.156-.094-.216a13.229 13.229 0 00-2.151-1.856"/><path data-name="パス 170" d="M7.143 73.349a3.84 3.84 0 00-.857.866 1.335 1.335 0 00-.284.657 1.065 1.065 0 00.406.856 2.642 2.642 0 00.872.442 14.646 14.646 0 002.589.758c.074-.737.144-2.2-.428-2.862"/><path data-name="パス 171" d="M182.73 32.528a5.01 5.01 0 001.343 3.059"/><path data-name="パス 172" d="M22.921 44.872a1.37 1.37 0 00.173.965 2.056 2.056 0 01.322-.961"/></g></g></g></svg>