<svg xmlns="http://www.w3.org/2000/svg" width="171.447" height="78.237"><g data-name="sのコピー 4"><g data-name="グループ 23" fill="none" stroke="#5d7248" stroke-miterlimit="10"><path data-name="パス 189" d="M112.197 23.856a1.781 1.781 0 00.211 1.273 10.41 10.41 0 002.864 3.862 6.539 6.539 0 004.492 1.506c-.06-.052.029-.17.095-.127"/><path data-name="パス 190" d="M119.229 25.675a7.929 7.929 0 00.04 3.937c.068.253.194.544.452.588"/><path data-name="パス 191" d="M119.855 25.537a8.194 8.194 0 004.583 4.877c.27.111.683.144.758-.139"/><path data-name="パス 192" d="M125.589 28.113a5.348 5.348 0 00.124 2.209"/><path data-name="パス 193" d="M111.983 24.765a16.427 16.427 0 00-.776 5.323"/><path data-name="パス 194" d="M108.154 27.776a4.764 4.764 0 002.535 2.731"/><path data-name="パス 195" d="M107.923 28.162q.037 1.6.185 3.189"/><path data-name="パス 196" d="M107.161 32.52a1.161 1.161 0 00-.843 1.416 1.846 1.846 0 00.2.411 1.309 1.309 0 001.084.769"/><path data-name="パス 197" d="M126.811 32.951a1.212 1.212 0 01.418 2.076 1.9 1.9 0 01-.723.351"/><path data-name="パス 198" d="M108.296 35.607a8.44 8.44 0 003.813 3.978 18.479 18.479 0 005.349 1.617 5.145 5.145 0 001.77-.183"/><path data-name="パス 199" d="M126.258 35.613a9.182 9.182 0 01-2.926 3.449 13.346 13.346 0 01-4.1 1.959"/><path data-name="パス 200" d="M126.172 30.151l.1 2.106"/><path data-name="パス 201" d="M111.435 16.003c-2.618.674-4.5 2.82-5.71 5.171a12.893 12.893 0 00-1.235 8.428 7.56 7.56 0 001.507 3.467.25.25 0 00-.11-.167"/><path data-name="パス 202" d="M112.082 15.927a16.867 16.867 0 015.787-.478 11.736 11.736 0 015.215 1.994 14 14 0 013.995 4.444"/><path data-name="パス 203" d="M127.079 21.887a11.6 11.6 0 01.342 10.384"/><path data-name="パス 204" d="M113.536 33.199c-.027.007.024-.017 0 0"/><path data-name="パス 206" d="M115.95 36.777l3.215-.075c.05 0 .113.007.128.055a.121.121 0 01-.02.085l-.1.19"/><path data-name="パス 207" d="M115.771 36.945a.265.265 0 00.223.248"/><path data-name="パス 208" d="M106.489 33.999l-1.887-1.58a.31.31 0 00-.164-.088.314.314 0 00-.2.091 13.629 13.629 0 00-4.257 4.579 1.37 1.37 0 00-.175.748 1.444 1.444 0 00.355.676c2.208 2.783 5.372 4.632 8.566 6.186.213.1.511.188.651 0"/><path data-name="パス 209" d="M128.467 34.152a5.02 5.02 0 01.893-.8.371.371 0 01.221-.089.4.4 0 01.257.169l3.238 3.712a1.363 1.363 0 01.449.9 1.285 1.285 0 01-.231.589 14.505 14.505 0 01-8.2 6.3"/><path data-name="パス 210" d="M111.736 41.537a36.16 36.16 0 00-3.452 8.113 3.048 3.048 0 00-.163.98c.015.3.115.59.145.889a15.084 15.084 0 01-.194 1.835c-.016.616.341 1.345.957 1.357"/><path data-name="パス 211" d="M123.455 42.288a17.774 17.774 0 001.115 2.774 30.371 30.371 0 012.192 7.118 2.424 2.424 0 01.05.758 2.528 2.528 0 01-.2.622l-.494 1.17"/><path data-name="パス 212" d="M109.34 54.539a52.97 52.97 0 0016.178.022"/><path data-name="パス 213" d="M117.966 42.213c-.678 3.914.173 7.939-.169 11.9"/><path data-name="パス 214" d="M109.612 48.84a38.6 38.6 0 0010.066 1.027 18.285 18.285 0 002.573-.226 12.168 12.168 0 002.806-.838"/><path data-name="パス 215" d="M111.246 44.33a47.932 47.932 0 0011.947.177"/><path data-name="パス 216" d="M125.217 38.65c.786 1.59 2.307 2.687 3.292 4.162a.4.4 0 00-.025-.273"/><path data-name="パス 217" d="M127.474 35.727a31.088 31.088 0 003.549 4.558.13.13 0 00.019-.186"/><path data-name="パス 218" d="M106.334 34.8l-4.1 4.673.3-.289"/><path data-name="パス 219" d="M108.555 37.029a20.629 20.629 0 01-3.347 4.689l.047-.225"/><path data-name="パス 220" d="M114.765 57.798a59.949 59.949 0 006.725.307"/><path data-name="パス 221" d="M120.554 58.839a23.108 23.108 0 012.276 6.282 1.14 1.14 0 00.319.7 1.11 1.11 0 00.7.16 6.667 6.667 0 002.373-.276"/><path data-name="パス 222" d="M126.159 55.376q.375 4.8.344 9.629l-.087-.316"/><path data-name="パス 223" d="M109.36 55.159a55.78 55.78 0 00.538 9.647 1.43 1.43 0 001.484 1.563l1.142.168c.327.049.784 0 .819-.325"/><path data-name="パス 224" d="M115.206 58.375q-.909 3.64-1.484 7.353c-.027.176-.036.4.115.49"/><path data-name="パス 225" d="M123.473 66.765l.162 1.549a.908.908 0 00.094.371.857.857 0 00.64.315 7.882 7.882 0 003.277-.193.547.547 0 00.334-.192c.145-.227-.085-.5-.3-.672q-.768-.615-1.57-1.185"/><path data-name="パス 226" d="M110.821 66.961a7.138 7.138 0 00-2.163 1.967.394.394 0 00-.106.326c.05.162.264.191.433.189l2.677-.021a12.628 12.628 0 001.483-.07c.149-.018.319-.058.382-.194a.463.463 0 00.014-.259l-.244-1.746"/><path data-name="パス 227" d="M97.87 33.813a4.247 4.247 0 001.869 1.542"/><path data-name="パス 228" d="M97.723 33.194a4.115 4.115 0 011.649-2.535c.259-.216.6-.434.913-.31.251.1.374.373.523.6s.425.436.667.318a1.33 1.33 0 01.2-.114c.223-.064.377.217.439.44l.34 1.236"/><path data-name="パス 229" d="M131.021 33.783l.329-.932a.963.963 0 01.188-.362.337.337 0 01.373-.1c.1.046.153.148.25.191a.478.478 0 00.265.006l1.08-.182a.793.793 0 01.414.005.771.771 0 01.3.249q.534.634 1.013 1.308a1.4 1.4 0 01.267.524 1.163 1.163 0 01-.208.805 2.908 2.908 0 01-1.57 1.243"/><path data-name="パス 230" d="M145.13 20.36a.645.645 0 01.7-.227 1 1 0 01.582.5 1.468 1.468 0 01-.617 1.956 1.625 1.625 0 00-.421.227 1.08 1.08 0 00-.18.254 9 9 0 01-5.428 4.13"/><path data-name="パス 231" d="M128.006 17.593a7.541 7.541 0 00.19 2.733c.353 1.822.764 3.757 2.069 5.076a6.263 6.263 0 001.205.928 9.517 9.517 0 007.913.877"/><path data-name="パス 232" d="M132.945 23.107a.7.7 0 00.489.7"/><path data-name="パス 233" d="M133.276 23.193h.51c1.3-.006 2.6-.012 3.892-.118a1.29 1.29 0 01-.716.892"/><path data-name="パス 234" d="M130.937 19.23v.063"/><path data-name="パス 236" d="M143.789 17.613l.36 1.736c.017.08.034.161.056.241"/><path data-name="パス 237" d="M134.843 11.169a10.452 10.452 0 003.567 4.371 12.615 12.615 0 002.108 1.393 8.243 8.243 0 002.878.837"/><path data-name="パス 238" d="M134.51 11.798a28 28 0 01-6.118 5.149"/><path data-name="パス 239" d="M134.432 5.395c-1.572.067-2.861 1.213-4 2.3a18.375 18.375 0 00-1.677 1.733 9.34 9.34 0 00-1.677 8.367c.035.119.218.238.24.116"/><path data-name="パス 240" d="M135.251 5.291a3.746 3.746 0 012.721-.564 12.076 12.076 0 016.976 2.566c2.033 1.739 2.729 3.706 3.178 6.343.338 1.988-.324 6.778-1.553 7.746"/><path data-name="パス 241" d="M166.42 33.158a14.65 14.65 0 00-2.759 2.844 1.1 1.1 0 00-.247.5 1.154 1.154 0 00.393.832c1.3 1.488 2.724 3.036 4.631 3.555a2.349 2.349 0 001.129.074 2.035 2.035 0 001.374-2.132 5.056 5.056 0 00-1.064-2.5 22.072 22.072 0 00-2.5-3.006 1.048 1.048 0 00-.687-.393"/><path data-name="パス 242" d="M163.484 35.3a5.816 5.816 0 01-1.738-1.132.885.885 0 01-.244-.323.8.8 0 01-.015-.392 2.818 2.818 0 012.287-2.3.834.834 0 01.55.06c.115.067.215.185.348.18s.238-.157.319-.28.229-.249.36-.18a2.655 2.655 0 00.156 1.43"/><path data-name="パス 243" d="M153.675 35.408a7.43 7.43 0 00-2.708 1.321 8 8 0 00-2.211 2.067 3.312 3.312 0 00-.471 2.9 4.415 4.415 0 002.73 2.267"/><path data-name="パス 244" d="M149.916 43.998a.76.76 0 00-.031 1.182 1.8 1.8 0 001.3.342 6.552 6.552 0 004.433-2"/><path data-name="パス 245" d="M152.707 39.446a22.325 22.325 0 00-.394 8.9 58.87 58.87 0 01.723 8.926.877.877 0 00.079.506.812.812 0 00.536.295 7.442 7.442 0 002.473.152.835.835 0 00.474-.158.889.889 0 00.217-.6l.728-7.518 4.669-.4"/><path data-name="パス 246" d="M167.194 41.523a112.95 112.95 0 01-1.149 15.049.664.664 0 01-.117.344.641.641 0 01-.367.172 7.2 7.2 0 01-2.236.122.6.6 0 01-.332-.106.623.623 0 01-.17-.334 17.365 17.365 0 01-.429-6.807"/><path data-name="パス 247" d="M153.571 58.461a3.383 3.383 0 00-1.546 1.534.438.438 0 00-.029.273.49.49 0 00.336.263 5 5 0 003.9-.264.158.158 0 00.1-.205l-.117-.939"/><path data-name="パス 248" d="M165.771 57.413a5.434 5.434 0 012.117 1.767.39.39 0 01-.261.162 5.76 5.76 0 01-3.826-.26c-.1-.044-.211-.106-.227-.214s.069-.2.082-.3a.617.617 0 00-.1-.323.275.275 0 01.019-.319"/><path data-name="パス 249" d="M162.504 35.381a18.891 18.891 0 01-5.833.036 6.866 6.866 0 01-2.573-.812 5.3 5.3 0 01-1.467-1.385c-1.707-2.294-1.908-5.426-1.27-8.213a6.92 6.92 0 01.751-2.036 6.316 6.316 0 011.474-1.616 9.866 9.866 0 017.431-2.2 8.051 8.051 0 016.187 4.476 12.748 12.748 0 01.821 2.917 9.635 9.635 0 01-.158 5.551 1.326 1.326 0 01-.4.576.542.542 0 01-.657.011"/><path data-name="パス 250" d="M152.182 32.757a12.277 12.277 0 01-3.322-7.22c-.4-3.65 1.648-8.421 4-9.65a12.962 12.962 0 017.439-1.5c2.661.249 5.791 1.425 7.388 3.569a14.579 14.579 0 012.357 7.306c.021 4.4-2.043 6.339-2.043 6.339"/><path data-name="パス 251" d="M143.789 26.413c3.022 1.9 5.046 5.01 6.974 8.017"/><path data-name="パス 252" d="M142.731 31.627c1.425 2.006 2.062 4.545 3.765 6.321.043.045.109.093.161.059s-.052-.123-.054-.061"/><path data-name="パス 253" d="M146.889 37.998a36.8 36.8 0 003.639-1.964 2.713 2.713 0 00.967-.842"/><path data-name="パス 254" d="M134.136 28.228c-.424.9-1.152 3.138-1.6 4.029"/><path data-name="パス 255" d="M146.458 38.685l.785 5.924"/><path data-name="パス 256" d="M131.956 41.693l-.163 1.3a.52.52 0 00.169.532 9.7 9.7 0 003.438 2.445"/><path data-name="パス 257" d="M134.789 45.939a40.25 40.25 0 007.218.423c1.707-.053 3.584-.3 4.724-1.569"/><path data-name="パス 258" d="M133.254 45.286a13.4 13.4 0 001.035 5.736 13.256 13.256 0 002.855-.018.211.211 0 00.236-.224c.031-.236 1.029-4.161 1.061-4.4"/><path data-name="パス 259" d="M139.981 46.382a13.453 13.453 0 011.291.775c.027.03.614 4.123.775 4.569"/><path data-name="パス 260" d="M147.254 45.134l.107 6.693a.679.679 0 01-.057.35.655.655 0 01-.392.255 6.15 6.15 0 01-2.553.349 3.713 3.713 0 01-2.312-1.055"/><path data-name="パス 261" d="M143.275 52.936l.01 1.532a1.157 1.157 0 01-.032.342 1.3 1.3 0 01-.24.394 10.566 10.566 0 00-.982 1.68c-.044.089-.084.21-.01.277a.235.235 0 00.08.04 6.631 6.631 0 004.449-.079 1.2 1.2 0 00.67-.478 1.014 1.014 0 00-.017-.851c-.109-.273-.275-.521-.37-.8a3.449 3.449 0 01-.133-.983l-.043-1.18"/><path data-name="パス 262" d="M134.415 51.259a5.514 5.514 0 00-.1 2c-.388.162-1 .5-1 .5s-.84.359-1.008.784a.772.772 0 00.219.837 17.46 17.46 0 004.8-.114c.314-.173.289-.794.262-1.152l-.193-2.584"/><path data-name="パス 263" d="M133.483 28.257l-3.411 4.534"/><path data-name="パス 264" d="M144.003 27.483a11.718 11.718 0 00-1.33 1.989q-3.507 6.074-7.509 11.842a9.827 9.827 0 01-1.837 2.156"/><path data-name="パス 265" d="M139.466 27.347l-3.761 5.354a.23.23 0 11.024-.044"/><path data-name="パス 266" d="M163.268 43.984a5.521 5.521 0 003.368 2.033 2.036 2.036 0 001.671-.008 1.221 1.221 0 00.463-1.276 1.878 1.878 0 00-.848-1.125"/><path data-name="パス 267" d="M78.623 22.523a19.723 19.723 0 004.819.1l-.014.167"/><path data-name="パス 268" d="M78.783 22.663a18.39 18.39 0 00.411 5.324 3.639 3.639 0 001.8 2.779 2 2 0 001.788-.166 3.016 3.016 0 001.126-1.6c.684-1.954.34-4.1-.011-6.141"/><path data-name="パス 269" d="M95.456 23.566a23.181 23.181 0 00.107 4.948 4.769 4.769 0 00.525 1.844 1.874 1.874 0 001.557.987l.007-.236"/><path data-name="パス 270" d="M96.024 23.404a24.077 24.077 0 004.162.375q-.108 2.327-.356 4.642a4.933 4.933 0 01-.448 1.836c-.027.049-.073.106-.127.09s0-.123.03-.073"/><path data-name="パス 271" d="M96.383 21.424a2.252 2.252 0 00.142 1.292.29.29 0 00.081-.244"/><path data-name="パス 272" d="M96.866 20.774a2.732 2.732 0 012.3-.1.405.405 0 01.224.173.681.681 0 01.01.321.6.6 0 00.455.586.206.206 0 01.135.061.166.166 0 01.005.135 2.086 2.086 0 01-.4.783"/><path data-name="パス 273" d="M82.82 22.073a3.15 3.15 0 00.061-1.814 1.268 1.268 0 00-.745-.948 1.553 1.553 0 00-.659 0l-1.312.184c-.3.042-.675.161-.693.462a2.1 2.1 0 01.009.262c-.042.222-.326.281-.5.42a.546.546 0 00.293.974"/><path data-name="パス 274" d="M84.56 24.073a9.686 9.686 0 0010.071-.522 3.75 3.75 0 001.382-1.532"/><path data-name="パス 275" d="M85.302 8.883c.18 1.36.7 3.256 1.814 4.157.549.443 3.512.353 4.861-.137a1.633 1.633 0 01-.064-1.035"/><path data-name="パス 276" d="M92.06 11.442a12.432 12.432 0 001.749 1.671 4.185 4.185 0 002.223.872l.006-.805"/><path data-name="パス 277" d="M96.257 13.6a31.918 31.918 0 01.558 4.462 7.657 7.657 0 01-.12 2.757c-.012.041-.036.09-.079.088s-.017-.091.01-.058"/><path data-name="パス 278" d="M84.882 8.713a14.764 14.764 0 00-3.429 6.469"/><path data-name="パス 279" d="M81.168 8.836a9.52 9.52 0 00-.462 5.773c.017.071.114.152.139.083"/><path data-name="パス 280" d="M80.507 13.792a20.093 20.093 0 00-.624 4.744"/><path data-name="パス 281" d="M88.777.725A2.063 2.063 0 0087.72.5a8.649 8.649 0 00-6.309 2.689 11.619 11.619 0 00-1.812 2.655 18.27 18.27 0 00-2.014 9.005 16.537 16.537 0 01.031 1.695 9 9 0 01-1.992 4.851 2.531 2.531 0 002.135-.35"/><path data-name="パス 282" d="M89.033.644A8.731 8.731 0 0196.46 3.43a16.232 16.232 0 013.74 7.248"/><path data-name="パス 283" d="M100.095 10.683l.5 5.195c.179 1.852.422 3.851 1.7 5.205a2.407 2.407 0 01-1.812.149"/><path data-name="パス 284" d="M87.689 20.077a2.533 2.533 0 001.53.5 1.484 1.484 0 001.137-.463c.015-.018.037-.04.06-.031s0 .054-.015.032"/><path data-name="パス 285" d="M92.558 16.691l.03.03"/><path data-name="パス 286" d="M85.043 16.721l-.03-.06"/><path data-name="パス 287" d="M82.539 31.413a81.811 81.811 0 01-3.414 9.234 14.864 14.864 0 005.024-1.628c2.137-1.275 3.591-3.411 4.975-5.48a6.052 6.052 0 001.894 3.33 18.414 18.414 0 005.457 3.426 9.748 9.748 0 003.732.56l-.953-1.62a12.653 12.653 0 01-.809-1.532 22.554 22.554 0 01-1.106-2.583c-.3-1.285-.565-2.992-.862-4.277"/><path data-name="パス 288" d="M84.105 39.713c-.311 1.562.5 3.115 1.391 4.437.494.738 1.15 1.527 2.038 1.548a2.366 2.366 0 001.78-1.038 5.763 5.763 0 001.169-2.581"/><path data-name="パス 289" d="M88.431 41.15a18.592 18.592 0 002.787.369"/><path data-name="パス 290" d="M97.722 41.168a78.345 78.345 0 01-3.043 9.6.451.451 0 01-.154.234.442.442 0 01-.306.031 6.471 6.471 0 01-2.282-.792.417.417 0 01-.175-.151.446.446 0 01-.025-.252 26.02 26.02 0 00-.449-7.878"/><path data-name="パス 291" d="M94.407 51.513a13.148 13.148 0 01.61 2.383 1.6 1.6 0 01-1.017.142 2.739 2.739 0 01-2.167-1.849 5.363 5.363 0 01-.171-1.544"/><path data-name="パス 292" d="M84.122 42.763a11.4 11.4 0 00.478 3.558.826.826 0 00.211.4.7.7 0 00.84-.071 1.561 1.561 0 00.516-.662"/><path data-name="パス 293" d="M91.242 41.57a1.382 1.382 0 01.963-.091"/><path data-name="パス 294" d="M87.648 37.344a8.7 8.7 0 003.1-.01"/><path data-name="パス 295" d="M87.116 50.896c-1.419-.487-2.97-.975-4.385-.479a5.319 5.319 0 00-2.1 1.546 15.988 15.988 0 00-2.031 2.891 5.576 5.576 0 00-.936 3.844 4.255 4.255 0 003 2.885 12.547 12.547 0 004.321.308l1.664-.075a9.945 9.945 0 004.132-.783 3.4 3.4 0 001.995-3.412c-.221-1.176-1.231-2.011-1.945-2.972a22.459 22.459 0 00-1.731-2.487 8.353 8.353 0 00-2.728-1.635"/><path data-name="パス 296" d="M77.909 51.1a1.817 1.817 0 001.919 1.469"/><path data-name="パス 297" d="M89.633 52.223a1.943 1.943 0 001.181-1.706"/><path data-name="パス 300" d="M82.698 62.84a3.309 3.309 0 00-1.145 1.785 9.7 9.7 0 00-.279 2.137c-.07 1.254-.077 2.668.8 3.562a3.968 3.968 0 002.58.933 5.2 5.2 0 002.954-.457c.5-.281.922-.7 1.433-.961 1.258-.65 2.769-.274 4.167-.05a2.524 2.524 0 001.124 0 1.784 1.784 0 001.107-1.209 4.379 4.379 0 00.1-1.692 4.322 4.322 0 00-.29-1.377 3.01 3.01 0 00-2.507-1.661 4.967 4.967 0 00-2.99.828c-.192.119-.379.247-.579.351"/><path data-name="パス 301" d="M87.932 62.713a.445.445 0 00-.083.282 6.667 6.667 0 00.708 3.337"/><path data-name="パス 302" d="M76.522 63.55a2.661 2.661 0 004.727 1.665"/><path data-name="パス 303" d="M87.705 64.244a.868.868 0 00.553.56 2.4 2.4 0 00.806.115 5.789 5.789 0 002.347-.3 3.269 3.269 0 001.972-2.667"/><path data-name="パス 304" d="M81.978 70.833a10.453 10.453 0 00-.226 5.168.4.4 0 00.158.254"/><path data-name="パス 305" d="M86.407 71.964a42.414 42.414 0 00-.005 4.663l.1-.162"/><path data-name="パス 306" d="M88.951 70.626a19.166 19.166 0 00-.293 3.587c0 .03.027.057.018.086s-.058-.017-.028-.013"/><path data-name="パス 307" d="M92.489 70.683a12.845 12.845 0 01.046 2.131l-.108 3.172c0 .04-.012.091-.051.1s-.033-.08 0-.053"/><path data-name="パス 308" d="M95.968 68.751c.078.016.088.122.08.2l-.357 3.465a.089.089 0 01-.033.076c-.025.015-.066-.017-.047-.039"/><path data-name="パス 309" d="M60.939 23.719a11.624 11.624 0 001.083 4.836 5.921 5.921 0 005.412 2.957"/><path data-name="パス 310" d="M67.134 29.181a4.172 4.172 0 00.57 1.983"/><path data-name="パス 311" d="M67.389 29.789a16.421 16.421 0 004.673 4.239"/><path data-name="パス 312" d="M60.525 24.613a24.407 24.407 0 00-4.75 5.591 4.288 4.288 0 00-.793 2.119"/><path data-name="パス 313" d="M55.089 32.085c-.075 3.15-.012 6.5 1.673 9.159"/><path data-name="パス 314" d="M71.889 34.297a34.953 34.953 0 01-.522 6.286"/><path data-name="パス 315" d="M71.171 24.102a6.53 6.53 0 012.61 4.674 10.42 10.42 0 01-1.009 5.361"/><path data-name="パス 316" d="M73.383 33.598a19.26 19.26 0 01-1.847 6.375"/><path data-name="パス 317" d="M52.346 29.413a21.317 21.317 0 00.625 6.708 9.808 9.808 0 003.744 5.471"/><path data-name="パス 318" d="M61.16 17.676a13.89 13.89 0 016.738 1.1 9.622 9.622 0 014.83 4.714 8.25 8.25 0 01.654 2.423"/><path data-name="パス 319" d="M60.552 17.874a7.474 7.474 0 00-4.91 1.58 12.628 12.628 0 00-4.268 12.711 17.849 17.849 0 001.27 2.8"/><path data-name="パス 320" d="M55.742 39.263a10.74 10.74 0 001.669 1.59 12.909 12.909 0 005.4 1.735 8.432 8.432 0 002.011.053 8.789 8.789 0 003.783-1.674c1.5-1.018 2.995-2.307 3.378-4.075"/><path data-name="パス 321" d="M61.189 38.226a1.1 1.1 0 00.529.9"/><path data-name="パス 322" d="M61.704 38.153l4.191-.076a.523.523 0 01.4.108.346.346 0 01.034.375 1.017 1.017 0 01-.253.306"/><path data-name="パス 323" d="M59.635 34.463a.148.148 0 000 .185"/><path data-name="パス 324" d="M67.929 34.68c-.036.014 0 .082.031.062"/><path data-name="パス 325" d="M51.435 41.294c-.023.3.263.524.519.682a7.148 7.148 0 002.931 1.179 4.222 4.222 0 002.8-.708"/><path data-name="パス 326" d="M51.189 41.182a11.957 11.957 0 00-2.208 3.531.568.568 0 00.155.751 7.578 7.578 0 006 2.35 1.748 1.748 0 001.457-.677"/><path data-name="パス 327" d="M68.051 42.077a30.1 30.1 0 011.5 5.323 46.8 46.8 0 003.168 9.081"/><path data-name="パス 328" d="M56.289 47.934l-3.147 10.491a.367.367 0 00.187.52 14.683 14.683 0 002.73 1.528 4.93 4.93 0 003.07.253"/><path data-name="パス 329" d="M63.573 51.583a13.633 13.633 0 01-1.3 3.653q-1.168 2.5-2.342 5"/><path data-name="パス 330" d="M63.725 52.061a44.68 44.68 0 003.819 7.83 1.114 1.114 0 00.434.466 1.025 1.025 0 00.444.066 5.757 5.757 0 003.538-1.3 1.964 1.964 0 00.868-2.043"/><path data-name="パス 331" d="M68.595 43.243l7.307 6.869a.5.5 0 01.2.536 4.343 4.343 0 01-.576 2.047 1.588 1.588 0 01-1.859.676"/><path data-name="パス 332" d="M73.44 53.382q-1.174-1.1-2.264-2.293"/><path data-name="パス 333" d="M76.675 51.835q.719.368 1.41.786"/><path data-name="パス 334" d="M74.767 54.013a5.746 5.746 0 003.309.342"/><path data-name="パス 335" d="M47.289 39.932a2.193 2.193 0 01.5-1.554.355.355 0 01.145-.116c.142-.047.277.081.368.2a12.285 12.285 0 011.51 2.985"/><path data-name="パス 336" d="M47.238 38.781a1.311 1.311 0 00-1.11-.174 1.294 1.294 0 00-.467.484 6.394 6.394 0 00-1.025 2.012c-.057.238-.115.522-.339.62a.888.888 0 00-.235.1c-.152.129-.036.377.1.527a7.236 7.236 0 003.544 2.036c.278.079.558.149.837.226"/><path data-name="パス 337" d="M58.183 61.307a3.1 3.1 0 00.373 1.111q.917 1.888 1.884 3.75a.448.448 0 00.207.234.44.44 0 00.166.017l2.139-.052a43.021 43.021 0 01.005-8.033.351.351 0 01.089-.242.346.346 0 01.224-.055q1.035-.008 2.067.087c.633 2.742.224 5.73 1.4 8.288a.227.227 0 00.093.119.231.231 0 00.1.015l2.224-.026 1.9-6.612-.047.164"/><path data-name="パス 338" d="M60.669 66.564a12.287 12.287 0 00-2.279 2.54.156.156 0 00-.038.1c.007.056.067.087.12.107a9.309 9.309 0 004.117.251.58.58 0 00.406-.147.554.554 0 00.1-.32 6.931 6.931 0 00-.083-1.8"/><path data-name="パス 339" d="M66.789 66.876a3.8 3.8 0 00-.244 1.79.707.707 0 00.236.453.868.868 0 00.424.128l1.573.191a6.184 6.184 0 002.658-.066 6.593 6.593 0 00-2.159-2.283"/><path data-name="パス 340" d="M9.961 20.697q6.8-1.192 13.7-1.78a8.07 8.07 0 001.277-.176.944.944 0 00.465-.228.722.722 0 00-.047-.925 1.991 1.991 0 00-.86-.513 23.269 23.269 0 00-4.146-1.135"/><path data-name="パス 341" d="M17.889 16.173a9.326 9.326 0 00-6.213 2.127 26.948 26.948 0 00-4.578 4.887 5.5 5.5 0 00-1.138 1.946"/><path data-name="パス 342" d="M6.351 25.893a1 1 0 00-1.095.026 1.766 1.766 0 00-.66.932 1.919 1.919 0 00-.022 1.317 1.15 1.15 0 001.019.749"/><path data-name="パス 343" d="M6.108 31.338a37.687 37.687 0 004.009 2.617 3.825 3.825 0 001.14.482"/><path data-name="パス 344" d="M5.729 31.853a12.405 12.405 0 01-1.338 3.29.6.6 0 00-.117.339.521.521 0 00.092.23 4.526 4.526 0 002.189 1.562 9.074 9.074 0 002.227.694 3.892 3.892 0 002.285-.295"/><path data-name="パス 345" d="M2.377 30.281l.968.483c.179.089.417.17.557.028.107-.11.1-.313.236-.387a.329.329 0 01.351.089 1.264 1.264 0 01.431.774"/><path data-name="パス 346" d="M1.61 30.158a2.064 2.064 0 00-.555 1.132c-.034.233-.027.472-.063.705a8.921 8.921 0 01-.439 1.3.551.551 0 00.027.522.557.557 0 00.2.133 6.457 6.457 0 002.984.632"/><path data-name="パス 347" d="M6.878 29.401a2.61 2.61 0 00.739 1.141 9.956 9.956 0 003.346 2.564 7.485 7.485 0 001.593.427 11.446 11.446 0 005.392-.406 2.828 2.828 0 001.606-1.043"/><path data-name="パス 348" d="M21.175 20.051a19.12 19.12 0 01.452 6.328 15.28 15.28 0 01-.153 1.888 7.747 7.747 0 01-1.35 3.256"/><path data-name="パス 349" d="M20.289 15.358a8.776 8.776 0 00-3.862-2.864 12.116 12.116 0 00-4.78-.756 8.56 8.56 0 00-2.418.381c-2.089.7-3.619 2.472-4.884 4.273a9.924 9.924 0 00-1.967 4.258 8.751 8.751 0 00.171 2.829 6.878 6.878 0 001.412 3.317"/><path data-name="パス 350" d="M11.529 25.776l-.111-.056"/><path data-name="パス 351" d="M18.921 24.795l.028.028"/><path data-name="パス 352" d="M14.395 29.472a2.218 2.218 0 00.826.182 4.087 4.087 0 00.93.008 1.418 1.418 0 00.828-.387"/><path data-name="パス 353" d="M18.83 33.728a21.272 21.272 0 012.947 8.971 3.422 3.422 0 01-.086 1.433 2.919 2.919 0 01-.875 1.184 7.935 7.935 0 01-4.247 1.85.842.842 0 00-.915.794 10.865 10.865 0 01-5.99 6.916.558.558 0 01-.233.064.579.579 0 01-.359-.2q-.552-.527-1.088-1.071a1.7 1.7 0 01-.526-.8 1.387 1.387 0 01.472-1.171 7.42 7.42 0 00.919-.935c.585-.868.3-2.033.472-3.065.146-.854.592-1.829.047-2.5-.219-.269-.559-.418-.774-.691a1.919 1.919 0 01-.3-1.119 14.807 14.807 0 01.639-5.028"/><path data-name="パス 354" d="M16.547 48.293a27.324 27.324 0 01.909 5.74l-.061-.237"/><path data-name="パス 355" d="M20.839 46.006c.344 2.516-.188 5.086.107 7.609a1.178 1.178 0 01-.078.778.931.931 0 01-.637.35 5.5 5.5 0 01-2.4-.263"/><path data-name="パス 356" d="M17.921 54.944a4.03 4.03 0 00.031 1.658.718.718 0 00.107.27.688.688 0 00.232.18 5.462 5.462 0 002.075.518 3.488 3.488 0 002.31-.312 15.338 15.338 0 00-1.8-2.122"/><path data-name="パス 357" d="M7.019 53.264a2.445 2.445 0 00-.977.588.655.655 0 00-.237.437.738.738 0 00.1.323 8.621 8.621 0 002.21 2.74.348.348 0 00.283.111c.12-.028.173-.167.206-.286q.216-.772.407-1.551"/><path data-name="パス 358" d="M20.194 36.464q1.593 1.324 3.12 2.723a1.594 1.594 0 01.337.384 1.635 1.635 0 01-.064 1.295 3.364 3.364 0 01-1.111 1.835"/><path data-name="パス 359" d="M24.258 40.313l.949.906c.191.183.4.44.292.681a.59.59 0 01-.248.239 1.587 1.587 0 01-1.784.073"/><path data-name="パス 360" d="M16.166 34.396a30.561 30.561 0 012.429 6.773c.373 1.622.546 3.526-.566 4.765l-.237-.1"/><path data-name="パス 361" d="M9.596 50.713a.144.144 0 00.152.1"/><path data-name="パス 362" d="M63.049 43.282a5.781 5.781 0 00.525 1.031l.246-.812"/><path data-name="パス 363" d="M43.248 14.672a13.076 13.076 0 00-.029-5.228 9.269 9.269 0 00-.755-2.578 7.759 7.759 0 00-1.867-2.3 10.938 10.938 0 00-7.343-2.839 8.39 8.39 0 00-6.822 3.659 9.713 9.713 0 00-1.082 2.44A14.2 14.2 0 0035.4 25.693a2.528 2.528 0 00.893.11 2.574 2.574 0 001.254-.621 15.71 15.71 0 005.8-9.713"/><path data-name="パス 364" d="M34.846 19.413a.378.378 0 00.57.017"/><path data-name="パス 365" d="M31.738 16.823a2.109 2.109 0 01-2.5.248 1.176 1.176 0 01-.43-.434 1.456 1.456 0 01-.126-.628 6.266 6.266 0 011.066-3.679 1.246 1.246 0 01.355-.38.906.906 0 011.007.123 2.108 2.108 0 01.586.9 6.641 6.641 0 01.445 3.058"/><path data-name="パス 366" d="M40.961 16.313a2.055 2.055 0 01-3.295-.793 4.027 4.027 0 01-.182-1.439 4.325 4.325 0 01.389-2.177.886.886 0 01.622-.494 1 1 0 01.713.325 5.406 5.406 0 011.776 3.549"/><path data-name="パス 367" d="M47.495 16.45a.9.9 0 00-1.62.784"/><path data-name="パス 368" d="M45.683 17.741a5.767 5.767 0 00-.929 1.007 38.943 38.943 0 01-3.708 4.042"/><path data-name="パス 369" d="M47.331 15.913a1.2 1.2 0 011.321-.836 1.687 1.687 0 011.263 1.044 2.882 2.882 0 01.108 1.686c-.176.878-.811 1.818-1.7 1.773a1.123 1.123 0 00-.422.007.764.764 0 00-.363.377c-1.626 2.781-2.863 5.867-5.146 8.139"/><path data-name="パス 370" d="M26.183 28.513a1.668 1.668 0 00-1.02.541 3.031 3.031 0 00-.751 1 1.458 1.458 0 000 1.216 1.689 1.689 0 00.654.64 1.974 1.974 0 001.928.169 2.63 2.63 0 00.913-1.054c.172-.3.337-.6.494-.905"/><path data-name="パス 371" d="M28.381 27.635a1.468 1.468 0 01.494.954 1.122 1.122 0 01.032.481.586.586 0 01-.518.442"/><path data-name="パス 372" d="M29.334 23.87a7.838 7.838 0 00-4.524.787 3.043 3.043 0 00-1.654 1.675 2.266 2.266 0 00-.086.705 2.847 2.847 0 00.842 1.932"/><path data-name="パス 373" d="M29.115 29.293a.791.791 0 00.657-.16"/><path data-name="パス 374" d="M31.014 28.442a2.081 2.081 0 00-.281 1q-.36 3.53-.609 7.071a12.932 12.932 0 00-.014 2.426 13.337 13.337 0 001 3.326"/><path data-name="パス 375" d="M42.415 28.804a34.6 34.6 0 012.581 9.923 5.613 5.613 0 01.009 1.564"/><path data-name="パス 376" d="M31.162 42.455l.3 4.809a12.974 12.974 0 01.036 1.564c-.05.879.075 3.135-.72 3.848a12.585 12.585 0 00-1.425 1.586c-.147.186-.294.443-.167.643a.524.524 0 00.316.192 4.335 4.335 0 002.092-.084q1.128-.245 2.237-.567a.509.509 0 00.437-.4 14.81 14.81 0 00.891-4.262 13.358 13.358 0 01.138-1.7c.091-.492.262-.966.4-1.447a11.38 11.38 0 00.41-4.034q1.872-.027 3.743 0a.5.5 0 01.3.067.512.512 0 01.158.311l1.321 5.509c.166.692.332 1.385.431 2.09.158 1.133-.034 3.167.8 3.954.559.529 1.442.337 2.2.491a9.6 9.6 0 002.224-.246c.686-.4-.379-1.662-.681-2.318a21.058 21.058 0 01-.922-1.96 7.74 7.74 0 01-.338-1.951 22.381 22.381 0 01.1-4.221"/></g></g></svg>