<svg xmlns="http://www.w3.org/2000/svg" width="91.904" height="19.822"><g data-name="グループ 413"><path data-name="パス 7127" d="M5.058 2C6.369 1.425 7.244.781 7.887.781c.621 0 1.472.713 1.472 1.172 0 2.921-2.3 10-3.84 13.89.045 0 3.243-5.266 4.323-6.83C13.383 3.862 16.58-.001 19.66-.001a1.09 1.09 0 011.106.759c0 .207-.553.23-1.219.529-2.3.989-4.739 3.012-8.44 8.094a80.766 80.766 0 00-6.049 9.75.977.977 0 01-.919.69c-.575 0-1.539-.552-1.539-.989 0-.253 1.148-3.426 2.23-6.784a42.185 42.185 0 002.023-9.543c0-.069-.023-.092-.091-.092a.725.725 0 00-.186.046C3.633 3.678 1.195 5.932.776 7.265c-.252 0-.781-1.1-.781-2.138C0 4.392 3.656 2.6 5.058 2z"/><path data-name="パス 7128" d="M20.377 3.564c2.023-.644 4.9-1.081 5.748-1.287.322-.069.553-1.127.875-1.127.529 0 1.31 1.379 1.31 1.931a.292.292 0 01-.023.138c-1.77 4.346-7.564 15.982-10.67 15.982a2.823 2.823 0 01-2.322-2.415c0-1.471 2.92-2.9 3.082-2.9.092 0 .137.046.137.092 0 .115-1.838 2-1.838 2.575a1.078 1.078 0 00.941 1.035c1.082 0 5.565-7.243 7.934-13.636a2.337 2.337 0 00.068-.276c0-.092-.045-.115-.113-.115a23.158 23.158 0 00-5.7 2.369 1.9 1.9 0 00-.828 1.172c-.391 0-.76-.9-.76-1.4a1.877 1.877 0 01.07-.506c.272-1.011 1.536-1.448 2.089-1.632z"/><path data-name="パス 7129" d="M40.984 2.414A5.4 5.4 0 0142.318.69a.958.958 0 01.414-.069 1.65 1.65 0 011.2 1.219c0 .437-3.127 3.955-4.278 7.634-.023.069-.047.092-.068.092-.207 0-.621-.782-.621-1.541a11.491 11.491 0 011.264-4.139h-.231c-2.459 0-8.416 5.8-8.736 7.726 0 .3 3.035.207 4.345.345a8.692 8.692 0 013.748 1.15 1.617 1.617 0 01.8 1.242c0 1.173-6.623 5.1-9.566 5.1a1.469 1.469 0 01-1.586-1.472c0-.322.23-1.035.482-1.035.3 0 .322.575.944.575 2.781 0 8.253-2.805 8.253-3.817 0-.483-2.044-.46-3.011-.46-1.494 0-3.082.138-3.932.138a1.981 1.981 0 01-1.908-2.069c0-3.8 7.978-9.612 10.049-9.612.068 0 .136.023.183.023a1.529 1.529 0 01.921.694z"/><path data-name="パス 7130" d="M50.533 3.564c2.024-.644 4.9-1.081 5.748-1.287.322-.069.551-1.127.873-1.127.53 0 1.311 1.379 1.311 1.931a.3.3 0 01-.022.138c-1.771 4.346-7.566 15.982-10.67 15.982a2.822 2.822 0 01-2.322-2.415c0-1.471 2.92-2.9 3.08-2.9.092 0 .139.046.139.092 0 .115-1.84 2-1.84 2.575a1.079 1.079 0 00.943 1.035c1.08 0 5.565-7.243 7.934-13.636a2.824 2.824 0 00.068-.276c0-.092-.047-.115-.115-.115a23.253 23.253 0 00-5.7 2.369 1.923 1.923 0 00-.828 1.172c-.391 0-.758-.9-.758-1.4a1.957 1.957 0 01.068-.506c.271-1.011 1.536-1.448 2.091-1.632z"/><path data-name="パス 7131" d="M70.146 1.932a.431.431 0 01-.252.413c-2.966 1.472-8.025 9.543-8.025 14.119a.786.786 0 00.713.851c1.7 0 7.818-8.945 7.818-12.716a.891.891 0 00-.138-.552 10.746 10.746 0 00-3.379 4.208c-.162.391-.3.8-.414.8-.092 0-.231-.276-.162-.8.322-2.161 2.806-5.726 4.093-5.726.575 0 .873.759.9 1.081a.962.962 0 01.851 1.012c0 4.162-6.99 14.05-9.382 14.05a3.369 3.369 0 01-2.852-3.426c0-5.634 6.463-14.165 8.83-14.165.757 0 1.399.319 1.399.851z"/><path data-name="パス 7132" d="M84.5 1.656c.574 0 1.586.552 1.586 1.126-.115.874-2.16 4.346-2.967 5.887 2.047-2.391 5.957-5.749 6.83-5.749.852 0 1.955.9 1.955 1.472 0 .966-6.668 10.325-6.668 13.59 0 .46.092.782.3.782a5.709 5.709 0 001.518-1.058.508.508 0 01.275-.138c.047 0 .068.023.068.046 0 .437-1.31 2.07-1.724 2.07a1.922 1.922 0 01-2.069-2.093c0-3.955 5.68-11.934 5.68-13.13 0-.046 0-.069-.023-.069-.553 0-5.727 4.507-9.91 11.888-.323.575-.8 1.61-1.2 2.346-.666 0-1.426-1.058-1.426-1.748 0-1.471 7.383-13.153 7.383-14.073 0-.046-.023-.069-.047-.069-1.586 0-6.185 2.737-7.15 5.059a.143.143 0 01-.139.092c-.39 0-.736-.85-.736-1.471-.003-1.748 6.597-4.76 8.464-4.76z"/></g></svg>