<svg xmlns="http://www.w3.org/2000/svg" width="187.843" height="77.481" viewBox="0 0 187.843 77.481">
  <g id="_2fのコピー" data-name="2fのコピー" transform="translate(-588.77 -5797.205)">
    <g id="bのコピー_5" data-name="bのコピー 5">
      <path id="パス_46" data-name="パス 46" d="M658.736,5810.6a1.5,1.5,0,0,0-.372-.943c-1.67-1.97-3.433-3.786-5.939-4.636a13.409,13.409,0,0,0-7.62-.228c-4.793,1.331-7.813,5.908-8.566,10.626-.645,4.042,0,9.2,3.948,11.41a12.724,12.724,0,0,0,6.961,1.265,11.344,11.344,0,0,0,6.615-2.642,14.967,14.967,0,0,0,4.174-6.775,38.428,38.428,0,0,0,1.089-4.318C659.316,5812.956,659.559,5811.805,658.736,5810.6Z" fill="#e8e1d6"/>
      <path id="パス_47" data-name="パス 47" d="M722.638,5813.02c-1-1.119-2.028-2.168-2.96-3.353a16.489,16.489,0,0,0-3.067-3.181,6.4,6.4,0,0,0-7.1-.675,1.354,1.354,0,0,0-.886-.225c-4.033.255-8.868,1.251-11.5,4.585a18.943,18.943,0,0,0-4.392,11.748c.018,1.622,2.689,2.125,2.946.4a9.794,9.794,0,0,1,.476-1.861,7.761,7.761,0,0,0,1.266,1.288,1.521,1.521,0,0,0,2.507-.662,10.927,10.927,0,0,1,1.237-3.185,9.869,9.869,0,0,1,.933-1.332c.046-.055.1-.1.144-.158a9.728,9.728,0,0,1,.22,1.017,12.448,12.448,0,0,0,.678,2.348,10.03,10.03,0,0,0,3.023,4,1.515,1.515,0,0,0,2.507-1.46,7.053,7.053,0,0,1,.061-2.292c.011-.058.087-.273.167-.51a11.59,11.59,0,0,0,2.207,2.268c1.933,1.6,4.78,2.57,6.147,4.745a1.524,1.524,0,0,0,2.591,0c.958-1.283,2.518-.283,3.557-1.242.946-.872,1.114-2.745,1.24-3.94C724.949,5818.491,724.613,5815.228,722.638,5813.02Z" fill="#e8e1d6"/>
      <path id="パス_48" data-name="パス 48" d="M690.694,5856.732c-.876-1.136-2.923-.942-4.145-.641a3.358,3.358,0,0,1-1.917.211,13.116,13.116,0,0,1-2.261-.838,1.647,1.647,0,0,0-.81-.15c-.069-.062-.139-.121-.208-.183a6.582,6.582,0,0,1-.76-.724,9.377,9.377,0,0,0,2.512-2.044,4.345,4.345,0,0,0-.034-4.476,16.919,16.919,0,0,0-3.6-3.883,6.016,6.016,0,0,0-4.26-1.77c-3.539.131-5.794,3.076-7.2,6-.737,1.529-1.5,3.149-.219,4.622a9.2,9.2,0,0,0,4.159,2.469,4.637,4.637,0,0,0-.51.96,2.385,2.385,0,0,0,.434,1.981,6.164,6.164,0,0,0,3.614,2.241,9.419,9.419,0,0,0,4.819-.27,2.832,2.832,0,0,1,2.258-.079,14.388,14.388,0,0,0,2.212.7,6.591,6.591,0,0,0,4.445-.5C690.471,5859.692,691.774,5858.131,690.694,5856.732Z" fill="#e8e1d6"/>
      <path id="パス_49" data-name="パス 49" d="M619.987,5814.876a1.362,1.362,0,0,0-.265-.116c-1.254-2.243-2.358-4.532-4.832-5.876-3.648-1.981-8.409-1.847-12.316-.8-3.987,1.07-7.423,3.31-9.084,7.2-1.749,4.09-1.309,8.557-.528,12.82.405,2.208.824,4.206,2.847,5.478.837.526,1.515.766,1.958,1.7a5.754,5.754,0,0,0,1.79,2.466c1.194.893,2.356-.58,2.2-1.694a25.709,25.709,0,0,1,4.455-18.03c.018-.025.026-.05.042-.076.053.134.1.278.154.453a19.354,19.354,0,0,0,3.858,6.848c1.609,1.762,3.938,1.936,5.4-.058.166-.227.326-.459.49-.687a1.537,1.537,0,0,1,.125.128,4.9,4.9,0,0,0,.891.629,24.405,24.405,0,0,0,3.628,2c.781.352,2.036.153,2.2-.9C623.665,5822.227,623.961,5817.458,619.987,5814.876Z" fill="#e8e1d6"/>
      <path id="パス_50" data-name="パス 50" d="M770.737,5825.953a16.57,16.57,0,0,0-2.016-8.138,1.421,1.421,0,0,0-1.2-.72,15.126,15.126,0,0,0-4.885-4.839c-1.994-1.32-4.521-2.62-6.976-2.024a4.777,4.777,0,0,0-2.091,1.113,11.172,11.172,0,0,0-10.744,5.011,20.431,20.431,0,0,0-2.509,7.429,22.234,22.234,0,0,0,.7,8.62c.4,1.724,2.836,1.22,2.947-.4.088-1.3-.17-3.341.646-4.368.057-.072.106-.144.161-.216a1.725,1.725,0,0,0,1.936-1.472,10.881,10.881,0,0,1,2.306-6.053c.174-.117.341-.244.521-.353l.339-.2c.035-.009.049-.019.079-.029.015.085.038.166.05.252l-.015.094c-.143.872-.3,1.744-.414,2.621a4.57,4.57,0,0,0,1.369,4.4,2.922,2.922,0,0,0,3.539.162c1.462.25,3.324.321,3.927-1.25.331-.864,0-1.823.115-2.723a5.309,5.309,0,0,1,.208-.9,34.9,34.9,0,0,0,3.544,4.1,3.05,3.05,0,0,0,1.932.83,33.211,33.211,0,0,1,.579,5.32c.044,1.175.372,2.414,1.628,2.82,1.3.419,2.467-.513,3.134-1.535C770.962,5831.332,770.817,5828.43,770.737,5825.953Zm-3.054,3.727c-.03-.362-.058-.724-.1-1.085-.074-.581-.169-1.156-.278-1.727a1.293,1.293,0,0,0,.5.319A15.5,15.5,0,0,1,767.683,5829.68Z" fill="#e8e1d6"/>
      <path id="パス_51" data-name="パス 51" d="M698.636,5837.05a1.518,1.518,0,0,0-.689-.9,1.458,1.458,0,0,0-1.156-.151,5.28,5.28,0,0,0-1.263.659,6.352,6.352,0,0,0-.655.54,6.168,6.168,0,0,0-.562.673,4.792,4.792,0,0,0-.533.935,1.021,1.021,0,0,0-.176.244.238.238,0,0,1-.027.016l.012,0a1.523,1.523,0,0,0-.572.44,1.409,1.409,0,0,0-.322.909,2.137,2.137,0,0,0,.558,1.422,1.687,1.687,0,0,0,2.063.257,3.1,3.1,0,0,0,1.068-1.811,5.072,5.072,0,0,1,.4-.709,3.942,3.942,0,0,1,.419-.414,3.825,3.825,0,0,1,.643-.373l-.182.076a1.57,1.57,0,0,0,.822-.656A1.531,1.531,0,0,0,698.636,5837.05Z" fill="#e8e1d6"/>
      <path id="パス_52" data-name="パス 52" d="M721.606,5838.566a22.747,22.747,0,0,1-2.573-2.744,2.508,2.508,0,0,1-.152-.244,1.506,1.506,0,0,0-1.478-1.292,1.525,1.525,0,0,0-1.5,1.5,2.666,2.666,0,0,0,.309,1.2,4.391,4.391,0,0,0,.531.756q.413.53.855,1.034a22.59,22.59,0,0,0,1.886,1.907,1.581,1.581,0,0,0,1.061.44,1.529,1.529,0,0,0,1.061-.44,1.5,1.5,0,0,0,0-2.121Z" fill="#e8e1d6"/>
      <path id="パス_53" data-name="パス 53" d="M716.782,5844.975a1.531,1.531,0,0,0-2.053-.538c-1.953,1-4.269.833-6.393.743-1.223-.051-2.448-.091-3.67-.164a5.434,5.434,0,0,1-2.871-.789,1.515,1.515,0,0,0-2.052.538,1.424,1.424,0,0,0-.194.655c-.014.02-.031.037-.043.058a1.527,1.527,0,0,0,.538,2.052,10.352,10.352,0,0,0,4.569,1.506,28.612,28.612,0,0,0,5.094.233,28.115,28.115,0,0,0,4.98-.644C716.359,5848.242,717.757,5846.712,716.782,5844.975Z" fill="#e8e1d6"/>
      <path id="パス_54" data-name="パス 54" d="M703.67,5867a1.494,1.494,0,0,0-.385-.662l-.3-.235a1.488,1.488,0,0,0-.757-.2h-.7a1.133,1.133,0,0,0-.578.129,1.354,1.354,0,0,0-.793.793,1.127,1.127,0,0,0-.129.578l.054.4a1.491,1.491,0,0,0,.386.662l.3.235a1.489,1.489,0,0,0,.757.205h.7a1.131,1.131,0,0,0,.578-.13,1.115,1.115,0,0,0,.483-.31,1.664,1.664,0,0,0,.439-1.06Z" fill="#e8e1d6"/>
      <path id="パス_55" data-name="パス 55" d="M769.955,5837.059a1.509,1.509,0,0,0-1.818-.235c-1.923,1.332-3.9,2.588-5.929,3.747q-1.422.812-2.878,1.561a9.8,9.8,0,0,1-2.617,1.213,1.455,1.455,0,0,0-.986-.1l-.142.033a1.616,1.616,0,0,0-.127-.118c-1.824-1.385-4.079-1.8-6.205-2.51-2.564-.859-3.838-2.839-5.4-4.928a1.52,1.52,0,0,0-2.591,0,27.862,27.862,0,0,0-2.012,4.736,1.51,1.51,0,0,0,.69,1.693c2.459,1.231,4.977,2.335,7.528,3.359a2.784,2.784,0,0,1,.152.413c.412,1.529-.694,3.645-1.271,5.028-.735,1.76-1.613,3.461-2.5,5.15a1.507,1.507,0,0,0,2.356,1.818c1.756-1.423,3.509-2.85,5.226-4.32a1.509,1.509,0,0,0,.566,1.986,7.34,7.34,0,0,0,3.529.621c1.138-.019,2.273-.1,3.4-.228a1.632,1.632,0,0,0,1.061-.439,1.523,1.523,0,0,0,.439-1.061c-.032-.735-.665-1.6-1.5-1.5q-1.576.183-3.164.223c-.48.012-.962.022-1.442-.013l-.159-.013c-.169-.019-.141-.015.084.014-.058.027-.255-.047-.31-.06-.1-.024-.2-.051-.3-.084-.026-.008-.052-.018-.077-.027l-.048-.024a1.679,1.679,0,0,0-1.3-.072c.744-.648,1.485-1.3,2.207-1.972q.686-.638,1.355-1.292c.152-.148.3-.3.452-.448.1.153.206.3.313.435a16.686,16.686,0,0,0,1.356,1.448c1.011.971,2.1,1.855,3.071,2.872,1.837,1.932,3.2,4.228,5.561,5.6,1.7.983,3.063-1.489,1.515-2.59-1.769-1.258-2.682-3.392-3.514-5.322q-.775-1.8-1.536-3.6c-.164-.389-.581-1.09-.368-1.355.279-.344,1.417-.4,1.813-.474,2.447-.479,4.11-1.911,5.924-3.541.728-.654,1.836-1.4,1.822-2.507C772.173,5838.961,770.706,5837.876,769.955,5837.059Z" fill="#e8e1d6"/>
    </g>
    <g id="sのコピー_5" data-name="sのコピー 5">
      <g id="グループ_22" data-name="グループ 22">
        <path id="パス_56" data-name="パス 56" d="M695.958,5816.812a3.657,3.657,0,0,0-.091,1.83,7.349,7.349,0,0,0,2.911,4.713c.1.073.321.016.232-.068" fill="none" stroke="#5d7248" stroke-miterlimit="10" stroke-width="1"/>
        <path id="パス_57" data-name="パス 57" d="M702.405,5815.675a26.458,26.458,0,0,0-3.011,7.184.386.386,0,0,0,0,.272c.043.082.182.11.224.027" fill="none" stroke="#5d7248" stroke-miterlimit="10" stroke-width="1"/>
        <path id="パス_58" data-name="パス 58" d="M702.661,5815.935a10.271,10.271,0,0,0,4.944,9.158c.2.12.483.226.657.066" fill="none" stroke="#5d7248" stroke-miterlimit="10" stroke-width="1"/>
        <path id="パス_59" data-name="パス 59" d="M709,5818.826a16.76,16.76,0,0,0-.639,6.139" fill="none" stroke="#5d7248" stroke-miterlimit="10" stroke-width="1"/>
        <path id="パス_60" data-name="パス 60" d="M709.1,5818.725c1.467,2.527,3.247,5.11,5.958,6.2a8.716,8.716,0,0,1,1.631.709,2.776,2.776,0,0,1,1.191,2.581" fill="none" stroke="#5d7248" stroke-miterlimit="10" stroke-width="1"/>
        <path id="パス_61" data-name="パス 61" d="M718.634,5828.449a6.109,6.109,0,0,1,1.124-1.759,1.656,1.656,0,0,1,1.838-.5,3.964,3.964,0,0,1,.977.711c.355.376.419.344.6.827a1.841,1.841,0,0,1-.033,1.5c-.034.064-.91,1.464-.9,1.392" fill="none" stroke="#5d7248" stroke-miterlimit="10" stroke-width="1"/>
        <path id="パス_62" data-name="パス 62" d="M724.392,5836.56a9.706,9.706,0,0,0,1.884-.9,2.726,2.726,0,0,0,1.2-1.647,2.505,2.505,0,0,0-.363-1.744,5.013,5.013,0,0,0-1.244-1.318,3.994,3.994,0,0,0-1.405-.771.93.93,0,0,0-.886.13,1.024,1.024,0,0,0-.215.365,5.317,5.317,0,0,0-.31,1.15" fill="none" stroke="#5d7248" stroke-miterlimit="10" stroke-width="1"/>
        <path id="パス_63" data-name="パス 63" d="M722.972,5830.607a1.5,1.5,0,0,0-1.648.779,2.59,2.59,0,0,0-.134,1.917" fill="none" stroke="#5d7248" stroke-miterlimit="10" stroke-width="1"/>
        <path id="パス_64" data-name="パス 64" d="M713.918,5837.6a46.683,46.683,0,0,1,5.487-4.107,1.213,1.213,0,0,1,1.11-.261,1.144,1.144,0,0,1,.37.327c1.174,1.419,1.993,3.179,3.49,4.253a24.215,24.215,0,0,1-4.829,4.427,7.393,7.393,0,0,1-3.38,1.475,3.151,3.151,0,0,1-3.155-1.522" fill="none" stroke="#5d7248" stroke-miterlimit="10" stroke-width="1"/>
        <path id="パス_65" data-name="パス 65" d="M718.033,5835.172a19.7,19.7,0,0,0,3.651,4.468c.094.086.25.169.333.072" fill="none" stroke="#5d7248" stroke-miterlimit="10" stroke-width="1"/>
        <path id="パス_66" data-name="パス 66" d="M715.795,5836.472a3.445,3.445,0,0,0,.673,1.28l.946,1.311a6,6,0,0,0,2.311,2.214c.024.01.054.019.074,0s-.006-.06-.024-.041" fill="none" stroke="#5d7248" stroke-miterlimit="10" stroke-width="1"/>
        <path id="パス_67" data-name="パス 67" d="M695.594,5818.734c-.425,3.17.1,6.73.558,9.9a15.4,15.4,0,0,0,1.782,4.54,18.044,18.044,0,0,0,3.524,3.04,9.1,9.1,0,0,0,4.441,1.68,13.475,13.475,0,0,0,4.752-.426,67.635,67.635,0,0,0,7.15-2.9" fill="none" stroke="#5d7248" stroke-miterlimit="10" stroke-width="1"/>
        <path id="パス_68" data-name="パス 68" d="M708.945,5805.524a11.453,11.453,0,0,0-8.506,1.069,13.11,13.11,0,0,0-5.461,5.661,24.826,24.826,0,0,0-1.113,2.775,18.136,18.136,0,0,0-.677,2.238,10.881,10.881,0,0,0-.185,3.072,12.769,12.769,0,0,0,2.578,6.754c.058.076.116.186.053.257s-.165-.115-.073-.093" fill="none" stroke="#5d7248" stroke-miterlimit="10" stroke-width="1"/>
        <path id="パス_69" data-name="パス 69" d="M709.6,5805.374a11.939,11.939,0,0,1,4.319.29,11.417,11.417,0,0,1,2.1.6,10.422,10.422,0,0,1,3.316,2.452,19.344,19.344,0,0,1,4.96,8.47,15.92,15.92,0,0,1-1.234,10.278" fill="none" stroke="#5d7248" stroke-miterlimit="10" stroke-width="1"/>
        <path id="パス_70" data-name="パス 70" d="M703.84,5832.217a2.3,2.3,0,0,0,2.81.05" fill="none" stroke="#5d7248" stroke-miterlimit="10" stroke-width="1"/>
        <path id="パス_71" data-name="パス 71" d="M699.676,5826.556a.24.24,0,0,1-.124.144c-.033-.034-.07-.076-.061-.123s.095-.06.1-.013" fill="none" stroke="#5d7248" stroke-miterlimit="10" stroke-width="1"/>
        <path id="パス_72" data-name="パス 72" d="M710.971,5827.166a.222.222,0,0,1-.033.162.129.129,0,0,1-.045-.217.077.077,0,0,1-.011.1" fill="none" stroke="#5d7248" stroke-miterlimit="10" stroke-width="1"/>
        <path id="パス_73" data-name="パス 73" d="M701.533,5839.8a20.1,20.1,0,0,0-2.138,6.666,3.627,3.627,0,0,1-.191.891,3.907,3.907,0,0,1-.4.677,11.688,11.688,0,0,0-1.345,2.679,1.293,1.293,0,0,0,.261,1.586,12.617,12.617,0,0,0,2.583,2.319c.114.077.325.114.341-.023" fill="none" stroke="#5d7248" stroke-miterlimit="10" stroke-width="1"/>
        <path id="パス_74" data-name="パス 74" d="M700.933,5855.015a24.841,24.841,0,0,0,7.948.035,22.055,22.055,0,0,0,8.44-2.347,3.029,3.029,0,0,0,.637-.451,2.9,2.9,0,0,0,.221-3.167,12.208,12.208,0,0,1-1.27-3.113,4.286,4.286,0,0,0-.374-2.014" fill="none" stroke="#5d7248" stroke-miterlimit="10" stroke-width="1"/>
        <path id="パス_75" data-name="パス 75" d="M700.449,5855.241a66.451,66.451,0,0,1,.934,9.672,1.627,1.627,0,0,0,.142.763,1.471,1.471,0,0,0,1.382.532,7.008,7.008,0,0,0,1.206-.143,1.335,1.335,0,0,0,.567-.221,1.377,1.377,0,0,0,.331-.444c.549-1.023.9-2.142,1.438-3.169.837-1.591,2.134-2.966,2.6-4.7a5.445,5.445,0,0,0,2.606-.122,1.435,1.435,0,0,1,.587-.1,1.325,1.325,0,0,1,.591.3,11.24,11.24,0,0,0,3.545,1.882,12.209,12.209,0,0,0,5.639-.267,2.555,2.555,0,0,0,.039-2.872,5.788,5.788,0,0,1-4.459-3.681" fill="none" stroke="#5d7248" stroke-miterlimit="10" stroke-width="1"/>
        <path id="パス_76" data-name="パス 76" d="M722.639,5856.3a3.1,3.1,0,0,1,1.39.616A6.858,6.858,0,0,1,725.12,5858a1.018,1.018,0,0,1,.24.394.236.236,0,0,1,0,.129.279.279,0,0,1-.2.139,3.693,3.693,0,0,1-1.973.03" fill="none" stroke="#5d7248" stroke-miterlimit="10" stroke-width="1"/>
        <path id="パス_77" data-name="パス 77" d="M701.467,5866.243c-1.036.5-2.073,1-3.09,1.535-.146.077-.316.237-.224.374a7.953,7.953,0,0,0,5.064.324,1.084,1.084,0,0,0,.422-.186,1.134,1.134,0,0,0,.317-.666c.062-.286.113-.574.155-.863" fill="none" stroke="#5d7248" stroke-miterlimit="10" stroke-width="1"/>
        <path id="パス_78" data-name="パス 78" d="M702.051,5837.4a10.489,10.489,0,0,1-5.755-1.451.49.49,0,0,0-.315-.1.463.463,0,0,0-.218.134,26.06,26.06,0,0,0-2.642,2.795,4.5,4.5,0,0,0-.83,1.337,1.714,1.714,0,0,0,.137,1.517,2.207,2.207,0,0,0,.778.626,14.192,14.192,0,0,0,2.905,1.1,5.387,5.387,0,0,0,3.263.234" fill="none" stroke="#5d7248" stroke-miterlimit="10" stroke-width="1"/>
        <path id="パス_79" data-name="パス 79" d="M699.383,5837.543a24.857,24.857,0,0,0-1.815,2.053,6.033,6.033,0,0,0-1.51,3.149c0,.041,0,.091.036.11s.078-.053.037-.06" fill="none" stroke="#5d7248" stroke-miterlimit="10" stroke-width="1"/>
        <path id="パス_80" data-name="パス 80" d="M694.8,5835.435a3.01,3.01,0,0,0-.836-.583,6.1,6.1,0,0,0-2.43-.414.416.416,0,0,0-.3.067.4.4,0,0,0-.1.181q-.3.894-.558,1.8a4.09,4.09,0,0,0-.214,1.412,2.221,2.221,0,0,0,1.257,1.808" fill="none" stroke="#5d7248" stroke-miterlimit="10" stroke-width="1"/>
        <path id="パス_81" data-name="パス 81" d="M706.269,5838.763q-.633,2.482-1.124,5a15.231,15.231,0,0,0-.322,2.333c-.026.684.033,1.369-.013,2.052-.072,1.064-.4,2.095-.545,3.151a4.426,4.426,0,0,0,.49,3.09" fill="none" stroke="#5d7248" stroke-miterlimit="10" stroke-width="1"/>
        <path id="パス_82" data-name="パス 82" d="M699.735,5847.811a18.132,18.132,0,0,0,6,2.059,16.8,16.8,0,0,0,2.331.013c3.114-.137,6.413-.461,8.9-2.342l-.1-.254" fill="none" stroke="#5d7248" stroke-miterlimit="10" stroke-width="1"/>
        <path id="パス_83" data-name="パス 83" d="M700.6,5844c2.561,1.466,5.672,1.542,8.619,1.374a17.743,17.743,0,0,0,5.921-1.122" fill="none" stroke="#5d7248" stroke-miterlimit="10" stroke-width="1"/>
        <path id="パス_84" data-name="パス 84" d="M751.13,5817.127a10.22,10.22,0,0,0-.726,9.4,1.575,1.575,0,0,0,.367.572,1.591,1.591,0,0,0,.782.3,14.141,14.141,0,0,0,7.538-.691" fill="none" stroke="#5d7248" stroke-miterlimit="10" stroke-width="1"/>
        <path id="パス_85" data-name="パス 85" d="M758.721,5821.9a11.3,11.3,0,0,0,.4,4.617l.092-.249" fill="none" stroke="#5d7248" stroke-miterlimit="10" stroke-width="1"/>
        <path id="パス_86" data-name="パス 86" d="M759.187,5821.795q.515,1.074,1.075,2.124a7.4,7.4,0,0,0,.975,1.5,7.1,7.1,0,0,0,3.038,1.756" fill="none" stroke="#5d7248" stroke-miterlimit="10" stroke-width="1"/>
        <path id="パス_87" data-name="パス 87" d="M763.866,5822.937a29.572,29.572,0,0,0,.923,4.488" fill="none" stroke="#5d7248" stroke-miterlimit="10" stroke-width="1"/>
        <path id="パス_88" data-name="パス 88" d="M765.094,5827.668c-.011,2.7.425,5.409.109,8.091a10.33,10.33,0,0,0,3.553-7.644" fill="none" stroke="#5d7248" stroke-miterlimit="10" stroke-width="1"/>
        <path id="パス_89" data-name="パス 89" d="M750.52,5818.114a12.7,12.7,0,0,0-3.666,8.274.688.688,0,0,1-.079.351.668.668,0,0,1-.24.193q-.942.532-1.935.972" fill="none" stroke="#5d7248" stroke-miterlimit="10" stroke-width="1"/>
        <path id="パス_90" data-name="パス 90" d="M745.066,5828.055c-.113-.043-.188.117-.2.237-.344,2.71-.632,5.565.421,8.085" fill="none" stroke="#5d7248" stroke-miterlimit="10" stroke-width="1"/>
        <path id="パス_91" data-name="パス 91" d="M741.372,5827.119a20.82,20.82,0,0,0,2.01,6.671,7.8,7.8,0,0,0,1.928,2.647" fill="none" stroke="#5d7248" stroke-miterlimit="10" stroke-width="1"/>
        <path id="パス_92" data-name="パス 92" d="M744.5,5835.785a4.871,4.871,0,0,0,1.7,3.258,14.447,14.447,0,0,0,3.175,2.017,23.822,23.822,0,0,0,3.84,1.456,6.222,6.222,0,0,0,3.568.275,48.236,48.236,0,0,0,4.942-1.695,9.831,9.831,0,0,0,2.72-1.717c1.057-1.036,1.475-4.333,1.513-4.352" fill="none" stroke="#5d7248" stroke-miterlimit="10" stroke-width="1"/>
        <path id="パス_93" data-name="パス 93" d="M741.134,5834.466a2.107,2.107,0,0,1,1.194.657l1.757,1.555a8.092,8.092,0,0,1,1.041,1.041" fill="none" stroke="#5d7248" stroke-miterlimit="10" stroke-width="1"/>
        <path id="パス_94" data-name="パス 94" d="M741.09,5834.579c-.437,2.393-.939,4.92-2.573,6.721a37.019,37.019,0,0,0,5.17,3.214,10.487,10.487,0,0,0,3.326,1.2,1.415,1.415,0,0,0,1-.141" fill="none" stroke="#5d7248" stroke-miterlimit="10" stroke-width="1"/>
        <path id="パス_95" data-name="パス 95" d="M765.223,5839.062l4.131-3.259a51.663,51.663,0,0,1,3.48,4.617,15.651,15.651,0,0,1-3.683,3.894,17.932,17.932,0,0,1-6.362,2.275l-.087-.231" fill="none" stroke="#5d7248" stroke-miterlimit="10" stroke-width="1"/>
        <path id="パス_96" data-name="パス 96" d="M748.611,5845.212c-.852,5.073-3.375,9.689-5.859,14.194a33.267,33.267,0,0,0,13.969-10.516" fill="none" stroke="#5d7248" stroke-miterlimit="10" stroke-width="1"/>
        <path id="パス_97" data-name="パス 97" d="M756.8,5849.064a3.268,3.268,0,0,0,.7,1.39c2.419,3.337,4.947,6.772,8.523,8.821a5.165,5.165,0,0,0,2.787.845" fill="none" stroke="#5d7248" stroke-miterlimit="10" stroke-width="1"/>
        <path id="パス_98" data-name="パス 98" d="M762.622,5846.5a32.313,32.313,0,0,0,6.914,13.349" fill="none" stroke="#5d7248" stroke-miterlimit="10" stroke-width="1"/>
        <path id="パス_99" data-name="パス 99" d="M767.882,5832.784a.8.8,0,0,1,.576.495,1.956,1.956,0,0,1,.117.779,3.321,3.321,0,0,1-.036.536,2.261,2.261,0,0,1-2.137,1.837" fill="none" stroke="#5d7248" stroke-miterlimit="10" stroke-width="1"/>
        <path id="パス_100" data-name="パス 100" d="M741.575,5831.875a1.738,1.738,0,0,0,.328,1.516" fill="none" stroke="#5d7248" stroke-miterlimit="10" stroke-width="1"/>
        <path id="パス_101" data-name="パス 101" d="M739.055,5838.85a2.168,2.168,0,0,1-1.249-.394,9.061,9.061,0,0,1-2.138-1.772.592.592,0,0,1-.168-.29.609.609,0,0,1,.081-.333l1.11-2.43a1.046,1.046,0,0,1,.543-.637,1.16,1.16,0,0,1,.885.264c.273.164.636.3.89.109.082-.061.154-.156.256-.158a.313.313,0,0,1,.193.1,5.589,5.589,0,0,1,1.11,1.277" fill="none" stroke="#5d7248" stroke-miterlimit="10" stroke-width="1"/>
        <path id="パス_102" data-name="パス 102" d="M770.177,5835.674a9.167,9.167,0,0,1,.95-1.962c.111-.172.326-.361.489-.238.139.1.1.363.258.439a.34.34,0,0,0,.258-.023l1.028-.381a1.448,1.448,0,0,1,.629-.13c.441.043.734.462.966.84l1.263,2.068a.452.452,0,0,1,.094.282.441.441,0,0,1-.146.233,7.912,7.912,0,0,1-3.535,2.05" fill="none" stroke="#5d7248" stroke-miterlimit="10" stroke-width="1"/>
        <path id="パス_103" data-name="パス 103" d="M753.384,5811.274a9.432,9.432,0,0,0-7.4,1.529,12.753,12.753,0,0,0-1.317,1.1,14.088,14.088,0,0,0-4.022,6.2,18.37,18.37,0,0,0-.51,2.685c-.447,3.38-.578,7.041,1.192,9.955" fill="none" stroke="#5d7248" stroke-miterlimit="10" stroke-width="1"/>
        <path id="パス_104" data-name="パス 104" d="M754.351,5811.047a7.611,7.611,0,0,1,7.275.069,15.545,15.545,0,0,1,5.862,5.257c.441.715.863,1.48,1.268,2.216a27.87,27.87,0,0,1,1.771,5.028,14.94,14.94,0,0,1,.632,6.444,10.317,10.317,0,0,1-.389,1.874,7.986,7.986,0,0,1-1.645,2.893" fill="none" stroke="#5d7248" stroke-miterlimit="10" stroke-width="1"/>
        <path id="パス_105" data-name="パス 105" d="M749.29,5831.285a.62.62,0,0,1-.049-.415.282.282,0,0,1,.141.138.106.106,0,1,1-.111-.162.111.111,0,1,1-.073.2c.045-.051.145.021.112.08" fill="none" stroke="#5d7248" stroke-miterlimit="10" stroke-width="1"/>
        <path id="パス_106" data-name="パス 106" d="M760.736,5830.542c-.034-.012-.059.052-.025.066s.061-.049.028-.065l-.005.233c0,.019,0,.041-.019.05s-.041-.014-.026-.025" fill="none" stroke="#5d7248" stroke-miterlimit="10" stroke-width="1"/>
        <path id="パス_107" data-name="パス 107" d="M752.038,5836.128a1.6,1.6,0,0,0,.43.832,2.446,2.446,0,0,0,.463.479,2.4,2.4,0,0,0,.57.272" fill="none" stroke="#5d7248" stroke-miterlimit="10" stroke-width="1"/>
        <path id="パス_108" data-name="パス 108" d="M752.274,5835.993a45.1,45.1,0,0,0,5.964,0,1.54,1.54,0,0,1-.732,1.408" fill="none" stroke="#5d7248" stroke-miterlimit="10" stroke-width="1"/>
        <path id="パス_109" data-name="パス 109" d="M750.964,5859.43a3.03,3.03,0,0,0,1.415.754,21.357,21.357,0,0,0,7.785.869" fill="none" stroke="#5d7248" stroke-miterlimit="10" stroke-width="1"/>
        <path id="パス_110" data-name="パス 110" d="M765.246,5859.675l-.091,4.663" fill="none" stroke="#5d7248" stroke-miterlimit="10" stroke-width="1"/>
        <path id="パス_111" data-name="パス 111" d="M759.331,5861.509a32.839,32.839,0,0,1,3.474,8.294.844.844,0,0,0,.367.6.81.81,0,0,0,.4.039l1.968-.14a26.036,26.036,0,0,0,0-4.978c-.013-.14-.062-.317-.2-.331" fill="none" stroke="#5d7248" stroke-miterlimit="10" stroke-width="1"/>
        <path id="パス_112" data-name="パス 112" d="M763.432,5870.957a1.759,1.759,0,0,0-.755,1.428.226.226,0,0,0,.043.157.25.25,0,0,0,.133.056,7.269,7.269,0,0,0,3.249.137c.153-.04.335-.135.324-.292a.373.373,0,0,0-.083-.178l-.605-.847a.556.556,0,0,0-.277-.244" fill="none" stroke="#5d7248" stroke-miterlimit="10" stroke-width="1"/>
        <path id="パス_113" data-name="パス 113" d="M748.317,5857.533c.547,3.7.942,8.352,1.489,12.049a.6.6,0,0,0,.177.412.555.555,0,0,0,.228.084,6.168,6.168,0,0,0,2.411-.189.817.817,0,0,0,.3-.107.8.8,0,0,0,.249-.6c.241-2.311.275-5.711,1.343-7.774" fill="none" stroke="#5d7248" stroke-miterlimit="10" stroke-width="1"/>
        <path id="パス_114" data-name="パス 114" d="M750.291,5870.672q-1.068,1.044-2.177,2.044a2.024,2.024,0,0,0,1.726.4c.6-.092,1.19-.31,1.8-.345a2.758,2.758,0,0,0,.6-.06.591.591,0,0,0,.432-.386.836.836,0,0,0-.018-.365l-.192-.953" fill="none" stroke="#5d7248" stroke-miterlimit="10" stroke-width="1"/>
        <path id="パス_115" data-name="パス 115" d="M751.143,5855.471a9.26,9.26,0,0,0,2.436.515,18.414,18.414,0,0,0,6.8-.038" fill="none" stroke="#5d7248" stroke-miterlimit="10" stroke-width="1"/>
        <path id="パス_116" data-name="パス 116" d="M753.429,5852.857a8.969,8.969,0,0,0,2.614.108,5.7,5.7,0,0,0,2.174.013c.048-.017.1-.053.144-.023s-.063.079-.039.034" fill="none" stroke="#5d7248" stroke-miterlimit="10" stroke-width="1"/>
        <path id="パス_117" data-name="パス 117" d="M673.246,5855.561a12.4,12.4,0,0,1-4.722-1.425,3.31,3.31,0,0,1-1.849-1.515,3.252,3.252,0,0,1-.1-1.839,12.088,12.088,0,0,1,4.63-7.594,7.88,7.88,0,0,1,1.616-.96,5.918,5.918,0,0,1,3.643-.315,4.969,4.969,0,0,1,1.7.734,7.407,7.407,0,0,1,1.061.94,25.349,25.349,0,0,1,3.926,5.239,5.954,5.954,0,0,1,.738,1.786,3.431,3.431,0,0,1-1.006,3.084,5.5,5.5,0,0,1-2.044,1.1,14.248,14.248,0,0,1-7.1.79" fill="none" stroke="#5d7248" stroke-miterlimit="10" stroke-width="1"/>
        <path id="パス_118" data-name="パス 118" d="M667.592,5841.156a2.493,2.493,0,0,0,.378,1.346,4.445,4.445,0,0,0,1.394,1.779" fill="none" stroke="#5d7248" stroke-miterlimit="10" stroke-width="1"/>
        <path id="パス_119" data-name="パス 119" d="M681.31,5840.885a2.813,2.813,0,0,1-.929,2.763" fill="none" stroke="#5d7248" stroke-miterlimit="10" stroke-width="1"/>
        <path id="パス_120" data-name="パス 120" d="M672.3,5847.84l-.082.276.039-.139" fill="none" stroke="#5d7248" stroke-miterlimit="10" stroke-width="1"/>
        <path id="パス_121" data-name="パス 121" d="M676.774,5847.881a.481.481,0,0,1,.129.366" fill="none" stroke="#5d7248" stroke-miterlimit="10" stroke-width="1"/>
        <path id="パス_122" data-name="パス 122" d="M681.386,5855.232a6.491,6.491,0,0,1,3.729,1.292.636.636,0,0,0,.445.187" fill="none" stroke="#5d7248" stroke-miterlimit="10" stroke-width="1"/>
        <path id="パス_123" data-name="パス 123" d="M685.08,5856.3a8.835,8.835,0,0,1,4.045-.4,2.72,2.72,0,0,1,2.031,1.037,2.555,2.555,0,0,1-.573,2.851,6.052,6.052,0,0,1-7.643,1.135,4.5,4.5,0,0,0-1.029-.588c-.95-.3-1.92.3-2.87.6a8.218,8.218,0,0,1-5.715-.788,4.594,4.594,0,0,1-2.263-1.725,1.805,1.805,0,0,1,.59-2.5l-.139-.386" fill="none" stroke="#5d7248" stroke-miterlimit="10" stroke-width="1"/>
        <path id="パス_124" data-name="パス 124" d="M663.828,5853.176a5.586,5.586,0,0,0,7.362,5.256" fill="none" stroke="#5d7248" stroke-miterlimit="10" stroke-width="1"/>
        <path id="パス_125" data-name="パス 125" d="M672.842,5860.163a8.886,8.886,0,0,1-1.81,6.577l.118-.215" fill="none" stroke="#5d7248" stroke-miterlimit="10" stroke-width="1"/>
        <path id="パス_126" data-name="パス 126" d="M676.918,5861.564l-.1,1.612c-.032.517-.064,1.035-.144,1.548a8.5,8.5,0,0,1-1.5,3.661l0,0" fill="none" stroke="#5d7248" stroke-miterlimit="10" stroke-width="1"/>
        <path id="パス_127" data-name="パス 127" d="M680.491,5861.269a15.569,15.569,0,0,1-.253,5.9l.088-.228" fill="none" stroke="#5d7248" stroke-miterlimit="10" stroke-width="1"/>
        <path id="パス_128" data-name="パス 128" d="M684.15,5862.107a12.528,12.528,0,0,1,.209,5.567l.029-.157" fill="none" stroke="#5d7248" stroke-miterlimit="10" stroke-width="1"/>
        <path id="パス_129" data-name="パス 129" d="M688.1,5862.01a7.253,7.253,0,0,1-.023,3.614" fill="none" stroke="#5d7248" stroke-miterlimit="10" stroke-width="1"/>
        <path id="パス_130" data-name="パス 130" d="M640.057,5830.862a7.031,7.031,0,0,1,4.609.716,1.875,1.875,0,0,1,.6.455,1.914,1.914,0,0,1,.322.792,8.142,8.142,0,0,1,.189,1.677,1.988,1.988,0,0,1-.135.853.806.806,0,0,1-.663.5" fill="none" stroke="#5d7248" stroke-miterlimit="10" stroke-width="1"/>
        <path id="パス_131" data-name="パス 131" d="M638.192,5827.642a4.67,4.67,0,0,0-2.588,2.068,3.608,3.608,0,0,0-.69,2.02,2.977,2.977,0,0,0,1.015,2.045,6.032,6.032,0,0,0,2.024,1.153,12.78,12.78,0,0,0,6.98.543" fill="none" stroke="#5d7248" stroke-miterlimit="10" stroke-width="1"/>
        <path id="パス_132" data-name="パス 132" d="M657.414,5822.5c-2.167,2.282-4.5,4.665-7.548,5.452a13.459,13.459,0,0,1-3.719.322,21.958,21.958,0,0,1-7.179-1.262,13.275,13.275,0,0,1-5.889-4.193,18.92,18.92,0,0,1-1.5-2.371,14.309,14.309,0,0,1-1.136-2.434,13.694,13.694,0,0,1-.363-5.547c.357-3.863,1.327-7.879,3.99-10.7a13.116,13.116,0,0,1,6.756-3.652,21.261,21.261,0,0,1,7.751-.1,14.032,14.032,0,0,1,5.42,1.8,12.01,12.01,0,0,1,4.956,7.993,31.886,31.886,0,0,1-.046,9.634,9.167,9.167,0,0,1-1.48,4.743" fill="none" stroke="#5d7248" stroke-miterlimit="10" stroke-width="1"/>
        <path id="パス_133" data-name="パス 133" d="M641.82,5827.849a9.142,9.142,0,0,1-3.647-3.207,12.978,12.978,0,0,1-1.976-4.1,10.028,10.028,0,0,1-.108-2.956c.216-2.521.542-5.448,1.813-7.635s2.279-3.791,4.592-4.817a12.494,12.494,0,0,1,10.883.389,16.565,16.565,0,0,1,3.558,2.971,10.135,10.135,0,0,1,2.375,5.943" fill="none" stroke="#5d7248" stroke-miterlimit="10" stroke-width="1"/>
        <path id="パス_134" data-name="パス 134" d="M651.217,5835.258a5.448,5.448,0,0,1-5.167-3.442.284.284,0,0,1,.121-.419,5.839,5.839,0,0,1,3.7-.907,7.543,7.543,0,0,1,3.6,1.33,1.936,1.936,0,0,1,.791.865,1.545,1.545,0,0,1-.206,1.288,2.673,2.673,0,0,1-2.35,1.273" fill="none" stroke="#5d7248" stroke-miterlimit="10" stroke-width="1"/>
        <path id="パス_135" data-name="パス 135" d="M646.065,5835.227c.006.192.224.3.412.336a2.618,2.618,0,0,0,1.572-.155" fill="none" stroke="#5d7248" stroke-miterlimit="10" stroke-width="1"/>
        <path id="パス_136" data-name="パス 136" d="M651.933,5828.051a4.563,4.563,0,0,1,1.3,3.178" fill="none" stroke="#5d7248" stroke-miterlimit="10" stroke-width="1"/>
        <path id="パス_137" data-name="パス 137" d="M652.133,5836.06a11.976,11.976,0,0,1,1.24,4.967,5,5,0,0,1-.076,1.167,4.036,4.036,0,0,1-1.525,2.3,7.952,7.952,0,0,1-2.519,1.236,15.693,15.693,0,0,1-6.759.6" fill="none" stroke="#5d7248" stroke-miterlimit="10" stroke-width="1"/>
        <path id="パス_138" data-name="パス 138" d="M636.625,5834.912a21.748,21.748,0,0,0,.425,9.608c.746,2.716,2.026,5.308,2.31,8.11.007.068.025.15.089.17s.11-.111.042-.106" fill="none" stroke="#5d7248" stroke-miterlimit="10" stroke-width="1"/>
        <path id="パス_139" data-name="パス 139" d="M642.71,5846.875l-.035,6.163c0,.11-.013.241-.11.293a.31.31,0,0,1-.142.025l-2.311.046" fill="none" stroke="#5d7248" stroke-miterlimit="10" stroke-width="1"/>
        <path id="パス_140" data-name="パス 140" d="M647.9,5846.854a15.638,15.638,0,0,1,1.025,5.562,15.376,15.376,0,0,0,2.735-.11.186.186,0,0,0,.193-.22q.351-4.032.832-8.051" fill="none" stroke="#5d7248" stroke-miterlimit="10" stroke-width="1"/>
        <path id="パス_141" data-name="パス 141" d="M639.787,5853.8a2.112,2.112,0,0,1-.442.794,4.85,4.85,0,0,0-.76,1.647,8.9,8.9,0,0,0,3.673.089.537.537,0,0,0,.271-.107.516.516,0,0,0,.126-.344,3.337,3.337,0,0,0-.25-1.57" fill="none" stroke="#5d7248" stroke-miterlimit="10" stroke-width="1"/>
        <path id="パス_142" data-name="パス 142" d="M649.444,5852.9a1.989,1.989,0,0,0-.218,1.35.687.687,0,0,0,.145.337.84.84,0,0,0,.525.2,12.681,12.681,0,0,0,4.3.082,18.955,18.955,0,0,1-2.249-2.208" fill="none" stroke="#5d7248" stroke-miterlimit="10" stroke-width="1"/>
        <path id="パス_143" data-name="パス 143" d="M635.691,5838.058a2.8,2.8,0,0,0-.78.444.939.939,0,0,0-.34.8c.069.5.62.758,1.1.9a10.952,10.952,0,0,0,4.011.373,5.862,5.862,0,0,0,3.938-1.72" fill="none" stroke="#5d7248" stroke-miterlimit="10" stroke-width="1"/>
        <path id="パス_144" data-name="パス 144" d="M650.522,5838.767a1.986,1.986,0,0,0,.757.461,5.8,5.8,0,0,0,1.428.453,2.946,2.946,0,0,0,1.5-.193c.147-.061.307-.155.337-.312a.486.486,0,0,0-.243-.433,2.384,2.384,0,0,0-.907-.431" fill="none" stroke="#5d7248" stroke-miterlimit="10" stroke-width="1"/>
        <path id="パス_145" data-name="パス 145" d="M606.639,5817.932a5.8,5.8,0,0,0,.605,3.159,14.638,14.638,0,0,0,2.165,3.92,5.99,5.99,0,0,0,3.78,2.228c.29.033.662-.013.75-.291" fill="none" stroke="#5d7248" stroke-miterlimit="10" stroke-width="1"/>
        <path id="パス_146" data-name="パス 146" d="M614.477,5826.554a3.769,3.769,0,0,1,.8-1.063" fill="none" stroke="#5d7248" stroke-miterlimit="10" stroke-width="1"/>
        <path id="パス_147" data-name="パス 147" d="M616.089,5825.174a8.171,8.171,0,0,0,5.458,2.738c.309.024.7-.018.807-.306" fill="none" stroke="#5d7248" stroke-miterlimit="10" stroke-width="1"/>
        <path id="パス_148" data-name="パス 148" d="M617.652,5812.947a9.943,9.943,0,0,1,4.957,14.261" fill="none" stroke="#5d7248" stroke-miterlimit="10" stroke-width="1"/>
        <path id="パス_149" data-name="パス 149" d="M606.283,5819.014q-1.236,1.5-2.437,3.033a12.357,12.357,0,0,0-1.671,2.551,11.6,11.6,0,0,0-.783,3.755c-.3,3.607-.264,7.344,1.082,10.705" fill="none" stroke="#5d7248" stroke-miterlimit="10" stroke-width="1"/>
        <path id="パス_150" data-name="パス 150" d="M595.885,5825.08a18.876,18.876,0,0,0,.979,7.238,16.884,16.884,0,0,0,2.11,4.753,7.739,7.739,0,0,0,4.053,3.13" fill="none" stroke="#5d7248" stroke-miterlimit="10" stroke-width="1"/>
        <path id="パス_151" data-name="パス 151" d="M620.645,5813.97c-2.418-2.773-5.07-5.692-8.645-6.561a17.862,17.862,0,0,0-4.065-.352,26.366,26.366,0,0,0-4.6.222,13.255,13.255,0,0,0-4.8,1.809,14.98,14.98,0,0,0-6.568,10,19.617,19.617,0,0,0,1.831,11.972,8.977,8.977,0,0,0,4.144,4.594" fill="none" stroke="#5d7248" stroke-miterlimit="10" stroke-width="1"/>
        <path id="パス_152" data-name="パス 152" d="M602.268,5837.313a14.24,14.24,0,0,0,8.175,3.95,10.082,10.082,0,0,0,2.994-.125,23.987,23.987,0,0,0,5.959-3.947,6.889,6.889,0,0,0,1.116-1.211,6.556,6.556,0,0,0,.762-1.695,18.213,18.213,0,0,0,.863-6.079l-.2.093" fill="none" stroke="#5d7248" stroke-miterlimit="10" stroke-width="1"/>
        <path id="パス_153" data-name="パス 153" d="M607.728,5829.044a.363.363,0,0,1-.156-.133.127.127,0,0,1,.05-.176.19.19,0,0,1,.13.259.147.147,0,0,1-.259-.026c-.024-.109.169-.182.211-.078s-.125.218-.117.343" fill="none" stroke="#5d7248" stroke-miterlimit="10" stroke-width="1"/>
        <path id="パス_154" data-name="パス 154" d="M618.948,5829.39a.1.1,0,0,1-.041.173.559.559,0,0,1-.129-.438l.159.237c-.068-.027-.006-.157.058-.121" fill="none" stroke="#5d7248" stroke-miterlimit="10" stroke-width="1"/>
        <path id="パス_155" data-name="パス 155" d="M611.87,5834.822a1.384,1.384,0,0,0,.724.435,3.738,3.738,0,0,0,1.408.29,3.7,3.7,0,0,0,1.143-.317" fill="none" stroke="#5d7248" stroke-miterlimit="10" stroke-width="1"/>
        <path id="パス_156" data-name="パス 156" d="M601.51,5840.839q-4.677,2.691-9.169,5.691c.986,1.418,2.862,2.208,3.38,3.856.02.064.044.137.106.163a.229.229,0,0,0,.161-.016,18.787,18.787,0,0,0,7.335-4.879,8.015,8.015,0,0,0,1.655-2.441c.033-.084-.033-.232-.089-.163" fill="none" stroke="#5d7248" stroke-miterlimit="10" stroke-width="1"/>
        <path id="パス_157" data-name="パス 157" d="M592.515,5847.8a7.887,7.887,0,0,0-1.844.52,2.658,2.658,0,0,0-1.358,1.3.342.342,0,0,0-.03.251.39.39,0,0,0,.182.166,4.109,4.109,0,0,1,1.595,1.7.318.318,0,0,0,.148.175.3.3,0,0,0,.166,0,5.58,5.58,0,0,0,1.734-.675c.108-.065.25-.133.35-.056s.1.219.208.241c.068.013.13-.039.18-.088l1.1-1.075" fill="none" stroke="#5d7248" stroke-miterlimit="10" stroke-width="1"/>
        <path id="パス_158" data-name="パス 158" d="M622.548,5841.249a12.942,12.942,0,0,1,1.35-.886.885.885,0,0,1,.388-.144c.339-.013.583.371.554.709a1.812,1.812,0,0,1-.447.9" fill="none" stroke="#5d7248" stroke-miterlimit="10" stroke-width="1"/>
        <path id="パス_159" data-name="パス 159" d="M621.553,5841.925a6.118,6.118,0,0,1,1.552,4.491c-.654.253-1.236.66-1.873.953a5.95,5.95,0,0,1-5.957-.653,1.079,1.079,0,0,1-.362-.4" fill="none" stroke="#5d7248" stroke-miterlimit="10" stroke-width="1"/>
        <path id="パス_160" data-name="パス 160" d="M615.921,5841.208c-.054-.02-.057.08-.02.125a1.9,1.9,0,0,0,.414.338,8.479,8.479,0,0,0,1.521.87,2.841,2.841,0,0,0,1.717.178,2.115,2.115,0,0,0,1.019-.593" fill="none" stroke="#5d7248" stroke-miterlimit="10" stroke-width="1"/>
        <path id="パス_161" data-name="パス 161" d="M614.278,5844.426a60.824,60.824,0,0,0,4.751,17.268,2.527,2.527,0,0,1,.316,1.247c-.044.431-.413.863-.843.807" fill="none" stroke="#5d7248" stroke-miterlimit="10" stroke-width="1"/>
        <path id="パス_162" data-name="パス 162" d="M600.158,5848.845a103.849,103.849,0,0,1-6.188,11.572,21.274,21.274,0,0,0,10.984,4.521,1.453,1.453,0,0,0,.788-.069,1.4,1.4,0,0,0,.511-.521,21.917,21.917,0,0,0,1.766-3.509c.936-2.174,1.873-4.351,2.642-6.591q2.031,5.025,4.18,10a.912.912,0,0,0,.251.385.855.855,0,0,0,.531.123,5.366,5.366,0,0,0,2.768-.808" fill="none" stroke="#5d7248" stroke-miterlimit="10" stroke-width="1"/>
        <path id="パス_163" data-name="パス 163" d="M599.891,5852.911a24.845,24.845,0,0,0,4.467,2.155c.165.06.351.139.407.305a.589.589,0,0,1-.013.311,5.7,5.7,0,0,1-.687,1.925,1.943,1.943,0,0,1-1.708.954" fill="none" stroke="#5d7248" stroke-miterlimit="10" stroke-width="1"/>
        <path id="パス_164" data-name="パス 164" d="M624.307,5835.644a.946.946,0,0,0-.141.673q.084,1.815.225,3.628l.015-.423" fill="none" stroke="#5d7248" stroke-miterlimit="10" stroke-width="1"/>
        <path id="パス_165" data-name="パス 165" d="M624.851,5842.066a24.9,24.9,0,0,0,.969,6.092,32.037,32.037,0,0,1,7.65-.874l-.1-.263" fill="none" stroke="#5d7248" stroke-miterlimit="10" stroke-width="1"/>
        <path id="パス_166" data-name="パス 166" d="M624.63,5835.545q4.125-.5,8.231-1.129a48.054,48.054,0,0,0,.427,6.807l.609,5.519" fill="none" stroke="#5d7248" stroke-miterlimit="10" stroke-width="1"/>
        <path id="パス_167" data-name="パス 167" d="M608.081,5862.574l1.584.281a23.65,23.65,0,0,0,1.473,7.193.629.629,0,0,0,.265.345.64.64,0,0,0,.318.034l2.108-.132a23.412,23.412,0,0,1,.823-5.826" fill="none" stroke="#5d7248" stroke-miterlimit="10" stroke-width="1"/>
        <path id="パス_168" data-name="パス 168" d="M598.406,5863.716a52.436,52.436,0,0,1-2.181,6.382,13.354,13.354,0,0,0,2.289.751,24.911,24.911,0,0,0,4.911-5.558" fill="none" stroke="#5d7248" stroke-miterlimit="10" stroke-width="1"/>
        <path id="パス_169" data-name="パス 169" d="M611.457,5870.951q.21.891.457,1.774a1.1,1.1,0,0,0,.229.485,1.05,1.05,0,0,0,.635.245,7.877,7.877,0,0,0,3.294-.271c.076-.024.163-.058.185-.135s-.038-.156-.094-.216a13.229,13.229,0,0,0-2.151-1.856" fill="none" stroke="#5d7248" stroke-miterlimit="10" stroke-width="1"/>
        <path id="パス_170" data-name="パス 170" d="M595.913,5870.554a3.84,3.84,0,0,0-.857.866,1.335,1.335,0,0,0-.284.657,1.065,1.065,0,0,0,.406.856,2.642,2.642,0,0,0,.872.442,14.646,14.646,0,0,0,2.589.758c.074-.737.144-2.2-.428-2.862" fill="none" stroke="#5d7248" stroke-miterlimit="10" stroke-width="1"/>
        <path id="パス_171" data-name="パス 171" d="M771.5,5829.733a5.01,5.01,0,0,0,1.343,3.059" fill="none" stroke="#5d7248" stroke-miterlimit="10" stroke-width="1"/>
        <path id="パス_172" data-name="パス 172" d="M611.691,5842.077a1.37,1.37,0,0,0,.173.965,2.056,2.056,0,0,1,.322-.961" fill="none" stroke="#5d7248" stroke-miterlimit="10" stroke-width="1"/>
      </g>
    </g>
  </g>
</svg>
