<svg xmlns="http://www.w3.org/2000/svg" width="105.91" height="78.563" viewBox="0 0 105.91 78.563">
  <g id="b1fのコピー" transform="translate(-629.894 -3600.772)">
    <g id="bのコピー_2" data-name="bのコピー 2">
      <path id="パス_1329" data-name="パス 1329" d="M728.8,3609.035a6.445,6.445,0,0,0-3.231-4,14.432,14.432,0,0,0-5.8-.928,1.044,1.044,0,0,0-1.481-.161c-5.625-5.2-15.146-1.269-19.781,3.541a17.152,17.152,0,0,0-4.643,9.855,24.259,24.259,0,0,0,.058,6.336,5.188,5.188,0,0,0,2.129,3.991,1.03,1.03,0,0,0,1.212-.157,25.849,25.849,0,0,0,2.267-2.676c1.448-1.494,3.029.183,4.039,1.32a1,1,0,0,0,1.671-.441c.218-1.442.147-3.64,1.114-4.814a28.37,28.37,0,0,1,3.687-3.2q.932-.789,1.864-1.579a8.684,8.684,0,0,1,.933-.79.662.662,0,0,1,.734-.333c.331-.13.5-.012.5.357a5.789,5.789,0,0,1,.428,2.384,11.542,11.542,0,0,1-.2,2.862,1.015,1.015,0,0,0,1.23,1.23c2.989-.59,4.882-3.088,5.88-5.813a14.168,14.168,0,0,1,.643-2.154c.489-.155,1.468,1.161,1.745,1.487a11.223,11.223,0,0,1,2.239,4.417,1.013,1.013,0,0,0,1.828.239C730.091,3616.828,730.094,3612.594,728.8,3609.035Z" fill="#e8e1d6"/>
      <path id="パス_1330" data-name="パス 1330" d="M702.183,3633.344a1.532,1.532,0,0,0-.689-.9,1.513,1.513,0,0,0-1.156-.151,1.741,1.741,0,0,0-.9.69l-.216.283a36.661,36.661,0,0,1-3.566,3.959,1.448,1.448,0,0,0-.413.861,1.672,1.672,0,0,0,.178.956,1.563,1.563,0,0,0,.975.791,1.864,1.864,0,0,0,.779.05,2.231,2.231,0,0,0,1.062-.452,12.138,12.138,0,0,0,1.495-1.294,11.114,11.114,0,0,0,2.06-2.993,2.082,2.082,0,0,0,.184-.584c.017-.022.036-.042.052-.064A1.509,1.509,0,0,0,702.183,3633.344Z" fill="#e8e1d6"/>
      <path id="パス_1331" data-name="パス 1331" d="M729.961,3636.431a1.133,1.133,0,0,0-.268-.51,1.145,1.145,0,0,0-.421-.387c-.019-.01-.041-.016-.061-.026q-.453-.636-.9-1.272a1.68,1.68,0,0,0-.9-.69,1.149,1.149,0,0,0-.6-.027,1.121,1.121,0,0,0-.558.179,1.51,1.51,0,0,0-.689.9,1.477,1.477,0,0,0,.151,1.156l.87,1.223c.069.1.138.194.207.291a5.968,5.968,0,0,0,.427.574c.012.014.025.027.038.04l.17.132a1.776,1.776,0,0,0,.171.13c.069.038.147.065.219.1a1.785,1.785,0,0,0,.217.086,1.642,1.642,0,0,0,.847-.006,1.555,1.555,0,0,0,.675-.4,1.487,1.487,0,0,0,.431-.892A1.128,1.128,0,0,0,729.961,3636.431Z" fill="#e8e1d6"/>
      <path id="パス_1332" data-name="パス 1332" d="M725.554,3645.5c-1.073-1.328-2.672-1.417-4.231-1.067-1.766.4-3.51.816-5.3,1.081a58.56,58.56,0,0,1-6.019.561,10.845,10.845,0,0,1-5.415-.778c-1.555-.782-2.938,1.253-1.917,2.293-.445,1.076-.494,2.416.5,3.038a5.859,5.859,0,0,0,2.363.48c1.008.117,2.022.189,3.036.218a56.886,56.886,0,0,0,11.157-.951c.943-.159,1.883-.334,2.822-.517a14.248,14.248,0,0,0,2.616-.584C726.9,3648.567,726.519,3646.694,725.554,3645.5Z" fill="#e8e1d6"/>
      <path id="パス_1333" data-name="パス 1333" d="M734.427,3672.866a1.12,1.12,0,0,0-.178-.557l-.235-.3a1.507,1.507,0,0,0-.662-.386l-.4-.053a1.5,1.5,0,0,0-.758.205l-.952.589-.108.067-.025.019-.3.234-.033.032a1.2,1.2,0,0,0-.325.508.884.884,0,0,0-.109.405,1.135,1.135,0,0,0,.028.617,1.53,1.53,0,0,0,.391.674,1.557,1.557,0,0,0,.691.405,1.882,1.882,0,0,0,.209.028,1.641,1.641,0,0,0,.208.028,1.346,1.346,0,0,0,.209-.028c.07-.006.139-.015.208-.028a1.322,1.322,0,0,0,.373-.158c.106-.075.209-.154.309-.238l.151-.2.041-.025.553-.342a1.446,1.446,0,0,0,.716-1.5Z" fill="#e8e1d6"/>
      <path id="パス_1334" data-name="パス 1334" d="M707.8,3675.361a1.682,1.682,0,0,0-.9-.689,5.046,5.046,0,0,0-2.682.094,1.7,1.7,0,0,0-.619.383.839.839,0,0,0-.1.047,1.527,1.527,0,0,0-.689.9,1.734,1.734,0,0,0-.013.721,1.569,1.569,0,0,0,.045.561,1.75,1.75,0,0,0,.764,1,1.624,1.624,0,0,0,.708.241,1.709,1.709,0,0,0,.77-.047,2.164,2.164,0,0,0,.824-.485c.083-.07.161-.143.239-.217a1.554,1.554,0,0,1,.753-.3l.358-.152a1.127,1.127,0,0,0,.421-.386.748.748,0,0,0,.193-.33,1.132,1.132,0,0,0,.129-.579A1.774,1.774,0,0,0,707.8,3675.361Z" fill="#e8e1d6"/>
      <path id="パス_1335" data-name="パス 1335" d="M673.185,3635.962c-1.23-.89-2.416-.142-3.562.464a27.335,27.335,0,0,1-4.461,1.86,39.665,39.665,0,0,1-9.317,1.718,84.388,84.388,0,0,1-11.6-.074c-3.318-.224-7.107-.908-9.024-3.945a1.538,1.538,0,0,0-2.542-.051,1.272,1.272,0,0,0-.762.39c-2.037,2.258-.249,4.908,2.064,5.979.416.193.845.355,1.268.529a1.371,1.371,0,0,0-.142.342c-.307,1.219-.72,2.527-.028,3.7a3.927,3.927,0,0,0,2.717,1.687,5.792,5.792,0,0,0,3.751-.388,3.925,3.925,0,0,0,2.034-2.526,1.617,1.617,0,0,0,.024-.544,52.745,52.745,0,0,0,10.5.446c-.411.049-.829.093-1.266.131q-1.188.1-2.381.137c-.918.026-2.138-.188-2.806.59a2.217,2.217,0,0,0,.074,2.817,4.884,4.884,0,0,0,1.767,1.308,5.7,5.7,0,0,0,2.454.709,6.166,6.166,0,0,0,2.479-.565,16.821,16.821,0,0,0,2.394-1.243c.374-.234.742-.479,1.108-.726.505-.342,1.056-.679,1.189-1.325a1.762,1.762,0,0,0,.014-.22,1.446,1.446,0,0,0,.135-1.113,1.54,1.54,0,0,0-.673-.86q2.225-.244,4.441-.586a1.586,1.586,0,0,0-.578,1c-.006.018-.016.033-.022.052a2.651,2.651,0,0,0,.316,2.2,3.533,3.533,0,0,0,1.638,1.31,4.668,4.668,0,0,0,1.95.44,3.314,3.314,0,0,0,2.04-.785,4.217,4.217,0,0,0,1.2-1.86,6.765,6.765,0,0,0,1.309-3.09,1.608,1.608,0,0,0-.152-1.156,1.424,1.424,0,0,0-.164-.225c.115-.063.233-.119.346-.187C672.835,3641.162,675.955,3637.968,673.185,3635.962Z" fill="#e8e1d6"/>
    </g>
    <g id="sのコピー_2" data-name="sのコピー 2">
      <path id="パス_1336" data-name="パス 1336" d="M714.09,3614.853a4.778,4.778,0,0,1,.747,2.683,12.721,12.721,0,0,1-.877,4.971l-.04-.2" fill="none" stroke="#5d7248" stroke-miterlimit="10" stroke-width="1"/>
      <path id="パス_1337" data-name="パス 1337" d="M722.2,3613.686a6.433,6.433,0,0,1-1.782,5.246,14.5,14.5,0,0,1-6.156,3.53" fill="none" stroke="#5d7248" stroke-miterlimit="10" stroke-width="1"/>
      <path id="パス_1338" data-name="パス 1338" d="M722.256,3614a16.953,16.953,0,0,1,4.078,7.406c.037.153.213.341.3.213" fill="none" stroke="#5d7248" stroke-miterlimit="10" stroke-width="1"/>
      <path id="パス_1339" data-name="パス 1339" d="M718.52,3603.929a9.494,9.494,0,0,1,9.714,4.7,13.266,13.266,0,0,1,1.363,4.583,11.182,11.182,0,0,1,.047,3.2,7.388,7.388,0,0,1-2.124,4.123" fill="none" stroke="#5d7248" stroke-miterlimit="10" stroke-width="1"/>
      <path id="パス_1340" data-name="パス 1340" d="M718.323,3603.733a13.008,13.008,0,0,0-11.949-1.583,19.281,19.281,0,0,0-9.525,7.825,14.914,14.914,0,0,0-1.608,3.079,18.024,18.024,0,0,0-.868,4.8,23.331,23.331,0,0,0,.521,8.137l-.217-.367" fill="none" stroke="#5d7248" stroke-miterlimit="10" stroke-width="1"/>
      <path id="パス_1341" data-name="パス 1341" d="M692.814,3626.432l2.172,1.073a2.675,2.675,0,0,0,.647.251c.476.094,1.06-.046,1.382.317a1.382,1.382,0,0,1,.188.983c-.011.342.045.748.347.908" fill="none" stroke="#5d7248" stroke-miterlimit="10" stroke-width="1"/>
      <path id="パス_1342" data-name="パス 1342" d="M697.383,3630.325l-4.715,5.3" fill="none" stroke="#5d7248" stroke-miterlimit="10" stroke-width="1"/>
      <path id="パス_1343" data-name="パス 1343" d="M698.264,3629.715a42.331,42.331,0,0,0,9.17,7.746" fill="none" stroke="#5d7248" stroke-miterlimit="10" stroke-width="1"/>
      <path id="パス_1344" data-name="パス 1344" d="M692.44,3635.756a16.144,16.144,0,0,0,8.634,6.448" fill="none" stroke="#5d7248" stroke-miterlimit="10" stroke-width="1"/>
      <path id="パス_1345" data-name="パス 1345" d="M702.726,3634.577a34.524,34.524,0,0,1-4.962,5.388" fill="none" stroke="#5d7248" stroke-miterlimit="10" stroke-width="1"/>
      <path id="パス_1346" data-name="パス 1346" d="M699.513,3632.4a27.3,27.3,0,0,1-4.615,5.164l.375-.162" fill="none" stroke="#5d7248" stroke-miterlimit="10" stroke-width="1"/>
      <path id="パス_1347" data-name="パス 1347" d="M692.2,3626.55a3.172,3.172,0,0,0-.436,1.035,1.285,1.285,0,0,1-.113.364,1.08,1.08,0,0,1-.357.331l-1.285.869a1.018,1.018,0,0,0-.348.326,1.553,1.553,0,0,0-.089.655,1.454,1.454,0,0,1-.3.78c-.077.1-.174.207-.156.332a.4.4,0,0,0,.128.209,9.491,9.491,0,0,0,3.589,2.348" fill="none" stroke="#5d7248" stroke-miterlimit="10" stroke-width="1"/>
      <path id="パス_1348" data-name="パス 1348" d="M707.377,3637.387a32.542,32.542,0,0,0,7.572,2.2,15.941,15.941,0,0,0,4.089,0,8.656,8.656,0,0,0,3.771-2.017c5.327-4.339,5.756-10.353,5.4-17.666" fill="none" stroke="#5d7248" stroke-miterlimit="10" stroke-width="1"/>
      <path id="パス_1349" data-name="パス 1349" d="M713.889,3614.817c-1.752,3.351-5.124,3.244-7.312,6.328" fill="none" stroke="#5d7248" stroke-miterlimit="10" stroke-width="1"/>
      <path id="パス_1350" data-name="パス 1350" d="M701.767,3625.017a1.681,1.681,0,0,0-1.992-.434,2.551,2.551,0,0,0-1.328,1.667,3.521,3.521,0,0,0,.734,3.227c.027.03.065.063.1.049s.009-.092-.021-.064" fill="none" stroke="#5d7248" stroke-miterlimit="10" stroke-width="1"/>
      <path id="パス_1351" data-name="パス 1351" d="M706.243,3621.4a11.9,11.9,0,0,0-.483,5.094l-.016-.22" fill="none" stroke="#5d7248" stroke-miterlimit="10" stroke-width="1"/>
      <path id="パス_1352" data-name="パス 1352" d="M705.553,3627.289a3.96,3.96,0,0,1-3.268-2.351" fill="none" stroke="#5d7248" stroke-miterlimit="10" stroke-width="1"/>
      <path id="パス_1353" data-name="パス 1353" d="M713.774,3630.516a37.495,37.495,0,0,0,9.6-.491,6.869,6.869,0,0,1-.6,2.583,4.845,4.845,0,0,1-1.257,1.29" fill="none" stroke="#5d7248" stroke-miterlimit="10" stroke-width="1"/>
      <path id="パス_1354" data-name="パス 1354" d="M713.447,3630.393a3.718,3.718,0,0,0,.958,2.756,5.318,5.318,0,0,0,2.667,1.637" fill="none" stroke="#5d7248" stroke-miterlimit="10" stroke-width="1"/>
      <path id="パス_1355" data-name="パス 1355" d="M712.089,3626.041a.09.09,0,0,1-.136.064c0-.055.11-.05.108.006s-.107.054-.108,0" fill="none" stroke="#5d7248" stroke-miterlimit="10" stroke-width="1"/>
      <path id="パス_1356" data-name="パス 1356" d="M724.178,3625.376a.132.132,0,0,1,.121.184c-.058-.039-.136.066-.082.11s.142-.053.092-.1" fill="none" stroke="#5d7248" stroke-miterlimit="10" stroke-width="1"/>
      <path id="パス_1357" data-name="パス 1357" d="M727.57,3631.052a6.3,6.3,0,0,1,3.122,2.141,2.993,2.993,0,0,1,.724,1.719,3.729,3.729,0,0,1-1.071,2.3,22.409,22.409,0,0,1-5.2,4.826l-.2-.145" fill="none" stroke="#5d7248" stroke-miterlimit="10" stroke-width="1"/>
      <path id="パス_1358" data-name="パス 1358" d="M726.959,3633.388a8.216,8.216,0,0,1,2.982,2.8" fill="none" stroke="#5d7248" stroke-miterlimit="10" stroke-width="1"/>
      <path id="パス_1359" data-name="パス 1359" d="M725.8,3635.633a13.965,13.965,0,0,1,2.578,2.62" fill="none" stroke="#5d7248" stroke-miterlimit="10" stroke-width="1"/>
      <path id="パス_1360" data-name="パス 1360" d="M728.8,3628.28a.273.273,0,0,0,.381.157.791.791,0,0,0,.32-.342l.572-.936a.347.347,0,0,1,.15-.155.318.318,0,0,1,.173,0,3.31,3.31,0,0,1,1.879,1.058c.44.5.785,1.168,1.427,1.336a.448.448,0,0,1,.186.073c.1.087.082.249.052.38-.3,1.319-.685,2.767-1.814,3.51" fill="none" stroke="#5d7248" stroke-miterlimit="10" stroke-width="1"/>
      <path id="パス_1361" data-name="パス 1361" d="M701.892,3642.367a17.823,17.823,0,0,1,.8,4.647,5.993,5.993,0,0,1-1.628,4.308c-.443.426-1.021.85-1.024,1.465,0,.685.7,1.12,1.105,1.674a10.786,10.786,0,0,1,.842,2.273c.314.749,1.169,1.432,1.887,1.052" fill="none" stroke="#5d7248" stroke-miterlimit="10" stroke-width="1"/>
      <path id="パス_1362" data-name="パス 1362" d="M724.5,3642.9c1.668,1.6,1.563,4.4,3.073,6.159a7.928,7.928,0,0,1,1.327,1.554c.529,1.093,0,2.38-.533,3.474a5.711,5.711,0,0,1-2.288,2.882" fill="none" stroke="#5d7248" stroke-miterlimit="10" stroke-width="1"/>
      <path id="パス_1363" data-name="パス 1363" d="M703.74,3657.839a49.681,49.681,0,0,0,21.39-.705" fill="none" stroke="#5d7248" stroke-miterlimit="10" stroke-width="1"/>
      <path id="パス_1364" data-name="パス 1364" d="M719.154,3640.342l1.2,6.75a21.174,21.174,0,0,0,1.107,4.392,5.627,5.627,0,0,1,.662,2.239,3.384,3.384,0,0,1-.29,1.17,7.062,7.062,0,0,1-1.217,1.957" fill="none" stroke="#5d7248" stroke-miterlimit="10" stroke-width="1"/>
      <path id="パス_1365" data-name="パス 1365" d="M702.972,3644.768a7.7,7.7,0,0,0,2.6.55,56.6,56.6,0,0,0,19.077-1.656" fill="none" stroke="#5d7248" stroke-miterlimit="10" stroke-width="1"/>
      <path id="パス_1366" data-name="パス 1366" d="M702.333,3650.612a1.213,1.213,0,0,0,.946.538,40.215,40.215,0,0,0,23.207-2.327" fill="none" stroke="#5d7248" stroke-miterlimit="10" stroke-width="1"/>
      <path id="パス_1367" data-name="パス 1367" d="M727.607,3656.138a8.693,8.693,0,0,1-.886,4.006,6.912,6.912,0,0,1-2.3,2.167,16.956,16.956,0,0,1-10.3,2.619" fill="none" stroke="#5d7248" stroke-miterlimit="10" stroke-width="1"/>
      <path id="パス_1368" data-name="パス 1368" d="M713.586,3665.476a83.076,83.076,0,0,1-5.343,8.839l.152-.329" fill="none" stroke="#5d7248" stroke-miterlimit="10" stroke-width="1"/>
      <path id="パス_1369" data-name="パス 1369" d="M703.276,3675.059a5.45,5.45,0,0,1,3.408-.607c.69.1,1.462.456,1.593,1.141a1.358,1.358,0,0,1-.318,1.072,4.019,4.019,0,0,1-.871.751l-1.094.774a2.5,2.5,0,0,1-1.627.64,1.769,1.769,0,0,1-.768-.309,2.529,2.529,0,0,1-1.106-1.551,1.855,1.855,0,0,1,.567-1.773" fill="none" stroke="#5d7248" stroke-miterlimit="10" stroke-width="1"/>
      <path id="パス_1370" data-name="パス 1370" d="M702.814,3658.707l-.424,6.928c-.059.963-.118,1.928-.118,2.893a28.8,28.8,0,0,0,.2,3.243q.159,1.4.427,2.788" fill="none" stroke="#5d7248" stroke-miterlimit="10" stroke-width="1"/>
      <path id="パス_1371" data-name="パス 1371" d="M719.057,3665.371a48.95,48.95,0,0,0,8.932,8.722l-.28-.173" fill="none" stroke="#5d7248" stroke-miterlimit="10" stroke-width="1"/>
      <path id="パス_1372" data-name="パス 1372" d="M729.5,3674.483a3.409,3.409,0,0,1,1.629-2.239,5.96,5.96,0,0,1,1.89-1.044,2.376,2.376,0,0,1,2.073.3.561.561,0,0,1,.179.2.667.667,0,0,1-.122.586q-.7,1.212-1.474,2.373a2.7,2.7,0,0,1-.768.845,1.844,1.844,0,0,1-1.582.09,4.582,4.582,0,0,1-1.368-.888" fill="none" stroke="#5d7248" stroke-miterlimit="10" stroke-width="1"/>
      <path id="パス_1373" data-name="パス 1373" d="M726.909,3660.537a49.731,49.731,0,0,0,4.969,10.113" fill="none" stroke="#5d7248" stroke-miterlimit="10" stroke-width="1"/>
      <path id="パス_1374" data-name="パス 1374" d="M635.46,3637.283c2.511,2.208,5.951,3.015,9.274,3.377a54.323,54.323,0,0,0,19.026-1.537c2.367-.593,4.818-1.385,6.48-3.172" fill="none" stroke="#5d7248" stroke-miterlimit="10" stroke-width="1"/>
      <path id="パス_1375" data-name="パス 1375" d="M652.243,3614.5a16.107,16.107,0,0,0-15.578,9.738c-1.435,3.342-1.7,7.055-1.856,10.689l.182-.3" fill="none" stroke="#5d7248" stroke-miterlimit="10" stroke-width="1"/>
      <path id="パス_1376" data-name="パス 1376" d="M655.783,3614.749a9.337,9.337,0,0,1,5.446,2.279,27.789,27.789,0,0,1,4.053,4.42" fill="none" stroke="#5d7248" stroke-miterlimit="10" stroke-width="1"/>
      <path id="パス_1377" data-name="パス 1377" d="M666.787,3623.847l.108.054" fill="none" stroke="#5d7248" stroke-miterlimit="10" stroke-width="1"/>
      <path id="パス_1378" data-name="パス 1378" d="M668.027,3626.65a20.577,20.577,0,0,1,1.283,7.167" fill="none" stroke="#5d7248" stroke-miterlimit="10" stroke-width="1"/>
      <path id="パス_1379" data-name="パス 1379" d="M634.2,3634.159a7.2,7.2,0,0,0-2.826,2.014,3.751,3.751,0,0,0-.963,1.955,3.262,3.262,0,0,0,.717,2.289,7.347,7.347,0,0,0,1.843,1.61,24.948,24.948,0,0,0,9.038,3.532,49.075,49.075,0,0,0,9.723.744" fill="none" stroke="#5d7248" stroke-miterlimit="10" stroke-width="1"/>
      <path id="パス_1380" data-name="パス 1380" d="M651.733,3646.3a51.646,51.646,0,0,0,15.089-1.968,16.531,16.531,0,0,0,4.552-1.892,7.05,7.05,0,0,0,3.018-3.79,2.81,2.81,0,0,0,0-1.844,3.792,3.792,0,0,0-1.886-1.661" fill="none" stroke="#5d7248" stroke-miterlimit="10" stroke-width="1"/>
      <path id="パス_1381" data-name="パス 1381" d="M671.067,3643.5a4.478,4.478,0,0,1-1.614,4.971,5.8,5.8,0,0,1-5.343.65,4.54,4.54,0,0,1-1.761-1.079,2.774,2.774,0,0,1-.815-1.863" fill="none" stroke="#5d7248" stroke-miterlimit="10" stroke-width="1"/>
      <path id="パス_1382" data-name="パス 1382" d="M634.546,3643.49a3.552,3.552,0,0,0,.048,3.672,5.237,5.237,0,0,0,3.059,2.22,5.382,5.382,0,0,0,3.546-.1,3.75,3.75,0,0,0,2.269-2.629" fill="none" stroke="#5d7248" stroke-miterlimit="10" stroke-width="1"/>
      <path id="パス_1383" data-name="パス 1383" d="M646.519,3646.629a4.5,4.5,0,0,0,2.051,3.822,7.058,7.058,0,0,0,4.327,1.061,6.551,6.551,0,0,0,3.756-1.268,3.922,3.922,0,0,0,1.536-3.526" fill="none" stroke="#5d7248" stroke-miterlimit="10" stroke-width="1"/>
    </g>
  </g>
</svg>
