<svg xmlns="http://www.w3.org/2000/svg" width="41.936" height="56.891" viewBox="0 0 41.936 56.891">
  <path id="パス_6631" data-name="パス 6631" d="M218.009,2351a20.968,20.968,0,0,0-12.067,37.661l-6.8,14.484L206,2401.64l3.217,6.244,7.086-15.08a20.723,20.723,0,0,0,4.632,0l7.084,15.08,3.218-6.244,6.862,1.507-6.809-14.483A20.967,20.967,0,0,0,218.009,2351Zm.083,8.36a12.613,12.613,0,1,1,1.044,25.2c-.173.008-.346.011-.52.011a12.612,12.612,0,0,1-.524-25.218Zm.525,4.4a8.2,8.2,0,1,0,8.2,8.2h0A8.2,8.2,0,0,0,218.617,2363.761Z" transform="translate(-197.651 -2350.993)" fill="#e8e1d6"/>
</svg>
