<svg xmlns="http://www.w3.org/2000/svg" width="126.847" height="76.81" viewBox="0 0 126.847 76.81">
  <g id="_1fのコピー" data-name="1fのコピー" transform="translate(-619.15 -4728.33)">
    <g id="bのコピー_3" data-name="bのコピー 3">
      <path id="パス_2178" data-name="パス 2178" d="M653.017,4737.331c-2.111-2.824-5.163-5.515-8.9-5.4a1.633,1.633,0,0,0-.2.026,16.529,16.529,0,0,0-9.294-2.2c-3.764.113-6.557,2.212-9.088,4.808-2.675,2.744-4.635,5.546-4.955,9.467a26.412,26.412,0,0,0,.265,5.475,28.983,28.983,0,0,0,.965,5.317c1.329,4.082,4.921,7.058,8.036,9.807a1.535,1.535,0,0,0,2.522-1.566,1.447,1.447,0,0,0,1.215-1.867,20.537,20.537,0,0,1,3.723-18.151,8.494,8.494,0,0,1,1.536-1.7c.772-.566.97-.248,1.348.449a14.443,14.443,0,0,0,2.958,3.887,7.449,7.449,0,0,0,4.191,2.227,9.962,9.962,0,0,0,2.73-.305c.49-.094,1.524-.347,1.868.192.561.878,2.15,1.114,2.648,0C656.182,4744.228,655.306,4740.394,653.017,4737.331Zm-24.664,20.061c-.168.066-.259-.018-.274-.25a4.04,4.04,0,0,1-.583-1.352,4.99,4.99,0,0,1-.352-3.176c.46-1.249.891-.149,1.058.615.217,1,.289,2.03.461,3.035.073.426.163.846.257,1.266A1.888,1.888,0,0,0,628.353,4757.392Z" fill="#e8e1d6"/>
      <path id="パス_2179" data-name="パス 2179" d="M734.082,4734.7c-1.863-2.505-4.25-4.68-7.37-5.4a11.324,11.324,0,0,0-8.618,1.459c-1.856-.576-4.073.109-5.758.884a15.383,15.383,0,0,0-5.6,4.617c-2.907,3.75-3.846,9.321.422,12.475a1.54,1.54,0,0,0,2.252-.917,14.927,14.927,0,0,1,1.218-3.756c.128-.258.538-1.309.911-1.407a3.046,3.046,0,0,1,.417.621,8.447,8.447,0,0,0,4.43,4.338c.986.4,1.889-.594,1.941-1.479a17.69,17.69,0,0,1,.372-2.816c.019-.095.047-.188.07-.282.287.2.691.466.729.5a33.753,33.753,0,0,0,3.84,2.686,15.574,15.574,0,0,0,4.337,1.431c1.689.388,2.585,2.542,3.254,3.983a1.545,1.545,0,0,0,2.408.31.322.322,0,0,1,.512.219c.389,1.608,2.437,1.292,2.956,0C739.125,4746.4,737.726,4739.6,734.082,4734.7Z" fill="#e8e1d6"/>
      <path id="パス_2180" data-name="パス 2180" d="M710.743,4771.931a6.389,6.389,0,0,1,.189-.84,1.534,1.534,0,0,0-2.957-.815,7.414,7.414,0,0,0-.312,2.432,1.217,1.217,0,0,0-.112.295c-.029.128-.059.256-.088.384a1.552,1.552,0,0,0,.549,1.612,1.456,1.456,0,0,0,.726.3,1.508,1.508,0,0,0,.692-.082l.061-.008-.1.04a.924.924,0,0,1,.179-.052,1.489,1.489,0,0,0,.915-.563,1.565,1.565,0,0,0,.274-1.337c-.007-.036-.011-.072-.017-.107A6.252,6.252,0,0,1,710.743,4771.931Z" fill="#e8e1d6"/>
      <path id="パス_2181" data-name="パス 2181" d="M736.547,4768.772a2.475,2.475,0,0,1-.126-.456,6.841,6.841,0,0,1,.04-1.2q.09-.813.184-1.623a1.527,1.527,0,0,0-.45-1.084,1.533,1.533,0,0,0-2.168,0l-.24.31a1.533,1.533,0,0,0-.209.774c-.078.693-.175,1.387-.228,2.083a4.672,4.672,0,0,0,.451,2.491,1.527,1.527,0,0,0,2.665-1.49Z" fill="#e8e1d6"/>
      <path id="パス_2182" data-name="パス 2182" d="M732.966,4773.463a1.623,1.623,0,0,0-.433-1.252,1.564,1.564,0,0,0-2.168,0,5.478,5.478,0,0,1-2.715.778c-1.2.184-2.412.321-3.624.422a59.577,59.577,0,0,1-7.665.131,1.489,1.489,0,0,0-1.323.759c-.862,1.913-1.074,5.021,1.656,5.291a43.826,43.826,0,0,0,6.419.174c3.54-.172,9.817-.841,10.136-5.429A1.331,1.331,0,0,0,732.966,4773.463Z" fill="#e8e1d6"/>
      <path id="パス_2183" data-name="パス 2183" d="M719.8,4800.266a1.618,1.618,0,0,0-.738-.955,1.725,1.725,0,0,0-.849-.234,1.366,1.366,0,0,0-.51.079c-.164.06-.324.13-.483.2-.045.021-.089.044-.133.068s-.078.048-.116.074c-.145.1-.284.211-.42.323a1.143,1.143,0,0,0-.317.493,1.389,1.389,0,0,0,0,1.182,1.142,1.142,0,0,0,.317.493l.31.24a1.523,1.523,0,0,0,.774.21l.408-.055a1.553,1.553,0,0,0,.372-.16,1.529,1.529,0,0,0,.662-.194,2.717,2.717,0,0,0,.32-.248,1.12,1.12,0,0,0,.324-.5.811.811,0,0,0,.107-.4A1.109,1.109,0,0,0,719.8,4800.266Z" fill="#e8e1d6"/>
      <path id="パス_2184" data-name="パス 2184" d="M734.6,4799.747l-.155-.366a1.54,1.54,0,0,0-.55-.55l-.016-.008c-.118-.054-.255-.109-.375-.158l-.033-.012a.415.415,0,0,0-.067-.016,3.36,3.36,0,0,0-.47-.059l-.035,0-.021,0c-.135.016-.283.035-.418.056a.514.514,0,0,0-.067.016l-.033.013c-.115.046-.263.106-.376.158l-.015.008a.344.344,0,0,0-.06.036c-.1.075-.218.165-.318.245l-.014.011a.229.229,0,0,0-.027.027,1.573,1.573,0,0,0,0,2.168l.31.24a1.531,1.531,0,0,0,.774.209l.407-.055c.03-.008.054-.025.083-.035a1.6,1.6,0,0,0,1.321-.75l.155-.366A1.547,1.547,0,0,0,734.6,4799.747Z" fill="#e8e1d6"/>
      <path id="パス_2185" data-name="パス 2185" d="M682.41,4786.027a10.028,10.028,0,0,0-1.936-6.441c-1.319-1.554-3.793-2.042-5.735-1.83a8.412,8.412,0,0,0-7.5,8.587,1.684,1.684,0,0,1-.866,1.676,16.771,16.771,0,0,1-2.774,1.209c-1.783.765-3.814,2.427-3.1,4.627.777,2.413,3.914,1.8,5.787,1.44a15.73,15.73,0,0,1,3.075-.46,10.1,10.1,0,0,1,3.076.9,4.647,4.647,0,0,0,5.7-2.579c.485-1.153.142-2.254.373-3.417.176-.885,1.248-1.062,1.995-1.224a1.514,1.514,0,0,0,1.073-1.17A1.41,1.41,0,0,0,682.41,4786.027Z" fill="#e8e1d6"/>
    </g>
    <g id="sのコピー_3" data-name="sのコピー 3">
      <path id="パス_2186" data-name="パス 2186" d="M718.569,4742.205a4.327,4.327,0,0,0,1.667,2.479,16.728,16.728,0,0,0,8.43,3.845" fill="none" stroke="#5d7248" stroke-miterlimit="10" stroke-width="1"/>
      <path id="パス_2187" data-name="パス 2187" d="M727.454,4745.326a38.449,38.449,0,0,1,2.055,4.063,11.63,11.63,0,0,1,1.151,4.31" fill="none" stroke="#5d7248" stroke-miterlimit="10" stroke-width="1"/>
      <path id="パス_2188" data-name="パス 2188" d="M731.883,4753.183a.764.764,0,0,1,.41-.6,1.735,1.735,0,0,1,.734-.183,2.123,2.123,0,0,1,.859.084,1.828,1.828,0,0,1,.612.393,3,3,0,0,1,.707,3.179,3.352,3.352,0,0,1-2.581,2.053" fill="none" stroke="#5d7248" stroke-miterlimit="10" stroke-width="1"/>
      <path id="パス_2189" data-name="パス 2189" d="M718.57,4742.875a9.571,9.571,0,0,1-.2,1.436,12.728,12.728,0,0,0,.1,4.753l.048-.217" fill="none" stroke="#5d7248" stroke-miterlimit="10" stroke-width="1"/>
      <path id="パス_2190" data-name="パス 2190" d="M712.051,4742.5a4.73,4.73,0,0,0,.824,2.6,9.088,9.088,0,0,0,1.89,2.011,16.888,16.888,0,0,0,2.9,1.911" fill="none" stroke="#5d7248" stroke-miterlimit="10" stroke-width="1"/>
      <path id="パス_2191" data-name="パス 2191" d="M711.8,4742.573a9.008,9.008,0,0,0-1.992,6.278" fill="none" stroke="#5d7248" stroke-miterlimit="10" stroke-width="1"/>
      <path id="パス_2192" data-name="パス 2192" d="M719,4730.284a4.725,4.725,0,0,0-2.142-.19,15.892,15.892,0,0,0-11.773,7.676,8.3,8.3,0,0,0-1.178,2.825,7.733,7.733,0,0,0,.033,2.544c.426,2.734,1.926,5.533,4.52,6.5" fill="none" stroke="#5d7248" stroke-miterlimit="10" stroke-width="1"/>
      <path id="パス_2193" data-name="パス 2193" d="M705.065,4746.756a22.81,22.81,0,0,0,3.43,13.8" fill="none" stroke="#5d7248" stroke-miterlimit="10" stroke-width="1"/>
      <path id="パス_2194" data-name="パス 2194" d="M703.548,4742.155a15.656,15.656,0,0,0,1.4,10.629" fill="none" stroke="#5d7248" stroke-miterlimit="10" stroke-width="1"/>
      <path id="パス_2195" data-name="パス 2195" d="M708.761,4760.773a20.583,20.583,0,0,0,10.246,5.807,2.616,2.616,0,0,0,1.581.007" fill="none" stroke="#5d7248" stroke-miterlimit="10" stroke-width="1"/>
      <path id="パス_2196" data-name="パス 2196" d="M720.914,4766.524c3.427-.871,6.978-1.944,9.5-4.422a6.349,6.349,0,0,0,2.042-3.8" fill="none" stroke="#5d7248" stroke-miterlimit="10" stroke-width="1"/>
      <path id="パス_2197" data-name="パス 2197" d="M715.617,4759.355a2.241,2.241,0,0,0,.9,1.6,1.444,1.444,0,0,0,.76.479" fill="none" stroke="#5d7248" stroke-miterlimit="10" stroke-width="1"/>
      <path id="パス_2198" data-name="パス 2198" d="M715.679,4759.329c-.082,0,.021.119.1.1l6.2-1.026a.238.238,0,0,1,.15.008c.08.042.084.152.079.242a5.237,5.237,0,0,1-.228,1.433,1.756,1.756,0,0,1-.929,1.065" fill="none" stroke="#5d7248" stroke-miterlimit="10" stroke-width="1"/>
      <path id="パス_2199" data-name="パス 2199" d="M711.189,4753.839l.11.115c0,.091-.153.1-.2.025a.262.262,0,0,1,.037-.258.314.314,0,0,1,.112.328.055.055,0,0,1-.071-.071" fill="none" stroke="#5d7248" stroke-miterlimit="10" stroke-width="1"/>
      <path id="パス_2200" data-name="パス 2200" d="M723.619,4752.2c-.029-.048.038-.116.087-.089a.168.168,0,0,1,.041-.3.292.292,0,0,1-.034.264" fill="none" stroke="#5d7248" stroke-miterlimit="10" stroke-width="1"/>
      <path id="パス_2201" data-name="パス 2201" d="M717.689,4729.86a6.17,6.17,0,0,1,2.318-.755,14.276,14.276,0,0,1,9.458,1.283,14.647,14.647,0,0,1,2.949,2.351,20.286,20.286,0,0,1,5.759,10.138,14.009,14.009,0,0,1-2.336,11.23l-.281-.155" fill="none" stroke="#5d7248" stroke-miterlimit="10" stroke-width="1"/>
      <path id="パス_2202" data-name="パス 2202" d="M728.891,4764.361q5.5-.109,11,.228.415,2.678.916,5.342a.569.569,0,0,1-.036.442.554.554,0,0,1-.292.173,17.976,17.976,0,0,1-6.469.576,8.59,8.59,0,0,1-4.693-1.188c-.089-.063-.185-.152-.169-.261s.224-.122.209-.013" fill="none" stroke="#5d7248" stroke-miterlimit="10" stroke-width="1"/>
      <path id="パス_2203" data-name="パス 2203" d="M736.568,4764.615a29.932,29.932,0,0,0,.295,5.922l-.023-.262" fill="none" stroke="#5d7248" stroke-miterlimit="10" stroke-width="1"/>
      <path id="パス_2204" data-name="パス 2204" d="M733.45,4764.931a.532.532,0,0,0-.165.44,12.3,12.3,0,0,0,.384,4.683" fill="none" stroke="#5d7248" stroke-miterlimit="10" stroke-width="1"/>
      <path id="パス_2205" data-name="パス 2205" d="M740.7,4764.921q.627-.45,1.294-.843c.059-.035.137-.068.19-.025s.042.1.045.15c.028.554.65.84,1.156,1.066a7.488,7.488,0,0,1,1.7,1.048.621.621,0,0,1,.2.228.681.681,0,0,1,.012.359,8.186,8.186,0,0,0,.125,2.91,1.9,1.9,0,0,1-1.153.016l-2.5-.494" fill="none" stroke="#5d7248" stroke-miterlimit="10" stroke-width="1"/>
      <path id="パス_2206" data-name="パス 2206" d="M715.806,4766.845a29.427,29.427,0,0,0-1.278,8.683,5.851,5.851,0,0,1-.358,2.637c-.276.559-.744,1.011-.987,1.585-.567,1.341.235,2.891-.026,4.322a1.436,1.436,0,0,0-.039.689,1.071,1.071,0,0,0,.291.409,7.116,7.116,0,0,0,3.335,1.859,14.173,14.173,0,0,0,3.027.28c3.793.078,7.656.148,11.3-.915a8.2,8.2,0,0,0,4.06-2.325,3.935,3.935,0,0,0,.622-4.4c-.507-.851-1.4-1.409-1.957-2.229-1.2-1.763-.57-4.237-1.491-6.16" fill="none" stroke="#5d7248" stroke-miterlimit="10" stroke-width="1"/>
      <path id="パス_2207" data-name="パス 2207" d="M715.259,4773.244c2.825.917,5.889.557,8.827.125a34.144,34.144,0,0,0,7.15-1.623" fill="none" stroke="#5d7248" stroke-miterlimit="10" stroke-width="1"/>
      <path id="パス_2208" data-name="パス 2208" d="M714.514,4779.227a25.877,25.877,0,0,0,18.359-2.02c.062-.032.133-.084.119-.152s-.153-.012-.1.028" fill="none" stroke="#5d7248" stroke-miterlimit="10" stroke-width="1"/>
      <path id="パス_2209" data-name="パス 2209" d="M720.513,4767.459q-.074,4.881-.376,9.755a22.38,22.38,0,0,1-.374,3.268,8.213,8.213,0,0,0-.258,1.526c-.028,1.393.887,2.816.36,4.1a.119.119,0,0,0,.127-.135" fill="none" stroke="#5d7248" stroke-miterlimit="10" stroke-width="1"/>
      <path id="パス_2210" data-name="パス 2210" d="M714.79,4766.939a33.592,33.592,0,0,1-6.827,2.873.954.954,0,0,0-.38.158.891.891,0,0,0-.241.46,10.935,10.935,0,0,0-.384,3.671,1.759,1.759,0,0,0,.527,1.34,1.9,1.9,0,0,0,1.524.124,14.344,14.344,0,0,0,5.27-1.853" fill="none" stroke="#5d7248" stroke-miterlimit="10" stroke-width="1"/>
      <path id="パス_2211" data-name="パス 2211" d="M701.091,4770.519a1.466,1.466,0,0,0-.367,1.291,25.763,25.763,0,0,0,.3,2.757.334.334,0,0,0,.053.155.318.318,0,0,0,.163.09,4.277,4.277,0,0,0,2.178-.114q1.314-.308,2.612-.674c.09-.025.189-.15.1-.181" fill="none" stroke="#5d7248" stroke-miterlimit="10" stroke-width="1"/>
      <path id="パス_2212" data-name="パス 2212" d="M702.008,4769.947l1.075.343a.683.683,0,0,0,.218.043c.308-.007.441-.388.492-.692a21.736,21.736,0,0,1,2.15,1.313" fill="none" stroke="#5d7248" stroke-miterlimit="10" stroke-width="1"/>
      <path id="パス_2213" data-name="パス 2213" d="M727.133,4788.363a23.473,23.473,0,0,0,2.736,7.563l1.274,2.558" fill="none" stroke="#5d7248" stroke-miterlimit="10" stroke-width="1"/>
      <path id="パス_2214" data-name="パス 2214" d="M733.921,4786.073l.954,10.582a2.088,2.088,0,0,1-.475,1.908c-.713.543-1.834,0-2.6.464" fill="none" stroke="#5d7248" stroke-miterlimit="10" stroke-width="1"/>
      <path id="パス_2215" data-name="パス 2215" d="M715.671,4787.691q.3,5.243,1.035,10.448a1.092,1.092,0,0,0,.17.527.987.987,0,0,0,.561.305,4.369,4.369,0,0,0,2.1.012,1.182,1.182,0,0,0,.517-.233,1.357,1.357,0,0,0,.333-.627q1.578-4.893,2.854-9.876" fill="none" stroke="#5d7248" stroke-miterlimit="10" stroke-width="1"/>
      <path id="パス_2216" data-name="パス 2216" d="M731.476,4799.407a6.076,6.076,0,0,0-1.093,1.336c-.053.088-.1.211-.027.283a.241.241,0,0,0,.124.051,6.956,6.956,0,0,0,3.334.122,1.2,1.2,0,0,0,.562-.309c.334-.372.2-.953.041-1.428" fill="none" stroke="#5d7248" stroke-miterlimit="10" stroke-width="1"/>
      <path id="パス_2217" data-name="パス 2217" d="M717.44,4799.342a11.731,11.731,0,0,0-2.157,1.745.561.561,0,0,0-.188.312c-.025.262.29.409.546.468a10.946,10.946,0,0,0,3.155.248,1.358,1.358,0,0,0,1.056-.418,1.121,1.121,0,0,0,.137-.817c-.041-.28-.128-.554-.142-.836" fill="none" stroke="#5d7248" stroke-miterlimit="10" stroke-width="1"/>
      <path id="パス_2218" data-name="パス 2218" d="M643.729,4732.515a8.855,8.855,0,0,1,4.108.088,7.293,7.293,0,0,1,2.014,1.183,14.566,14.566,0,0,1,5.161,6.851,8.966,8.966,0,0,1-1.251,8.264c-.067.083-.238.137-.243.031" fill="none" stroke="#5d7248" stroke-miterlimit="10" stroke-width="1"/>
      <path id="パス_2219" data-name="パス 2219" d="M640.318,4739.9a3.35,3.35,0,0,0,.44,2.447,12.467,12.467,0,0,0,3.664,4.669,7.042,7.042,0,0,0,5.653,1.338" fill="none" stroke="#5d7248" stroke-miterlimit="10" stroke-width="1"/>
      <path id="パス_2220" data-name="パス 2220" d="M648.687,4745.145a2.624,2.624,0,0,0,.723,1.158,10.3,10.3,0,0,0,3.759,2.522.26.26,0,0,1,.164.121c.027.064-.041.157-.1.123" fill="none" stroke="#5d7248" stroke-miterlimit="10" stroke-width="1"/>
      <path id="パス_2221" data-name="パス 2221" d="M640.308,4741.287a4.6,4.6,0,0,0-1.5.843,15.926,15.926,0,0,0-4.132,4.072,14.259,14.259,0,0,0-1.829,6.135,25.706,25.706,0,0,0,1.288,11.812" fill="none" stroke="#5d7248" stroke-miterlimit="10" stroke-width="1"/>
      <path id="パス_2222" data-name="パス 2222" d="M628.725,4748.666a24.032,24.032,0,0,0,.291,8.826,10.785,10.785,0,0,0,5.12,6.941.612.612,0,0,0-.454-.248" fill="none" stroke="#5d7248" stroke-miterlimit="10" stroke-width="1"/>
      <path id="パス_2223" data-name="パス 2223" d="M628.166,4752.513a1.168,1.168,0,0,0-1.175.328,2.071,2.071,0,0,0-.52,1.156,3.435,3.435,0,0,0,2.31,3.775" fill="none" stroke="#5d7248" stroke-miterlimit="10" stroke-width="1"/>
      <path id="パス_2224" data-name="パス 2224" d="M653.118,4749.25c.008,1.369.015,2.738,0,4.107a14.377,14.377,0,0,1-.917,5.88,10.275,10.275,0,0,1-4.245,4.655,9.884,9.884,0,0,1-3.411,1.43,23.666,23.666,0,0,1-5.314-.519,19,19,0,0,1-5.388-2.741" fill="none" stroke="#5d7248" stroke-miterlimit="10" stroke-width="1"/>
      <path id="パス_2225" data-name="パス 2225" d="M644.49,4731.83a14.04,14.04,0,0,0-9.656-2.385,21.366,21.366,0,0,0-3.882.927,12.932,12.932,0,0,0-3.188,1.4,11.474,11.474,0,0,0-2.687,2.631,24.2,24.2,0,0,0-4.046,7.86,19.893,19.893,0,0,0-.886,6.111,15.406,15.406,0,0,0,4.3,11.228,49.836,49.836,0,0,0,6.727,5.528" fill="none" stroke="#5d7248" stroke-miterlimit="10" stroke-width="1"/>
      <path id="パス_2226" data-name="パス 2226" d="M633.164,4764.743a8.608,8.608,0,0,0-4.44,2.168A34.709,34.709,0,0,0,621.176,4778a10.106,10.106,0,0,1,3.663,3.236l5.567-6.718c1.7-2.051,3.455-4.213,4.013-6.818" fill="none" stroke="#5d7248" stroke-miterlimit="10" stroke-width="1"/>
      <path id="パス_2227" data-name="パス 2227" d="M647.4,4768.64a76.458,76.458,0,0,0,2.193,13.6c.824,3.227,1.867,6.449,1.914,9.779,0,.084-.115.186-.128.1" fill="none" stroke="#5d7248" stroke-miterlimit="10" stroke-width="1"/>
      <path id="パス_2228" data-name="パス 2228" d="M641.723,4780.054a9.4,9.4,0,0,1-.193,2.144c-.458,2.717-.915,5.438-1.547,8.12q-.25,1.062-.537,2.115a13.232,13.232,0,0,1-.48,1.5,7.354,7.354,0,0,1-.493.994" fill="none" stroke="#5d7248" stroke-miterlimit="10" stroke-width="1"/>
      <path id="パス_2229" data-name="パス 2229" d="M627.978,4779.15a51.768,51.768,0,0,0-2.468,13.942.24.24,0,0,0,.039-.245" fill="none" stroke="#5d7248" stroke-miterlimit="10" stroke-width="1"/>
      <path id="パス_2230" data-name="パス 2230" d="M625.722,4793.177a25.2,25.2,0,0,0,11.908,2.174c.16-.01.376-.173.248-.271" fill="none" stroke="#5d7248" stroke-miterlimit="10" stroke-width="1"/>
      <path id="パス_2231" data-name="パス 2231" d="M641.562,4782.81a48.54,48.54,0,0,0,3.487,11.376" fill="none" stroke="#5d7248" stroke-miterlimit="10" stroke-width="1"/>
      <path id="パス_2232" data-name="パス 2232" d="M646.062,4794.245a15.27,15.27,0,0,0,4.731-1.255.99.99,0,0,0,.6-.519" fill="none" stroke="#5d7248" stroke-miterlimit="10" stroke-width="1"/>
      <path id="パス_2233" data-name="パス 2233" d="M642.307,4766.084c.086.225.16.454.234.683l.59,1.827q.2-1.17.427-2.335" fill="none" stroke="#5d7248" stroke-miterlimit="10" stroke-width="1"/>
      <path id="パス_2234" data-name="パス 2234" d="M630.349,4780.794a27.775,27.775,0,0,1,4.878,1.2.737.737,0,0,1,.214.1.662.662,0,0,1,.189.286,3.2,3.2,0,0,1-.512,3.132,3.89,3.89,0,0,1-2.911,1.386,4.992,4.992,0,0,1-3.094-1.046" fill="none" stroke="#5d7248" stroke-miterlimit="10" stroke-width="1"/>
      <path id="パス_2235" data-name="パス 2235" d="M621.087,4778.515a8.615,8.615,0,0,0-1.427,3.616.505.505,0,0,0,.009.262c.06.153.241.211.384.293.392.223.56.692.847,1.041a3.606,3.606,0,0,0,1.265.859,6.622,6.622,0,0,1,.82-1.886,1.626,1.626,0,0,0,.49.538,12.778,12.778,0,0,0,.694-1.365" fill="none" stroke="#5d7248" stroke-miterlimit="10" stroke-width="1"/>
      <path id="パス_2236" data-name="パス 2236" d="M646.332,4765.615a15.032,15.032,0,0,1,4.826,3.661,15.05,15.05,0,0,1,1.824-1.6.42.42,0,0,1,.611-.02,19.4,19.4,0,0,1,3.032,2.489.394.394,0,0,1,.144.242.4.4,0,0,1-.089.227,12.776,12.776,0,0,1-3.334,3.824,4.358,4.358,0,0,1-4.8.253" fill="none" stroke="#5d7248" stroke-miterlimit="10" stroke-width="1"/>
      <path id="パス_2237" data-name="パス 2237" d="M655.613,4762.722a.8.8,0,0,0-.774.4,2.352,2.352,0,0,0-.283.873l-.119.646a.951.951,0,0,0-1.042-.06.4.4,0,0,0-.194.218.531.531,0,0,0,0,.234l.327,1.868a.268.268,0,0,0,.112-.36" fill="none" stroke="#5d7248" stroke-miterlimit="10" stroke-width="1"/>
      <path id="パス_2238" data-name="パス 2238" d="M656.1,4762.952a4.811,4.811,0,0,1,2.344,3.037.962.962,0,0,0,.153.39,1.734,1.734,0,0,1,.218.234.563.563,0,0,1-.092.538,4.486,4.486,0,0,1-2.207,1.872" fill="none" stroke="#5d7248" stroke-miterlimit="10" stroke-width="1"/>
      <path id="パス_2239" data-name="パス 2239" d="M640,4793.822a3.431,3.431,0,0,0,1.384.1,57.554,57.554,0,0,0,2.156,5.676.645.645,0,0,0,.2.293.61.61,0,0,0,.308.077,6.8,6.8,0,0,0,1.957-.164.544.544,0,0,0,.3-.139.573.573,0,0,0,.111-.292l.781-4.383" fill="none" stroke="#5d7248" stroke-miterlimit="10" stroke-width="1"/>
      <path id="パス_2240" data-name="パス 2240" d="M630.173,4795.367a35.883,35.883,0,0,0,.206,5.192.723.723,0,0,0,.143.425.736.736,0,0,0,.532.164l2.569.1a.387.387,0,0,0,.24-.044.393.393,0,0,0,.111-.167l1.256-2.889a13.418,13.418,0,0,0,.635-1.66c.01-.035.035-.075.07-.067s-.005.075-.018.042" fill="none" stroke="#5d7248" stroke-miterlimit="10" stroke-width="1"/>
      <path id="パス_2241" data-name="パス 2241" d="M643.772,4800.772a.818.818,0,0,0-.017.643l.355,1.41a.384.384,0,0,0,.105.211.359.359,0,0,0,.171.062,9.761,9.761,0,0,0,2.507.124,12.841,12.841,0,0,0,1.928-.319c.055-.013.119-.033.139-.086a.179.179,0,0,0-.042-.152,5.173,5.173,0,0,0-2.225-1.854,2.143,2.143,0,0,1-.631-.832" fill="none" stroke="#5d7248" stroke-miterlimit="10" stroke-width="1"/>
      <path id="パス_2242" data-name="パス 2242" d="M630.852,4801.937a2.805,2.805,0,0,0-.394,1.786.983.983,0,0,0,.163.484,1.21,1.21,0,0,0,.957.332l2.182.092a3.817,3.817,0,0,0,1.924-.251,6.475,6.475,0,0,0-1.774-2.637" fill="none" stroke="#5d7248" stroke-miterlimit="10" stroke-width="1"/>
      <path id="パス_2243" data-name="パス 2243" d="M642.281,4758.4a2.04,2.04,0,0,0,1.06.751,4.693,4.693,0,0,0,1.3.2,3.3,3.3,0,0,0,2.459-.647" fill="none" stroke="#5d7248" stroke-miterlimit="10" stroke-width="1"/>
      <path id="パス_2244" data-name="パス 2244" d="M638.593,4752.591a.22.22,0,0,1-.066-.282.172.172,0,0,1,.222.192l-.142-.066a.211.211,0,0,1,.05.153c-.011.054-.091.088-.122.043" fill="none" stroke="#5d7248" stroke-miterlimit="10" stroke-width="1"/>
      <path id="パス_2245" data-name="パス 2245" d="M650.839,4751.954l-.01.129a.239.239,0,0,1-.18-.126" fill="none" stroke="#5d7248" stroke-miterlimit="10" stroke-width="1"/>
      <path id="パス_2246" data-name="パス 2246" d="M676.915,4777.282a7.2,7.2,0,0,0-5.965.853,9.654,9.654,0,0,0-3.776,4.81,6.708,6.708,0,0,0-.484,3.206,3.675,3.675,0,0,0,1.649,2.7c1.18.7,2.659.493,4.017.308a39.043,39.043,0,0,1,5.106-.4c1.345-.006,2.821.046,3.87-.8a3.594,3.594,0,0,0,1.056-3.478,8.818,8.818,0,0,0-1.7-3.386,17.038,17.038,0,0,0-2.738-3.063" fill="none" stroke="#5d7248" stroke-miterlimit="10" stroke-width="1"/>
      <path id="パス_2247" data-name="パス 2247" d="M680.062,4782.01a.091.091,0,0,1,.064.125.084.084,0,0,1-.145-.058" fill="none" stroke="#5d7248" stroke-miterlimit="10" stroke-width="1"/>
      <path id="パス_2248" data-name="パス 2248" d="M675.415,4782.214l-.129.069-.006-.158" fill="none" stroke="#5d7248" stroke-miterlimit="10" stroke-width="1"/>
      <path id="パス_2249" data-name="パス 2249" d="M680.085,4775.932a1.7,1.7,0,0,1-.429,1.963" fill="none" stroke="#5d7248" stroke-miterlimit="10" stroke-width="1"/>
      <path id="パス_2250" data-name="パス 2250" d="M667.9,4777.252a.88.88,0,0,0-.148.519,1.34,1.34,0,0,0,.163.545,2.836,2.836,0,0,0,1.469,1.34" fill="none" stroke="#5d7248" stroke-miterlimit="10" stroke-width="1"/>
      <path id="パス_2251" data-name="パス 2251" d="M672.282,4789.685c.042.011.061.06.072.1a2.824,2.824,0,0,1-.133,1.8l-.12.011" fill="none" stroke="#5d7248" stroke-miterlimit="10" stroke-width="1"/>
      <path id="パス_2252" data-name="パス 2252" d="M678.55,4789.762a10.75,10.75,0,0,1-.311,3.249,4.814,4.814,0,0,1-.529,1.395,3.721,3.721,0,0,1-3.181,1.611,6.9,6.9,0,0,1-3.5-1.134,3.583,3.583,0,0,0-1.418-.632c-.967-.1-1.768.678-2.634,1.12a6.366,6.366,0,0,1-4.318.231,5.234,5.234,0,0,1-1.776-.7,3.028,3.028,0,0,1-1.315-2.2,2.694,2.694,0,0,1,1-2.332c1.132-.869,2.8-.649,4.012-1.4.606-.375,1.168-1.006,1.874-.912" fill="none" stroke="#5d7248" stroke-miterlimit="10" stroke-width="1"/>
      <path id="パス_2253" data-name="パス 2253" d="M678.484,4794.234a8.433,8.433,0,0,1,.409,6.243" fill="none" stroke="#5d7248" stroke-miterlimit="10" stroke-width="1"/>
      <path id="パス_2254" data-name="パス 2254" d="M675.09,4796.448a1.488,1.488,0,0,0,.092.71,8.567,8.567,0,0,1,.028,4.6c-.005.018-.025-.018-.006-.02s.027.022.031.04" fill="none" stroke="#5d7248" stroke-miterlimit="10" stroke-width="1"/>
      <path id="パス_2255" data-name="パス 2255" d="M670.449,4794.907a4.789,4.789,0,0,1,.8,2.663,16.152,16.152,0,0,1-.261,2.805c-.005.035-.014.076-.047.091s-.074-.039-.042-.056" fill="none" stroke="#5d7248" stroke-miterlimit="10" stroke-width="1"/>
      <path id="パス_2256" data-name="パス 2256" d="M667.189,4795.651a13.5,13.5,0,0,1-.12,6.375c-.009.034-.025.073-.059.078s-.047-.063-.013-.057" fill="none" stroke="#5d7248" stroke-miterlimit="10" stroke-width="1"/>
      <path id="パス_2257" data-name="パス 2257" d="M662.017,4795.976a19.863,19.863,0,0,0,.281,5.14" fill="none" stroke="#5d7248" stroke-miterlimit="10" stroke-width="1"/>
      <path id="パス_2258" data-name="パス 2258" d="M710.814,4769.775a5.632,5.632,0,0,0-.136,3.676" fill="none" stroke="#5d7248" stroke-miterlimit="10" stroke-width="1"/>
    </g>
  </g>
</svg>
