<svg xmlns="http://www.w3.org/2000/svg" width="33.51" height="23.74" viewBox="0 0 33.51 23.74">
  <g id="グループ_89" data-name="グループ 89" transform="translate(-497.12 -518.686)">
    <g id="グループ_88" data-name="グループ 88">
      <path id="パス_1390" data-name="パス 1390" d="M497.12,539.244l.908-.105a.457.457,0,0,1-.142-.25c0-.429,5.037-10.611,5.823-12.218,1.214-2.537,3.108-5.9,3.072-6.074-.036.072-5.466,7.074-7.9,7.074a2.49,2.49,0,0,1-1.68-.786l-.058-.059v-.96c.162-.025.328-.057.486-.089,2.822-.643,6.395-3.679,8.432-6.18.17-.206.439-.549.742-.911h3.478c-1.123,2.361-7.374,14.121-9.257,20.1.785-.072,1.5-.143,2.178-.143a15.254,15.254,0,0,1,4.324.929.181.181,0,0,1,.142.178c0,.107-.071.179-.357.215a41.931,41.931,0,0,0-10.168,1.921C497.149,541.174,497.12,539.785,497.12,539.244Z"/>
      <path id="パス_1391" data-name="パス 1391" d="M530.63,518.686a76.268,76.268,0,0,1-7.375,2.233,82.865,82.865,0,0,1-4.681,7.323,12.473,12.473,0,0,1,3.716-.607c2.358,0,4.5.572,4.5,3.037,0,4.966-11.61,11.754-14.183,11.754-.536,0-.714-1.894-.714-2.394,0-.714,2.036-2.929,2.394-2.858.178.036-.858,2-.858,2.394,0,.107,0,.143.071.143,2.358,0,10.575-6.324,10.575-9.825,0-.322-.285-.679-1.322-.679a8.375,8.375,0,0,0-4.429,1.679c-1,.643-1.537,1.572-2,1.572-.429,0-.394-.679-.821-1.357-.465-.715-.929-.751-.929-1.251,0-.643,1.107-1,1.393-1.393,1-1.393,2.929-4.43,4.5-7.11a7.7,7.7,0,0,1-.893.036c-.857,0-1.215-.75-1.215-1.465a3.061,3.061,0,0,1,.234-1.232Z"/>
    </g>
  </g>
</svg>
