<svg xmlns="http://www.w3.org/2000/svg" width="27.475" height="27.477" viewBox="0 0 27.475 27.477">
  <g id="グループ_1" data-name="グループ 1" transform="translate(-354.569 -14054.263)">
    <path id="パス_2" data-name="パス 2" d="M374.011,14054.263H362.6a8.043,8.043,0,0,0-8.033,8.034v11.409a8.042,8.042,0,0,0,8.033,8.033h11.409a8.042,8.042,0,0,0,8.033-8.033V14062.3A8.043,8.043,0,0,0,374.011,14054.263Zm5.472,19.443a5.479,5.479,0,0,1-5.472,5.472H362.6a5.479,5.479,0,0,1-5.472-5.472V14062.3a5.478,5.478,0,0,1,5.472-5.472h11.409a5.478,5.478,0,0,1,5.472,5.472Z"/>
    <circle id="楕円形_2" data-name="楕円形 2" cx="1.712" cy="1.712" r="1.712" transform="translate(373.935 14058.962)"/>
    <path id="パス_3" data-name="パス 3" d="M368.306,14075.1a7.1,7.1,0,1,1,7.1-7.1A7.109,7.109,0,0,1,368.306,14075.1Zm0-11.642a4.541,4.541,0,1,0,4.541,4.54A4.546,4.546,0,0,0,368.306,14063.461Z"/>
  </g>
</svg>
