<svg xmlns="http://www.w3.org/2000/svg" width="130.816" height="30.553" viewBox="0 0 130.816 30.553">
  <g id="グループ_87" data-name="グループ 87" transform="translate(-60 -35)">
    <path id="パス_1384" data-name="パス 1384" d="M71.434,40.975A6.214,6.214,0,0,1,76.1,43.152l.755.866V37.9l-.225-.121a10.837,10.837,0,0,0-5.289-1.323A10.954,10.954,0,0,0,63.454,39.3,11.2,11.2,0,0,0,60,47.7,11.012,11.012,0,0,0,71.31,58.92a11.144,11.144,0,0,0,5.313-1.258l.231-.121V51.4l-.758.9a5.839,5.839,0,0,1-4.507,2.11,6.394,6.394,0,0,1-6.575-6.636C65.014,44.474,67.264,40.975,71.434,40.975Z" fill="#fff"/>
    <path id="パス_1385" data-name="パス 1385" d="M95.4,45.744a9.152,9.152,0,0,0-11.428,0,7.661,7.661,0,0,0,0,11.143,9.147,9.147,0,0,0,11.427,0,7.66,7.66,0,0,0,0-11.143Zm-5.715,8.937a3.366,3.366,0,1,1,3.351-3.351A3.315,3.315,0,0,1,89.682,54.681Z" fill="#fff"/>
    <rect id="長方形_223" data-name="長方形 223" width="4.643" height="23.455" transform="translate(102.943 35)" fill="#fff"/>
    <path id="パス_1386" data-name="パス 1386" d="M126.568,45.744a9.152,9.152,0,0,0-11.428,0,7.659,7.659,0,0,0,0,11.143,9.147,9.147,0,0,0,11.427,0,7.66,7.66,0,0,0,0-11.143Zm-5.716,8.937A3.366,3.366,0,1,1,124.2,51.33,3.315,3.315,0,0,1,120.852,54.681Z" fill="#fff"/>
    <path id="パス_1387" data-name="パス 1387" d="M146.78,45.543a5.585,5.585,0,0,0-4.3-1.8,5.282,5.282,0,0,0-3.722,1.454v-1.02h-4.643V58.455h4.643v-7.28a4.2,4.2,0,0,1,.516-2.365,2.14,2.14,0,0,1,1.967-.986,1.971,1.971,0,0,1,1.455.549,3.555,3.555,0,0,1,.594,2.338v7.744h4.641V49.594A6.062,6.062,0,0,0,146.78,45.543Z" fill="#fff"/>
    <path id="パス_1388" data-name="パス 1388" d="M164.458,44.174l-3.471,7.117-3.876-7.117h-5.391l6.628,11.84-5.161,9.539h5.26l11.271-21.379Z" fill="#fff"/>
    <path id="パス_1389" data-name="パス 1389" d="M181.394,58.025l.931-5.765H179.41l-.929,5.765H174.7s1.488-4.324.93-5.765-3.162,0-3.162,0l.527-3.223h3.161l.5-3.131h-3.161l.527-3.223h3.161l.868-5.331h3.78l-.867,5.331h2.913l.869-5.331h3.781l-.867,5.331h3.16l-.526,3.223h-3.162l-.5,3.131h3.162l-.526,3.223h-3.162s.248,4.324-.93,5.765S181.394,58.025,181.394,58.025Zm1.953-12.119h-2.913l-.5,3.131h2.913Z" fill="#fff"/>
  </g>
</svg>
