<svg xmlns="http://www.w3.org/2000/svg" width="171.447" height="78.237" viewBox="0 0 171.447 78.237">
  <g id="sのコピー_4" data-name="sのコピー 4" transform="translate(-596.811 -6857.287)">
    <g id="グループ_23" data-name="グループ 23">
      <path id="パス_189" data-name="パス 189" d="M709.008,6881.143a1.781,1.781,0,0,0,.211,1.273,10.41,10.41,0,0,0,2.864,3.862,6.539,6.539,0,0,0,4.492,1.506c-.06-.052.029-.17.095-.127" fill="none" stroke="#5d7248" stroke-miterlimit="10" stroke-width="1"/>
      <path id="パス_190" data-name="パス 190" d="M716.04,6882.962a7.929,7.929,0,0,0,.04,3.937c.068.253.194.544.452.588" fill="none" stroke="#5d7248" stroke-miterlimit="10" stroke-width="1"/>
      <path id="パス_191" data-name="パス 191" d="M716.666,6882.824a8.194,8.194,0,0,0,4.583,4.877c.27.111.683.144.758-.139" fill="none" stroke="#5d7248" stroke-miterlimit="10" stroke-width="1"/>
      <path id="パス_192" data-name="パス 192" d="M722.4,6885.4a5.348,5.348,0,0,0,.124,2.209" fill="none" stroke="#5d7248" stroke-miterlimit="10" stroke-width="1"/>
      <path id="パス_193" data-name="パス 193" d="M708.794,6882.052a16.427,16.427,0,0,0-.776,5.323" fill="none" stroke="#5d7248" stroke-miterlimit="10" stroke-width="1"/>
      <path id="パス_194" data-name="パス 194" d="M704.965,6885.063a4.764,4.764,0,0,0,2.535,2.731" fill="none" stroke="#5d7248" stroke-miterlimit="10" stroke-width="1"/>
      <path id="パス_195" data-name="パス 195" d="M704.734,6885.449q.037,1.6.185,3.189" fill="none" stroke="#5d7248" stroke-miterlimit="10" stroke-width="1"/>
      <path id="パス_196" data-name="パス 196" d="M703.972,6889.807a1.161,1.161,0,0,0-.843,1.416,1.846,1.846,0,0,0,.2.411,1.309,1.309,0,0,0,1.084.769" fill="none" stroke="#5d7248" stroke-miterlimit="10" stroke-width="1"/>
      <path id="パス_197" data-name="パス 197" d="M723.622,6890.238a1.212,1.212,0,0,1,.418,2.076,1.9,1.9,0,0,1-.723.351" fill="none" stroke="#5d7248" stroke-miterlimit="10" stroke-width="1"/>
      <path id="パス_198" data-name="パス 198" d="M705.107,6892.894a8.44,8.44,0,0,0,3.813,3.978,18.479,18.479,0,0,0,5.349,1.617,5.145,5.145,0,0,0,1.77-.183" fill="none" stroke="#5d7248" stroke-miterlimit="10" stroke-width="1"/>
      <path id="パス_199" data-name="パス 199" d="M723.069,6892.9a9.182,9.182,0,0,1-2.926,3.449,13.346,13.346,0,0,1-4.1,1.959" fill="none" stroke="#5d7248" stroke-miterlimit="10" stroke-width="1"/>
      <path id="パス_200" data-name="パス 200" d="M722.983,6887.438l.1,2.106" fill="none" stroke="#5d7248" stroke-miterlimit="10" stroke-width="1"/>
      <path id="パス_201" data-name="パス 201" d="M708.246,6873.29c-2.618.674-4.5,2.82-5.71,5.171a12.893,12.893,0,0,0-1.235,8.428,7.56,7.56,0,0,0,1.507,3.467.25.25,0,0,0-.11-.167" fill="none" stroke="#5d7248" stroke-miterlimit="10" stroke-width="1"/>
      <path id="パス_202" data-name="パス 202" d="M708.893,6873.214a16.867,16.867,0,0,1,5.787-.478,11.736,11.736,0,0,1,5.215,1.994,14,14,0,0,1,3.995,4.444" fill="none" stroke="#5d7248" stroke-miterlimit="10" stroke-width="1"/>
      <path id="パス_203" data-name="パス 203" d="M723.89,6879.174a11.6,11.6,0,0,1,.342,10.384" fill="none" stroke="#5d7248" stroke-miterlimit="10" stroke-width="1"/>
      <path id="パス_204" data-name="パス 204" d="M710.347,6890.486c-.027.007.024-.017,0,0" fill="none" stroke="#5d7248" stroke-miterlimit="10" stroke-width="1"/>
      <path id="パス_205" data-name="パス 205" d="M717.319,6890.447" fill="none" stroke="#5d7248" stroke-miterlimit="10" stroke-width="1"/>
      <path id="パス_206" data-name="パス 206" d="M712.761,6894.064l3.215-.075c.05,0,.113.007.128.055a.121.121,0,0,1-.02.085l-.1.19" fill="none" stroke="#5d7248" stroke-miterlimit="10" stroke-width="1"/>
      <path id="パス_207" data-name="パス 207" d="M712.582,6894.232a.265.265,0,0,0,.223.248" fill="none" stroke="#5d7248" stroke-miterlimit="10" stroke-width="1"/>
      <path id="パス_208" data-name="パス 208" d="M703.3,6891.286l-1.887-1.58a.31.31,0,0,0-.164-.088.314.314,0,0,0-.2.091,13.629,13.629,0,0,0-4.257,4.579,1.37,1.37,0,0,0-.175.748,1.444,1.444,0,0,0,.355.676c2.208,2.783,5.372,4.632,8.566,6.186.213.1.511.188.651,0" fill="none" stroke="#5d7248" stroke-miterlimit="10" stroke-width="1"/>
      <path id="パス_209" data-name="パス 209" d="M725.278,6891.439a5.02,5.02,0,0,1,.893-.8.371.371,0,0,1,.221-.089.4.4,0,0,1,.257.169l3.238,3.712a1.363,1.363,0,0,1,.449.9,1.285,1.285,0,0,1-.231.589,14.505,14.505,0,0,1-8.2,6.3" fill="none" stroke="#5d7248" stroke-miterlimit="10" stroke-width="1"/>
      <path id="パス_210" data-name="パス 210" d="M708.547,6898.824a36.16,36.16,0,0,0-3.452,8.113,3.048,3.048,0,0,0-.163.98c.015.3.115.59.145.889a15.084,15.084,0,0,1-.194,1.835c-.016.616.341,1.345.957,1.357" fill="none" stroke="#5d7248" stroke-miterlimit="10" stroke-width="1"/>
      <path id="パス_211" data-name="パス 211" d="M720.266,6899.575a17.774,17.774,0,0,0,1.115,2.774,30.371,30.371,0,0,1,2.192,7.118,2.424,2.424,0,0,1,.05.758,2.528,2.528,0,0,1-.2.622l-.494,1.17" fill="none" stroke="#5d7248" stroke-miterlimit="10" stroke-width="1"/>
      <path id="パス_212" data-name="パス 212" d="M706.151,6911.826a52.97,52.97,0,0,0,16.178.022" fill="none" stroke="#5d7248" stroke-miterlimit="10" stroke-width="1"/>
      <path id="パス_213" data-name="パス 213" d="M714.777,6899.5c-.678,3.914.173,7.939-.169,11.9" fill="none" stroke="#5d7248" stroke-miterlimit="10" stroke-width="1"/>
      <path id="パス_214" data-name="パス 214" d="M706.423,6906.127a38.6,38.6,0,0,0,10.066,1.027,18.285,18.285,0,0,0,2.573-.226,12.168,12.168,0,0,0,2.806-.838" fill="none" stroke="#5d7248" stroke-miterlimit="10" stroke-width="1"/>
      <path id="パス_215" data-name="パス 215" d="M708.057,6901.617a47.932,47.932,0,0,0,11.947.177" fill="none" stroke="#5d7248" stroke-miterlimit="10" stroke-width="1"/>
      <path id="パス_216" data-name="パス 216" d="M722.028,6895.937c.786,1.59,2.307,2.687,3.292,4.162a.4.4,0,0,0-.025-.273" fill="none" stroke="#5d7248" stroke-miterlimit="10" stroke-width="1"/>
      <path id="パス_217" data-name="パス 217" d="M724.285,6893.014a31.088,31.088,0,0,0,3.549,4.558.13.13,0,0,0,.019-.186" fill="none" stroke="#5d7248" stroke-miterlimit="10" stroke-width="1"/>
      <path id="パス_218" data-name="パス 218" d="M703.145,6892.087l-4.1,4.673.3-.289" fill="none" stroke="#5d7248" stroke-miterlimit="10" stroke-width="1"/>
      <path id="パス_219" data-name="パス 219" d="M705.366,6894.316a20.629,20.629,0,0,1-3.347,4.689l.047-.225" fill="none" stroke="#5d7248" stroke-miterlimit="10" stroke-width="1"/>
      <path id="パス_220" data-name="パス 220" d="M711.576,6915.085a59.949,59.949,0,0,0,6.725.307" fill="none" stroke="#5d7248" stroke-miterlimit="10" stroke-width="1"/>
      <path id="パス_221" data-name="パス 221" d="M717.365,6916.126a23.108,23.108,0,0,1,2.276,6.282,1.14,1.14,0,0,0,.319.7,1.11,1.11,0,0,0,.7.16,6.667,6.667,0,0,0,2.373-.276" fill="none" stroke="#5d7248" stroke-miterlimit="10" stroke-width="1"/>
      <path id="パス_222" data-name="パス 222" d="M722.97,6912.663q.375,4.8.344,9.629l-.087-.316" fill="none" stroke="#5d7248" stroke-miterlimit="10" stroke-width="1"/>
      <path id="パス_223" data-name="パス 223" d="M706.171,6912.446a55.78,55.78,0,0,0,.538,9.647,1.43,1.43,0,0,0,1.484,1.563l1.142.168c.327.049.784,0,.819-.325" fill="none" stroke="#5d7248" stroke-miterlimit="10" stroke-width="1"/>
      <path id="パス_224" data-name="パス 224" d="M712.017,6915.662q-.909,3.64-1.484,7.353c-.027.176-.036.4.115.49" fill="none" stroke="#5d7248" stroke-miterlimit="10" stroke-width="1"/>
      <path id="パス_225" data-name="パス 225" d="M720.284,6924.052l.162,1.549a.908.908,0,0,0,.094.371.857.857,0,0,0,.64.315,7.882,7.882,0,0,0,3.277-.193.547.547,0,0,0,.334-.192c.145-.227-.085-.5-.3-.672q-.768-.615-1.57-1.185" fill="none" stroke="#5d7248" stroke-miterlimit="10" stroke-width="1"/>
      <path id="パス_226" data-name="パス 226" d="M707.632,6924.248a7.138,7.138,0,0,0-2.163,1.967.394.394,0,0,0-.106.326c.05.162.264.191.433.189l2.677-.021a12.628,12.628,0,0,0,1.483-.07c.149-.018.319-.058.382-.194a.463.463,0,0,0,.014-.259l-.244-1.746" fill="none" stroke="#5d7248" stroke-miterlimit="10" stroke-width="1"/>
      <path id="パス_227" data-name="パス 227" d="M694.681,6891.1a4.247,4.247,0,0,0,1.869,1.542" fill="none" stroke="#5d7248" stroke-miterlimit="10" stroke-width="1"/>
      <path id="パス_228" data-name="パス 228" d="M694.534,6890.481a4.115,4.115,0,0,1,1.649-2.535c.259-.216.6-.434.913-.31.251.1.374.373.523.6s.425.436.667.318a1.33,1.33,0,0,1,.2-.114c.223-.064.377.217.439.44l.34,1.236" fill="none" stroke="#5d7248" stroke-miterlimit="10" stroke-width="1"/>
      <path id="パス_229" data-name="パス 229" d="M727.832,6891.07l.329-.932a.963.963,0,0,1,.188-.362.337.337,0,0,1,.373-.1c.1.046.153.148.25.191a.478.478,0,0,0,.265.006l1.08-.182a.793.793,0,0,1,.414.005.771.771,0,0,1,.3.249q.534.634,1.013,1.308a1.4,1.4,0,0,1,.267.524,1.163,1.163,0,0,1-.208.805,2.908,2.908,0,0,1-1.57,1.243" fill="none" stroke="#5d7248" stroke-miterlimit="10" stroke-width="1"/>
      <path id="パス_230" data-name="パス 230" d="M741.941,6877.647a.645.645,0,0,1,.7-.227,1,1,0,0,1,.582.5,1.468,1.468,0,0,1-.617,1.956,1.625,1.625,0,0,0-.421.227,1.08,1.08,0,0,0-.18.254,9,9,0,0,1-5.428,4.13" fill="none" stroke="#5d7248" stroke-miterlimit="10" stroke-width="1"/>
      <path id="パス_231" data-name="パス 231" d="M724.817,6874.88a7.541,7.541,0,0,0,.19,2.733c.353,1.822.764,3.757,2.069,5.076a6.263,6.263,0,0,0,1.205.928,9.517,9.517,0,0,0,7.913.877" fill="none" stroke="#5d7248" stroke-miterlimit="10" stroke-width="1"/>
      <path id="パス_232" data-name="パス 232" d="M729.756,6880.394a.7.7,0,0,0,.489.7" fill="none" stroke="#5d7248" stroke-miterlimit="10" stroke-width="1"/>
      <path id="パス_233" data-name="パス 233" d="M730.087,6880.48l.51,0c1.3-.006,2.6-.012,3.892-.118a1.29,1.29,0,0,1-.716.892" fill="none" stroke="#5d7248" stroke-miterlimit="10" stroke-width="1"/>
      <path id="パス_234" data-name="パス 234" d="M727.748,6876.517v.063" fill="none" stroke="#5d7248" stroke-miterlimit="10" stroke-width="1"/>
      <path id="パス_235" data-name="パス 235" d="M735.439,6876.017" fill="none" stroke="#5d7248" stroke-miterlimit="10" stroke-width="1"/>
      <path id="パス_236" data-name="パス 236" d="M740.6,6874.9l.36,1.736c.017.08.034.161.056.241" fill="none" stroke="#5d7248" stroke-miterlimit="10" stroke-width="1"/>
      <path id="パス_237" data-name="パス 237" d="M731.654,6868.456a10.452,10.452,0,0,0,3.567,4.371,12.615,12.615,0,0,0,2.108,1.393,8.243,8.243,0,0,0,2.878.837" fill="none" stroke="#5d7248" stroke-miterlimit="10" stroke-width="1"/>
      <path id="パス_238" data-name="パス 238" d="M731.321,6869.085a28,28,0,0,1-6.118,5.149" fill="none" stroke="#5d7248" stroke-miterlimit="10" stroke-width="1"/>
      <path id="パス_239" data-name="パス 239" d="M731.243,6862.682c-1.572.067-2.861,1.213-4,2.3a18.375,18.375,0,0,0-1.677,1.733,9.34,9.34,0,0,0-1.677,8.367c.035.119.218.238.24.116" fill="none" stroke="#5d7248" stroke-miterlimit="10" stroke-width="1"/>
      <path id="パス_240" data-name="パス 240" d="M732.062,6862.578a3.746,3.746,0,0,1,2.721-.564,12.076,12.076,0,0,1,6.976,2.566c2.033,1.739,2.729,3.706,3.178,6.343.338,1.988-.324,6.778-1.553,7.746" fill="none" stroke="#5d7248" stroke-miterlimit="10" stroke-width="1"/>
      <path id="パス_241" data-name="パス 241" d="M763.231,6890.445a14.65,14.65,0,0,0-2.759,2.844,1.1,1.1,0,0,0-.247.5,1.154,1.154,0,0,0,.393.832c1.3,1.488,2.724,3.036,4.631,3.555a2.349,2.349,0,0,0,1.129.074,2.035,2.035,0,0,0,1.374-2.132,5.056,5.056,0,0,0-1.064-2.5,22.072,22.072,0,0,0-2.5-3.006,1.048,1.048,0,0,0-.687-.393" fill="none" stroke="#5d7248" stroke-miterlimit="10" stroke-width="1"/>
      <path id="パス_242" data-name="パス 242" d="M760.295,6892.587a5.816,5.816,0,0,1-1.738-1.132.885.885,0,0,1-.244-.323.8.8,0,0,1-.015-.392,2.818,2.818,0,0,1,2.287-2.3.834.834,0,0,1,.55.06c.115.067.215.185.348.18s.238-.157.319-.28.229-.249.36-.18a2.655,2.655,0,0,0,.156,1.43" fill="none" stroke="#5d7248" stroke-miterlimit="10" stroke-width="1"/>
      <path id="パス_243" data-name="パス 243" d="M750.486,6892.695a7.43,7.43,0,0,0-2.708,1.321,8,8,0,0,0-2.211,2.067,3.312,3.312,0,0,0-.471,2.9,4.415,4.415,0,0,0,2.73,2.267" fill="none" stroke="#5d7248" stroke-miterlimit="10" stroke-width="1"/>
      <path id="パス_244" data-name="パス 244" d="M746.727,6901.285a.76.76,0,0,0-.031,1.182,1.8,1.8,0,0,0,1.3.342,6.552,6.552,0,0,0,4.433-2" fill="none" stroke="#5d7248" stroke-miterlimit="10" stroke-width="1"/>
      <path id="パス_245" data-name="パス 245" d="M749.518,6896.733a22.325,22.325,0,0,0-.394,8.9,58.87,58.87,0,0,1,.723,8.926.877.877,0,0,0,.079.506.812.812,0,0,0,.536.295,7.442,7.442,0,0,0,2.473.152.835.835,0,0,0,.474-.158.889.889,0,0,0,.217-.6l.728-7.518,4.669-.4" fill="none" stroke="#5d7248" stroke-miterlimit="10" stroke-width="1"/>
      <path id="パス_246" data-name="パス 246" d="M764.005,6898.81a112.95,112.95,0,0,1-1.149,15.049.664.664,0,0,1-.117.344.641.641,0,0,1-.367.172,7.2,7.2,0,0,1-2.236.122.6.6,0,0,1-.332-.106.623.623,0,0,1-.17-.334,17.365,17.365,0,0,1-.429-6.807" fill="none" stroke="#5d7248" stroke-miterlimit="10" stroke-width="1"/>
      <path id="パス_247" data-name="パス 247" d="M750.382,6915.748a3.383,3.383,0,0,0-1.546,1.534.438.438,0,0,0-.029.273.49.49,0,0,0,.336.263,5,5,0,0,0,3.9-.264.158.158,0,0,0,.1-.205l-.117-.939" fill="none" stroke="#5d7248" stroke-miterlimit="10" stroke-width="1"/>
      <path id="パス_248" data-name="パス 248" d="M762.582,6914.7a5.434,5.434,0,0,1,2.117,1.767.39.39,0,0,1-.261.162,5.76,5.76,0,0,1-3.826-.26c-.1-.044-.211-.106-.227-.214s.069-.2.082-.3a.617.617,0,0,0-.1-.323.275.275,0,0,1,.019-.319" fill="none" stroke="#5d7248" stroke-miterlimit="10" stroke-width="1"/>
      <path id="パス_249" data-name="パス 249" d="M759.315,6892.668a18.891,18.891,0,0,1-5.833.036,6.866,6.866,0,0,1-2.573-.812,5.3,5.3,0,0,1-1.467-1.385c-1.707-2.294-1.908-5.426-1.27-8.213a6.92,6.92,0,0,1,.751-2.036,6.316,6.316,0,0,1,1.474-1.616,9.866,9.866,0,0,1,7.431-2.2,8.051,8.051,0,0,1,6.187,4.476,12.748,12.748,0,0,1,.821,2.917,9.635,9.635,0,0,1-.158,5.551,1.326,1.326,0,0,1-.4.576.542.542,0,0,1-.657.011" fill="none" stroke="#5d7248" stroke-miterlimit="10" stroke-width="1"/>
      <path id="パス_250" data-name="パス 250" d="M748.993,6890.044a12.277,12.277,0,0,1-3.322-7.22c-.4-3.65,1.648-8.421,4-9.65a12.962,12.962,0,0,1,7.439-1.5c2.661.249,5.791,1.425,7.388,3.569a14.579,14.579,0,0,1,2.357,7.306c.021,4.4-2.043,6.339-2.043,6.339" fill="none" stroke="#5d7248" stroke-miterlimit="10" stroke-width="1"/>
      <path id="パス_251" data-name="パス 251" d="M740.6,6883.7c3.022,1.9,5.046,5.01,6.974,8.017" fill="none" stroke="#5d7248" stroke-miterlimit="10" stroke-width="1"/>
      <path id="パス_252" data-name="パス 252" d="M739.542,6888.914c1.425,2.006,2.062,4.545,3.765,6.321.043.045.109.093.161.059s-.052-.123-.054-.061" fill="none" stroke="#5d7248" stroke-miterlimit="10" stroke-width="1"/>
      <path id="パス_253" data-name="パス 253" d="M743.7,6895.285a36.8,36.8,0,0,0,3.639-1.964,2.713,2.713,0,0,0,.967-.842" fill="none" stroke="#5d7248" stroke-miterlimit="10" stroke-width="1"/>
      <path id="パス_254" data-name="パス 254" d="M730.947,6885.515c-.424.9-1.152,3.138-1.6,4.029" fill="none" stroke="#5d7248" stroke-miterlimit="10" stroke-width="1"/>
      <path id="パス_255" data-name="パス 255" d="M743.269,6895.972l.785,5.924" fill="none" stroke="#5d7248" stroke-miterlimit="10" stroke-width="1"/>
      <path id="パス_256" data-name="パス 256" d="M728.767,6898.98l-.163,1.3a.52.52,0,0,0,.169.532,9.7,9.7,0,0,0,3.438,2.445" fill="none" stroke="#5d7248" stroke-miterlimit="10" stroke-width="1"/>
      <path id="パス_257" data-name="パス 257" d="M731.6,6903.226a40.25,40.25,0,0,0,7.218.423c1.707-.053,3.584-.3,4.724-1.569" fill="none" stroke="#5d7248" stroke-miterlimit="10" stroke-width="1"/>
      <path id="パス_258" data-name="パス 258" d="M730.065,6902.573a13.4,13.4,0,0,0,1.035,5.736,13.256,13.256,0,0,0,2.855-.018.211.211,0,0,0,.236-.224c.031-.236,1.029-4.161,1.061-4.4" fill="none" stroke="#5d7248" stroke-miterlimit="10" stroke-width="1"/>
      <path id="パス_259" data-name="パス 259" d="M736.792,6903.669a13.453,13.453,0,0,1,1.291.775c.027.03.614,4.123.775,4.569" fill="none" stroke="#5d7248" stroke-miterlimit="10" stroke-width="1"/>
      <path id="パス_260" data-name="パス 260" d="M744.065,6902.421l.107,6.693a.679.679,0,0,1-.057.35.655.655,0,0,1-.392.255,6.15,6.15,0,0,1-2.553.349,3.713,3.713,0,0,1-2.312-1.055" fill="none" stroke="#5d7248" stroke-miterlimit="10" stroke-width="1"/>
      <path id="パス_261" data-name="パス 261" d="M740.086,6910.223l.01,1.532a1.157,1.157,0,0,1-.032.342,1.3,1.3,0,0,1-.24.394,10.566,10.566,0,0,0-.982,1.68c-.044.089-.084.21-.01.277a.235.235,0,0,0,.08.04,6.631,6.631,0,0,0,4.449-.079,1.2,1.2,0,0,0,.67-.478,1.014,1.014,0,0,0-.017-.851c-.109-.273-.275-.521-.37-.8a3.449,3.449,0,0,1-.133-.983l-.043-1.18" fill="none" stroke="#5d7248" stroke-miterlimit="10" stroke-width="1"/>
      <path id="パス_262" data-name="パス 262" d="M731.226,6908.546a5.514,5.514,0,0,0-.1,2c-.388.162-1,.5-1,.5s-.84.359-1.008.784a.772.772,0,0,0,.219.837,17.46,17.46,0,0,0,4.8-.114c.314-.173.289-.794.262-1.152l-.193-2.584" fill="none" stroke="#5d7248" stroke-miterlimit="10" stroke-width="1"/>
      <path id="パス_263" data-name="パス 263" d="M730.294,6885.544l-3.411,4.534" fill="none" stroke="#5d7248" stroke-miterlimit="10" stroke-width="1"/>
      <path id="パス_264" data-name="パス 264" d="M740.814,6884.77a11.718,11.718,0,0,0-1.33,1.989q-3.507,6.074-7.509,11.842a9.827,9.827,0,0,1-1.837,2.156" fill="none" stroke="#5d7248" stroke-miterlimit="10" stroke-width="1"/>
      <path id="パス_265" data-name="パス 265" d="M736.277,6884.634l-3.761,5.354a.23.23,0,1,1,.024-.044" fill="none" stroke="#5d7248" stroke-miterlimit="10" stroke-width="1"/>
      <path id="パス_266" data-name="パス 266" d="M760.079,6901.271a5.521,5.521,0,0,0,3.368,2.033,2.036,2.036,0,0,0,1.671-.008,1.221,1.221,0,0,0,.463-1.276,1.878,1.878,0,0,0-.848-1.125" fill="none" stroke="#5d7248" stroke-miterlimit="10" stroke-width="1"/>
      <path id="パス_267" data-name="パス 267" d="M675.434,6879.81a19.723,19.723,0,0,0,4.819.1l-.014.167" fill="none" stroke="#5d7248" stroke-miterlimit="10" stroke-width="1"/>
      <path id="パス_268" data-name="パス 268" d="M675.594,6879.95a18.39,18.39,0,0,0,.411,5.324,3.639,3.639,0,0,0,1.8,2.779,2,2,0,0,0,1.788-.166,3.016,3.016,0,0,0,1.126-1.6c.684-1.954.34-4.1-.011-6.141" fill="none" stroke="#5d7248" stroke-miterlimit="10" stroke-width="1"/>
      <path id="パス_269" data-name="パス 269" d="M692.267,6880.853a23.181,23.181,0,0,0,.107,4.948,4.769,4.769,0,0,0,.525,1.844,1.874,1.874,0,0,0,1.557.987l.007-.236" fill="none" stroke="#5d7248" stroke-miterlimit="10" stroke-width="1"/>
      <path id="パス_270" data-name="パス 270" d="M692.835,6880.691a24.077,24.077,0,0,0,4.162.375q-.108,2.327-.356,4.642a4.933,4.933,0,0,1-.448,1.836c-.027.049-.073.106-.127.09s0-.123.03-.073" fill="none" stroke="#5d7248" stroke-miterlimit="10" stroke-width="1"/>
      <path id="パス_271" data-name="パス 271" d="M693.194,6878.711a2.252,2.252,0,0,0,.142,1.292.29.29,0,0,0,.081-.244" fill="none" stroke="#5d7248" stroke-miterlimit="10" stroke-width="1"/>
      <path id="パス_272" data-name="パス 272" d="M693.677,6878.061a2.732,2.732,0,0,1,2.3-.1.405.405,0,0,1,.224.173.681.681,0,0,1,.01.321.6.6,0,0,0,.455.586.206.206,0,0,1,.135.061.166.166,0,0,1,.005.135,2.086,2.086,0,0,1-.4.783" fill="none" stroke="#5d7248" stroke-miterlimit="10" stroke-width="1"/>
      <path id="パス_273" data-name="パス 273" d="M679.631,6879.36a3.15,3.15,0,0,0,.061-1.814,1.268,1.268,0,0,0-.745-.948,1.553,1.553,0,0,0-.659,0l-1.312.184c-.3.042-.675.161-.693.462a2.1,2.1,0,0,1,.009.262c-.042.222-.326.281-.5.42a.546.546,0,0,0,.293.974" fill="none" stroke="#5d7248" stroke-miterlimit="10" stroke-width="1"/>
      <path id="パス_274" data-name="パス 274" d="M681.371,6881.36a9.686,9.686,0,0,0,10.071-.522,3.75,3.75,0,0,0,1.382-1.532" fill="none" stroke="#5d7248" stroke-miterlimit="10" stroke-width="1"/>
      <path id="パス_275" data-name="パス 275" d="M682.113,6866.17c.18,1.36.7,3.256,1.814,4.157.549.443,3.512.353,4.861-.137a1.633,1.633,0,0,1-.064-1.035" fill="none" stroke="#5d7248" stroke-miterlimit="10" stroke-width="1"/>
      <path id="パス_276" data-name="パス 276" d="M688.871,6868.729a12.432,12.432,0,0,0,1.749,1.671,4.185,4.185,0,0,0,2.223.872l.006-.805" fill="none" stroke="#5d7248" stroke-miterlimit="10" stroke-width="1"/>
      <path id="パス_277" data-name="パス 277" d="M693.068,6870.887a31.918,31.918,0,0,1,.558,4.462,7.657,7.657,0,0,1-.12,2.757c-.012.041-.036.09-.079.088s-.017-.091.01-.058" fill="none" stroke="#5d7248" stroke-miterlimit="10" stroke-width="1"/>
      <path id="パス_278" data-name="パス 278" d="M681.693,6866a14.764,14.764,0,0,0-3.429,6.469" fill="none" stroke="#5d7248" stroke-miterlimit="10" stroke-width="1"/>
      <path id="パス_279" data-name="パス 279" d="M677.979,6866.123a9.52,9.52,0,0,0-.462,5.773c.017.071.114.152.139.083" fill="none" stroke="#5d7248" stroke-miterlimit="10" stroke-width="1"/>
      <path id="パス_280" data-name="パス 280" d="M677.318,6871.079a20.093,20.093,0,0,0-.624,4.744" fill="none" stroke="#5d7248" stroke-miterlimit="10" stroke-width="1"/>
      <path id="パス_281" data-name="パス 281" d="M685.588,6858.012a2.063,2.063,0,0,0-1.057-.225,8.649,8.649,0,0,0-6.309,2.689,11.619,11.619,0,0,0-1.812,2.655,18.27,18.27,0,0,0-2.014,9.005,16.537,16.537,0,0,1,.031,1.695,9,9,0,0,1-1.992,4.851,2.531,2.531,0,0,0,2.135-.35" fill="none" stroke="#5d7248" stroke-miterlimit="10" stroke-width="1"/>
      <path id="パス_282" data-name="パス 282" d="M685.844,6857.931a8.731,8.731,0,0,1,7.427,2.786,16.232,16.232,0,0,1,3.74,7.248" fill="none" stroke="#5d7248" stroke-miterlimit="10" stroke-width="1"/>
      <path id="パス_283" data-name="パス 283" d="M696.906,6867.97l.5,5.195c.179,1.852.422,3.851,1.7,5.205a2.407,2.407,0,0,1-1.812.149" fill="none" stroke="#5d7248" stroke-miterlimit="10" stroke-width="1"/>
      <path id="パス_284" data-name="パス 284" d="M684.5,6877.364a2.533,2.533,0,0,0,1.53.5,1.484,1.484,0,0,0,1.137-.463c.015-.018.037-.04.06-.031s0,.054-.015.032" fill="none" stroke="#5d7248" stroke-miterlimit="10" stroke-width="1"/>
      <path id="パス_285" data-name="パス 285" d="M689.369,6873.978l.03.03" fill="none" stroke="#5d7248" stroke-miterlimit="10" stroke-width="1"/>
      <path id="パス_286" data-name="パス 286" d="M681.854,6874.008l-.03-.06" fill="none" stroke="#5d7248" stroke-miterlimit="10" stroke-width="1"/>
      <path id="パス_287" data-name="パス 287" d="M679.35,6888.7a81.811,81.811,0,0,1-3.414,9.234,14.864,14.864,0,0,0,5.024-1.628c2.137-1.275,3.591-3.411,4.975-5.48a6.052,6.052,0,0,0,1.894,3.33,18.414,18.414,0,0,0,5.457,3.426,9.748,9.748,0,0,0,3.732.56l-.953-1.62a12.653,12.653,0,0,1-.809-1.532,22.554,22.554,0,0,1-1.106-2.583c-.3-1.285-.565-2.992-.862-4.277" fill="none" stroke="#5d7248" stroke-miterlimit="10" stroke-width="1"/>
      <path id="パス_288" data-name="パス 288" d="M680.916,6897c-.311,1.562.5,3.115,1.391,4.437.494.738,1.15,1.527,2.038,1.548a2.366,2.366,0,0,0,1.78-1.038,5.763,5.763,0,0,0,1.169-2.581" fill="none" stroke="#5d7248" stroke-miterlimit="10" stroke-width="1"/>
      <path id="パス_289" data-name="パス 289" d="M685.242,6898.437a18.592,18.592,0,0,0,2.787.369" fill="none" stroke="#5d7248" stroke-miterlimit="10" stroke-width="1"/>
      <path id="パス_290" data-name="パス 290" d="M694.533,6898.455a78.345,78.345,0,0,1-3.043,9.6.451.451,0,0,1-.154.234.442.442,0,0,1-.306.031,6.471,6.471,0,0,1-2.282-.792.417.417,0,0,1-.175-.151.446.446,0,0,1-.025-.252,26.02,26.02,0,0,0-.449-7.878" fill="none" stroke="#5d7248" stroke-miterlimit="10" stroke-width="1"/>
      <path id="パス_291" data-name="パス 291" d="M691.218,6908.8a13.148,13.148,0,0,1,.61,2.383,1.6,1.6,0,0,1-1.017.142,2.739,2.739,0,0,1-2.167-1.849,5.363,5.363,0,0,1-.171-1.544" fill="none" stroke="#5d7248" stroke-miterlimit="10" stroke-width="1"/>
      <path id="パス_292" data-name="パス 292" d="M680.933,6900.05a11.4,11.4,0,0,0,.478,3.558.826.826,0,0,0,.211.4.7.7,0,0,0,.84-.071,1.561,1.561,0,0,0,.516-.662" fill="none" stroke="#5d7248" stroke-miterlimit="10" stroke-width="1"/>
      <path id="パス_293" data-name="パス 293" d="M688.053,6898.857a1.382,1.382,0,0,1,.963-.091" fill="none" stroke="#5d7248" stroke-miterlimit="10" stroke-width="1"/>
      <path id="パス_294" data-name="パス 294" d="M684.459,6894.631a8.7,8.7,0,0,0,3.1-.01" fill="none" stroke="#5d7248" stroke-miterlimit="10" stroke-width="1"/>
      <path id="パス_295" data-name="パス 295" d="M683.927,6908.183c-1.419-.487-2.97-.975-4.385-.479a5.319,5.319,0,0,0-2.1,1.546,15.988,15.988,0,0,0-2.031,2.891,5.576,5.576,0,0,0-.936,3.844,4.255,4.255,0,0,0,3,2.885,12.547,12.547,0,0,0,4.321.308l1.664-.075a9.945,9.945,0,0,0,4.132-.783,3.4,3.4,0,0,0,1.995-3.412c-.221-1.176-1.231-2.011-1.945-2.972a22.459,22.459,0,0,0-1.731-2.487,8.353,8.353,0,0,0-2.728-1.635" fill="none" stroke="#5d7248" stroke-miterlimit="10" stroke-width="1"/>
      <path id="パス_296" data-name="パス 296" d="M674.72,6908.387a1.817,1.817,0,0,0,1.919,1.469" fill="none" stroke="#5d7248" stroke-miterlimit="10" stroke-width="1"/>
      <path id="パス_297" data-name="パス 297" d="M686.444,6909.51a1.943,1.943,0,0,0,1.181-1.706" fill="none" stroke="#5d7248" stroke-miterlimit="10" stroke-width="1"/>
      <path id="パス_298" data-name="パス 298" d="M678.513,6913.208" fill="none" stroke="#5d7248" stroke-miterlimit="10" stroke-width="1"/>
      <path id="パス_299" data-name="パス 299" d="M684.916,6913.267" fill="none" stroke="#5d7248" stroke-miterlimit="10" stroke-width="1"/>
      <path id="パス_300" data-name="パス 300" d="M679.509,6920.127a3.309,3.309,0,0,0-1.145,1.785,9.7,9.7,0,0,0-.279,2.137c-.07,1.254-.077,2.668.8,3.562a3.968,3.968,0,0,0,2.58.933,5.2,5.2,0,0,0,2.954-.457c.5-.281.922-.7,1.433-.961,1.258-.65,2.769-.274,4.167-.05a2.524,2.524,0,0,0,1.124,0,1.784,1.784,0,0,0,1.107-1.209,4.379,4.379,0,0,0,.1-1.692,4.322,4.322,0,0,0-.29-1.377,3.01,3.01,0,0,0-2.507-1.661,4.967,4.967,0,0,0-2.99.828c-.192.119-.379.247-.579.351" fill="none" stroke="#5d7248" stroke-miterlimit="10" stroke-width="1"/>
      <path id="パス_301" data-name="パス 301" d="M684.743,6920a.445.445,0,0,0-.083.282,6.667,6.667,0,0,0,.708,3.337" fill="none" stroke="#5d7248" stroke-miterlimit="10" stroke-width="1"/>
      <path id="パス_302" data-name="パス 302" d="M673.333,6920.837a2.661,2.661,0,0,0,4.727,1.665" fill="none" stroke="#5d7248" stroke-miterlimit="10" stroke-width="1"/>
      <path id="パス_303" data-name="パス 303" d="M684.516,6921.531a.868.868,0,0,0,.553.56,2.4,2.4,0,0,0,.806.115,5.789,5.789,0,0,0,2.347-.3,3.269,3.269,0,0,0,1.972-2.667" fill="none" stroke="#5d7248" stroke-miterlimit="10" stroke-width="1"/>
      <path id="パス_304" data-name="パス 304" d="M678.789,6928.12a10.453,10.453,0,0,0-.226,5.168.4.4,0,0,0,.158.254" fill="none" stroke="#5d7248" stroke-miterlimit="10" stroke-width="1"/>
      <path id="パス_305" data-name="パス 305" d="M683.218,6929.251a42.414,42.414,0,0,0-.005,4.663l.1-.162" fill="none" stroke="#5d7248" stroke-miterlimit="10" stroke-width="1"/>
      <path id="パス_306" data-name="パス 306" d="M685.762,6927.913a19.166,19.166,0,0,0-.293,3.587c0,.03.027.057.018.086s-.058-.017-.028-.013" fill="none" stroke="#5d7248" stroke-miterlimit="10" stroke-width="1"/>
      <path id="パス_307" data-name="パス 307" d="M689.3,6927.97a12.845,12.845,0,0,1,.046,2.131l-.108,3.172c0,.04-.012.091-.051.1s-.033-.08,0-.053" fill="none" stroke="#5d7248" stroke-miterlimit="10" stroke-width="1"/>
      <path id="パス_308" data-name="パス 308" d="M692.779,6926.038c.078.016.088.122.08.2l-.357,3.465a.089.089,0,0,1-.033.076c-.025.015-.066-.017-.047-.039" fill="none" stroke="#5d7248" stroke-miterlimit="10" stroke-width="1"/>
      <path id="パス_309" data-name="パス 309" d="M657.75,6881.006a11.624,11.624,0,0,0,1.083,4.836,5.921,5.921,0,0,0,5.412,2.957" fill="none" stroke="#5d7248" stroke-miterlimit="10" stroke-width="1"/>
      <path id="パス_310" data-name="パス 310" d="M663.945,6886.468a4.172,4.172,0,0,0,.57,1.983" fill="none" stroke="#5d7248" stroke-miterlimit="10" stroke-width="1"/>
      <path id="パス_311" data-name="パス 311" d="M664.2,6887.076a16.421,16.421,0,0,0,4.673,4.239" fill="none" stroke="#5d7248" stroke-miterlimit="10" stroke-width="1"/>
      <path id="パス_312" data-name="パス 312" d="M657.336,6881.9a24.407,24.407,0,0,0-4.75,5.591,4.288,4.288,0,0,0-.793,2.119" fill="none" stroke="#5d7248" stroke-miterlimit="10" stroke-width="1"/>
      <path id="パス_313" data-name="パス 313" d="M651.9,6889.372c-.075,3.15-.012,6.5,1.673,9.159" fill="none" stroke="#5d7248" stroke-miterlimit="10" stroke-width="1"/>
      <path id="パス_314" data-name="パス 314" d="M668.7,6891.584a34.953,34.953,0,0,1-.522,6.286" fill="none" stroke="#5d7248" stroke-miterlimit="10" stroke-width="1"/>
      <path id="パス_315" data-name="パス 315" d="M667.982,6881.389a6.53,6.53,0,0,1,2.61,4.674,10.42,10.42,0,0,1-1.009,5.361" fill="none" stroke="#5d7248" stroke-miterlimit="10" stroke-width="1"/>
      <path id="パス_316" data-name="パス 316" d="M670.194,6890.885a19.26,19.26,0,0,1-1.847,6.375" fill="none" stroke="#5d7248" stroke-miterlimit="10" stroke-width="1"/>
      <path id="パス_317" data-name="パス 317" d="M649.157,6886.7a21.317,21.317,0,0,0,.625,6.708,9.808,9.808,0,0,0,3.744,5.471" fill="none" stroke="#5d7248" stroke-miterlimit="10" stroke-width="1"/>
      <path id="パス_318" data-name="パス 318" d="M657.971,6874.963a13.89,13.89,0,0,1,6.738,1.1,9.622,9.622,0,0,1,4.83,4.714,8.25,8.25,0,0,1,.654,2.423" fill="none" stroke="#5d7248" stroke-miterlimit="10" stroke-width="1"/>
      <path id="パス_319" data-name="パス 319" d="M657.363,6875.161a7.474,7.474,0,0,0-4.91,1.58,12.628,12.628,0,0,0-4.268,12.711,17.849,17.849,0,0,0,1.27,2.8" fill="none" stroke="#5d7248" stroke-miterlimit="10" stroke-width="1"/>
      <path id="パス_320" data-name="パス 320" d="M652.553,6896.55a10.74,10.74,0,0,0,1.669,1.59,12.909,12.909,0,0,0,5.4,1.735,8.432,8.432,0,0,0,2.011.053,8.789,8.789,0,0,0,3.783-1.674c1.5-1.018,2.995-2.307,3.378-4.075" fill="none" stroke="#5d7248" stroke-miterlimit="10" stroke-width="1"/>
      <path id="パス_321" data-name="パス 321" d="M658,6895.513a1.1,1.1,0,0,0,.529.9" fill="none" stroke="#5d7248" stroke-miterlimit="10" stroke-width="1"/>
      <path id="パス_322" data-name="パス 322" d="M658.515,6895.44l4.191-.076a.523.523,0,0,1,.4.108.346.346,0,0,1,.034.375,1.017,1.017,0,0,1-.253.306" fill="none" stroke="#5d7248" stroke-miterlimit="10" stroke-width="1"/>
      <path id="パス_323" data-name="パス 323" d="M656.446,6891.75a.148.148,0,0,0,0,.185" fill="none" stroke="#5d7248" stroke-miterlimit="10" stroke-width="1"/>
      <path id="パス_324" data-name="パス 324" d="M664.74,6891.967c-.036.014,0,.082.031.062" fill="none" stroke="#5d7248" stroke-miterlimit="10" stroke-width="1"/>
      <path id="パス_325" data-name="パス 325" d="M648.246,6898.581c-.023.3.263.524.519.682a7.148,7.148,0,0,0,2.931,1.179,4.222,4.222,0,0,0,2.8-.708" fill="none" stroke="#5d7248" stroke-miterlimit="10" stroke-width="1"/>
      <path id="パス_326" data-name="パス 326" d="M648,6898.469a11.957,11.957,0,0,0-2.208,3.531.568.568,0,0,0,.155.751,7.578,7.578,0,0,0,6,2.35,1.748,1.748,0,0,0,1.457-.677" fill="none" stroke="#5d7248" stroke-miterlimit="10" stroke-width="1"/>
      <path id="パス_327" data-name="パス 327" d="M664.862,6899.364a30.1,30.1,0,0,1,1.5,5.323,46.8,46.8,0,0,0,3.168,9.081" fill="none" stroke="#5d7248" stroke-miterlimit="10" stroke-width="1"/>
      <path id="パス_328" data-name="パス 328" d="M653.1,6905.221l-3.147,10.491a.367.367,0,0,0,.187.52,14.683,14.683,0,0,0,2.73,1.528,4.93,4.93,0,0,0,3.07.253" fill="none" stroke="#5d7248" stroke-miterlimit="10" stroke-width="1"/>
      <path id="パス_329" data-name="パス 329" d="M660.384,6908.87a13.633,13.633,0,0,1-1.3,3.653q-1.168,2.5-2.342,5" fill="none" stroke="#5d7248" stroke-miterlimit="10" stroke-width="1"/>
      <path id="パス_330" data-name="パス 330" d="M660.536,6909.348a44.68,44.68,0,0,0,3.819,7.83,1.114,1.114,0,0,0,.434.466,1.025,1.025,0,0,0,.444.066,5.757,5.757,0,0,0,3.538-1.3,1.964,1.964,0,0,0,.868-2.043" fill="none" stroke="#5d7248" stroke-miterlimit="10" stroke-width="1"/>
      <path id="パス_331" data-name="パス 331" d="M665.406,6900.53l7.307,6.869a.5.5,0,0,1,.2.536,4.343,4.343,0,0,1-.576,2.047,1.588,1.588,0,0,1-1.859.676" fill="none" stroke="#5d7248" stroke-miterlimit="10" stroke-width="1"/>
      <path id="パス_332" data-name="パス 332" d="M670.251,6910.669q-1.174-1.1-2.264-2.293" fill="none" stroke="#5d7248" stroke-miterlimit="10" stroke-width="1"/>
      <path id="パス_333" data-name="パス 333" d="M673.486,6909.122q.719.368,1.41.786" fill="none" stroke="#5d7248" stroke-miterlimit="10" stroke-width="1"/>
      <path id="パス_334" data-name="パス 334" d="M671.578,6911.3a5.746,5.746,0,0,0,3.309.342" fill="none" stroke="#5d7248" stroke-miterlimit="10" stroke-width="1"/>
      <path id="パス_335" data-name="パス 335" d="M644.1,6897.219a2.193,2.193,0,0,1,.5-1.554.355.355,0,0,1,.145-.116c.142-.047.277.081.368.2a12.285,12.285,0,0,1,1.51,2.985" fill="none" stroke="#5d7248" stroke-miterlimit="10" stroke-width="1"/>
      <path id="パス_336" data-name="パス 336" d="M644.049,6896.068a1.311,1.311,0,0,0-1.11-.174,1.294,1.294,0,0,0-.467.484,6.394,6.394,0,0,0-1.025,2.012c-.057.238-.115.522-.339.62a.888.888,0,0,0-.235.1c-.152.129-.036.377.1.527a7.236,7.236,0,0,0,3.544,2.036c.278.079.558.149.837.226" fill="none" stroke="#5d7248" stroke-miterlimit="10" stroke-width="1"/>
      <path id="パス_337" data-name="パス 337" d="M654.994,6918.594a3.1,3.1,0,0,0,.373,1.111q.917,1.888,1.884,3.75a.448.448,0,0,0,.207.234.44.44,0,0,0,.166.017l2.139-.052a43.021,43.021,0,0,1,.005-8.033.351.351,0,0,1,.089-.242.346.346,0,0,1,.224-.055q1.035-.008,2.067.087c.633,2.742.224,5.73,1.4,8.288a.227.227,0,0,0,.093.119.231.231,0,0,0,.1.015l2.224-.026,1.9-6.612-.047.164" fill="none" stroke="#5d7248" stroke-miterlimit="10" stroke-width="1"/>
      <path id="パス_338" data-name="パス 338" d="M657.48,6923.851a12.287,12.287,0,0,0-2.279,2.54.156.156,0,0,0-.038.1c.007.056.067.087.12.107a9.309,9.309,0,0,0,4.117.251.58.58,0,0,0,.406-.147.554.554,0,0,0,.1-.32,6.931,6.931,0,0,0-.083-1.8" fill="none" stroke="#5d7248" stroke-miterlimit="10" stroke-width="1"/>
      <path id="パス_339" data-name="パス 339" d="M663.6,6924.163a3.8,3.8,0,0,0-.244,1.79.707.707,0,0,0,.236.453.868.868,0,0,0,.424.128l1.573.191a6.184,6.184,0,0,0,2.658-.066,6.593,6.593,0,0,0-2.159-2.283" fill="none" stroke="#5d7248" stroke-miterlimit="10" stroke-width="1"/>
      <path id="パス_340" data-name="パス 340" d="M606.772,6877.984q6.8-1.192,13.7-1.78a8.07,8.07,0,0,0,1.277-.176.944.944,0,0,0,.465-.228.722.722,0,0,0-.047-.925,1.991,1.991,0,0,0-.86-.513,23.269,23.269,0,0,0-4.146-1.135" fill="none" stroke="#5d7248" stroke-miterlimit="10" stroke-width="1"/>
      <path id="パス_341" data-name="パス 341" d="M614.7,6873.46a9.326,9.326,0,0,0-6.213,2.127,26.948,26.948,0,0,0-4.578,4.887,5.5,5.5,0,0,0-1.138,1.946" fill="none" stroke="#5d7248" stroke-miterlimit="10" stroke-width="1"/>
      <path id="パス_342" data-name="パス 342" d="M603.162,6883.18a1,1,0,0,0-1.095.026,1.766,1.766,0,0,0-.66.932,1.919,1.919,0,0,0-.022,1.317,1.15,1.15,0,0,0,1.019.749" fill="none" stroke="#5d7248" stroke-miterlimit="10" stroke-width="1"/>
      <path id="パス_343" data-name="パス 343" d="M602.919,6888.625a37.687,37.687,0,0,0,4.009,2.617,3.825,3.825,0,0,0,1.14.482" fill="none" stroke="#5d7248" stroke-miterlimit="10" stroke-width="1"/>
      <path id="パス_344" data-name="パス 344" d="M602.54,6889.14a12.405,12.405,0,0,1-1.338,3.29.6.6,0,0,0-.117.339.521.521,0,0,0,.092.23,4.526,4.526,0,0,0,2.189,1.562,9.074,9.074,0,0,0,2.227.694,3.892,3.892,0,0,0,2.285-.295" fill="none" stroke="#5d7248" stroke-miterlimit="10" stroke-width="1"/>
      <path id="パス_345" data-name="パス 345" d="M599.188,6887.568l.968.483c.179.089.417.17.557.028.107-.11.1-.313.236-.387a.329.329,0,0,1,.351.089,1.264,1.264,0,0,1,.431.774" fill="none" stroke="#5d7248" stroke-miterlimit="10" stroke-width="1"/>
      <path id="パス_346" data-name="パス 346" d="M598.421,6887.445a2.064,2.064,0,0,0-.555,1.132c-.034.233-.027.472-.063.705a8.921,8.921,0,0,1-.439,1.3.551.551,0,0,0,.027.522.557.557,0,0,0,.2.133,6.457,6.457,0,0,0,2.984.632" fill="none" stroke="#5d7248" stroke-miterlimit="10" stroke-width="1"/>
      <path id="パス_347" data-name="パス 347" d="M603.689,6886.688a2.61,2.61,0,0,0,.739,1.141,9.956,9.956,0,0,0,3.346,2.564,7.485,7.485,0,0,0,1.593.427,11.446,11.446,0,0,0,5.392-.406,2.828,2.828,0,0,0,1.606-1.043" fill="none" stroke="#5d7248" stroke-miterlimit="10" stroke-width="1"/>
      <path id="パス_348" data-name="パス 348" d="M617.986,6877.338a19.12,19.12,0,0,1,.452,6.328,15.28,15.28,0,0,1-.153,1.888,7.747,7.747,0,0,1-1.35,3.256" fill="none" stroke="#5d7248" stroke-miterlimit="10" stroke-width="1"/>
      <path id="パス_349" data-name="パス 349" d="M617.1,6872.645a8.776,8.776,0,0,0-3.862-2.864,12.116,12.116,0,0,0-4.78-.756,8.56,8.56,0,0,0-2.418.381c-2.089.7-3.619,2.472-4.884,4.273a9.924,9.924,0,0,0-1.967,4.258,8.751,8.751,0,0,0,.171,2.829,6.878,6.878,0,0,0,1.412,3.317" fill="none" stroke="#5d7248" stroke-miterlimit="10" stroke-width="1"/>
      <path id="パス_350" data-name="パス 350" d="M608.34,6883.063l-.111-.056" fill="none" stroke="#5d7248" stroke-miterlimit="10" stroke-width="1"/>
      <path id="パス_351" data-name="パス 351" d="M615.732,6882.082l.028.028" fill="none" stroke="#5d7248" stroke-miterlimit="10" stroke-width="1"/>
      <path id="パス_352" data-name="パス 352" d="M611.206,6886.759a2.218,2.218,0,0,0,.826.182,4.087,4.087,0,0,0,.93.008,1.418,1.418,0,0,0,.828-.387" fill="none" stroke="#5d7248" stroke-miterlimit="10" stroke-width="1"/>
      <path id="パス_353" data-name="パス 353" d="M615.641,6891.015a21.272,21.272,0,0,1,2.947,8.971,3.422,3.422,0,0,1-.086,1.433,2.919,2.919,0,0,1-.875,1.184,7.935,7.935,0,0,1-4.247,1.85.842.842,0,0,0-.915.794,10.865,10.865,0,0,1-5.99,6.916.558.558,0,0,1-.233.064.579.579,0,0,1-.359-.2q-.552-.527-1.088-1.071a1.7,1.7,0,0,1-.526-.8,1.387,1.387,0,0,1,.472-1.171,7.42,7.42,0,0,0,.919-.935c.585-.868.3-2.033.472-3.065.146-.854.592-1.829.047-2.5-.219-.269-.559-.418-.774-.691a1.919,1.919,0,0,1-.3-1.119,14.807,14.807,0,0,1,.639-5.028" fill="none" stroke="#5d7248" stroke-miterlimit="10" stroke-width="1"/>
      <path id="パス_354" data-name="パス 354" d="M613.358,6905.58a27.324,27.324,0,0,1,.909,5.74l-.061-.237" fill="none" stroke="#5d7248" stroke-miterlimit="10" stroke-width="1"/>
      <path id="パス_355" data-name="パス 355" d="M617.65,6903.293c.344,2.516-.188,5.086.107,7.609a1.178,1.178,0,0,1-.078.778.931.931,0,0,1-.637.35,5.5,5.5,0,0,1-2.4-.263" fill="none" stroke="#5d7248" stroke-miterlimit="10" stroke-width="1"/>
      <path id="パス_356" data-name="パス 356" d="M614.732,6912.231a4.03,4.03,0,0,0,.031,1.658.718.718,0,0,0,.107.27.688.688,0,0,0,.232.18,5.462,5.462,0,0,0,2.075.518,3.488,3.488,0,0,0,2.31-.312,15.338,15.338,0,0,0-1.8-2.122" fill="none" stroke="#5d7248" stroke-miterlimit="10" stroke-width="1"/>
      <path id="パス_357" data-name="パス 357" d="M603.83,6910.551a2.445,2.445,0,0,0-.977.588.655.655,0,0,0-.237.437.738.738,0,0,0,.1.323,8.621,8.621,0,0,0,2.21,2.74.348.348,0,0,0,.283.111c.12-.028.173-.167.206-.286q.216-.772.407-1.551" fill="none" stroke="#5d7248" stroke-miterlimit="10" stroke-width="1"/>
      <path id="パス_358" data-name="パス 358" d="M617.005,6893.751q1.593,1.324,3.12,2.723a1.594,1.594,0,0,1,.337.384,1.635,1.635,0,0,1-.064,1.295,3.364,3.364,0,0,1-1.111,1.835" fill="none" stroke="#5d7248" stroke-miterlimit="10" stroke-width="1"/>
      <path id="パス_359" data-name="パス 359" d="M621.069,6897.6l.949.906c.191.183.4.44.292.681a.59.59,0,0,1-.248.239,1.587,1.587,0,0,1-1.784.073" fill="none" stroke="#5d7248" stroke-miterlimit="10" stroke-width="1"/>
      <path id="パス_360" data-name="パス 360" d="M612.977,6891.683a30.561,30.561,0,0,1,2.429,6.773c.373,1.622.546,3.526-.566,4.765l-.237-.1" fill="none" stroke="#5d7248" stroke-miterlimit="10" stroke-width="1"/>
      <path id="パス_361" data-name="パス 361" d="M606.407,6908a.144.144,0,0,0,.152.1" fill="none" stroke="#5d7248" stroke-miterlimit="10" stroke-width="1"/>
      <path id="パス_362" data-name="パス 362" d="M659.86,6900.569a5.781,5.781,0,0,0,.525,1.031l.246-.812" fill="none" stroke="#5d7248" stroke-miterlimit="10" stroke-width="1"/>
      <path id="パス_363" data-name="パス 363" d="M640.059,6871.959a13.076,13.076,0,0,0-.029-5.228,9.269,9.269,0,0,0-.755-2.578,7.759,7.759,0,0,0-1.867-2.3,10.938,10.938,0,0,0-7.343-2.839,8.39,8.39,0,0,0-6.822,3.659,9.713,9.713,0,0,0-1.082,2.44,14.2,14.2,0,0,0,10.05,17.867,2.528,2.528,0,0,0,.893.11,2.574,2.574,0,0,0,1.254-.621,15.71,15.71,0,0,0,5.8-9.713" fill="none" stroke="#5d7248" stroke-miterlimit="10" stroke-width="1"/>
      <path id="パス_364" data-name="パス 364" d="M631.657,6876.7a.378.378,0,0,0,.57.017" fill="none" stroke="#5d7248" stroke-miterlimit="10" stroke-width="1"/>
      <path id="パス_365" data-name="パス 365" d="M628.549,6874.11a2.109,2.109,0,0,1-2.5.248,1.176,1.176,0,0,1-.43-.434,1.456,1.456,0,0,1-.126-.628,6.266,6.266,0,0,1,1.066-3.679,1.246,1.246,0,0,1,.355-.38.906.906,0,0,1,1.007.123,2.108,2.108,0,0,1,.586.9,6.641,6.641,0,0,1,.445,3.058" fill="none" stroke="#5d7248" stroke-miterlimit="10" stroke-width="1"/>
      <path id="パス_366" data-name="パス 366" d="M637.772,6873.6a2.055,2.055,0,0,1-3.295-.793,4.027,4.027,0,0,1-.182-1.439,4.325,4.325,0,0,1,.389-2.177.886.886,0,0,1,.622-.494,1,1,0,0,1,.713.325,5.406,5.406,0,0,1,1.776,3.549" fill="none" stroke="#5d7248" stroke-miterlimit="10" stroke-width="1"/>
      <path id="パス_367" data-name="パス 367" d="M644.306,6873.737a.9.9,0,0,0-1.62.784" fill="none" stroke="#5d7248" stroke-miterlimit="10" stroke-width="1"/>
      <path id="パス_368" data-name="パス 368" d="M642.494,6875.028a5.767,5.767,0,0,0-.929,1.007,38.943,38.943,0,0,1-3.708,4.042" fill="none" stroke="#5d7248" stroke-miterlimit="10" stroke-width="1"/>
      <path id="パス_369" data-name="パス 369" d="M644.142,6873.2a1.2,1.2,0,0,1,1.321-.836,1.687,1.687,0,0,1,1.263,1.044,2.882,2.882,0,0,1,.108,1.686c-.176.878-.811,1.818-1.7,1.773a1.123,1.123,0,0,0-.422.007.764.764,0,0,0-.363.377c-1.626,2.781-2.863,5.867-5.146,8.139" fill="none" stroke="#5d7248" stroke-miterlimit="10" stroke-width="1"/>
      <path id="パス_370" data-name="パス 370" d="M622.994,6885.8a1.668,1.668,0,0,0-1.02.541,3.031,3.031,0,0,0-.751,1,1.458,1.458,0,0,0,0,1.216,1.689,1.689,0,0,0,.654.64,1.974,1.974,0,0,0,1.928.169,2.63,2.63,0,0,0,.913-1.054c.172-.3.337-.6.494-.905" fill="none" stroke="#5d7248" stroke-miterlimit="10" stroke-width="1"/>
      <path id="パス_371" data-name="パス 371" d="M625.192,6884.922a1.468,1.468,0,0,1,.494.954,1.122,1.122,0,0,1,.032.481.586.586,0,0,1-.518.442" fill="none" stroke="#5d7248" stroke-miterlimit="10" stroke-width="1"/>
      <path id="パス_372" data-name="パス 372" d="M626.145,6881.157a7.838,7.838,0,0,0-4.524.787,3.043,3.043,0,0,0-1.654,1.675,2.266,2.266,0,0,0-.086.705,2.847,2.847,0,0,0,.842,1.932" fill="none" stroke="#5d7248" stroke-miterlimit="10" stroke-width="1"/>
      <path id="パス_373" data-name="パス 373" d="M625.926,6886.58a.791.791,0,0,0,.657-.16" fill="none" stroke="#5d7248" stroke-miterlimit="10" stroke-width="1"/>
      <path id="パス_374" data-name="パス 374" d="M627.825,6885.729a2.081,2.081,0,0,0-.281,1q-.36,3.53-.609,7.071a12.932,12.932,0,0,0-.014,2.426,13.337,13.337,0,0,0,1,3.326" fill="none" stroke="#5d7248" stroke-miterlimit="10" stroke-width="1"/>
      <path id="パス_375" data-name="パス 375" d="M639.226,6886.091a34.6,34.6,0,0,1,2.581,9.923,5.613,5.613,0,0,1,.009,1.564" fill="none" stroke="#5d7248" stroke-miterlimit="10" stroke-width="1"/>
      <path id="パス_376" data-name="パス 376" d="M627.973,6899.742l.3,4.809a12.974,12.974,0,0,1,.036,1.564c-.05.879.075,3.135-.72,3.848a12.585,12.585,0,0,0-1.425,1.586c-.147.186-.294.443-.167.643a.524.524,0,0,0,.316.192,4.335,4.335,0,0,0,2.092-.084q1.128-.245,2.237-.567a.509.509,0,0,0,.437-.4,14.81,14.81,0,0,0,.891-4.262,13.358,13.358,0,0,1,.138-1.7c.091-.492.262-.966.4-1.447a11.38,11.38,0,0,0,.41-4.034q1.872-.027,3.743,0a.5.5,0,0,1,.3.067.512.512,0,0,1,.158.311l1.321,5.509c.166.692.332,1.385.431,2.09.158,1.133-.034,3.167.8,3.954.559.529,1.442.337,2.2.491a9.6,9.6,0,0,0,2.224-.246c.686-.4-.379-1.662-.681-2.318a21.058,21.058,0,0,1-.922-1.96,7.74,7.74,0,0,1-.338-1.951,22.381,22.381,0,0,1,.1-4.221" fill="none" stroke="#5d7248" stroke-miterlimit="10" stroke-width="1"/>
    </g>
  </g>
</svg>
